G04 #@! TF.FileFunction,Paste,Top*
%FSLAX46Y46*%
G04 Gerber Fmt 4.6, Leading zero omitted, Abs format (unit mm)*
G04 Created by KiCad (PCBNEW 4.0.0-stable) date Thursday, 26 May 2016 'pmt' 07:34:14 pm*
%MOMM*%
G01*
G04 APERTURE LIST*
%ADD10C,0.100000*%
%ADD11R,1.600000X2.000000*%
%ADD12R,1.500000X1.250000*%
%ADD13R,1.250000X1.500000*%
%ADD14R,4.500880X3.299460*%
%ADD15R,4.498340X3.299460*%
%ADD16R,2.301240X3.500120*%
%ADD17R,0.800100X1.800860*%
%ADD18R,0.800100X0.800100*%
%ADD19R,1.600000X3.000000*%
%ADD20R,1.198880X1.198880*%
%ADD21R,5.800000X2.100000*%
%ADD22R,0.760000X2.400000*%
%ADD23R,3.048000X1.651000*%
%ADD24R,6.096000X6.096000*%
%ADD25R,1.800860X0.800100*%
%ADD26R,1.500000X1.300000*%
%ADD27R,1.300000X1.500000*%
%ADD28R,3.200000X2.700000*%
%ADD29R,0.400000X1.350000*%
%ADD30R,0.600000X1.350000*%
%ADD31R,1.650000X2.400000*%
%ADD32R,0.800000X0.400000*%
%ADD33R,1.060000X0.650000*%
%ADD34R,0.300000X1.300000*%
%ADD35R,0.700000X2.200000*%
%ADD36R,2.200000X0.700000*%
%ADD37R,5.500000X2.000000*%
G04 APERTURE END LIST*
D10*
D11*
X186600000Y-127200000D03*
X186600000Y-131200000D03*
D12*
X156550000Y-130000000D03*
X159050000Y-130000000D03*
D13*
X164000000Y-135250000D03*
X164000000Y-132750000D03*
X152600000Y-135250000D03*
X152600000Y-132750000D03*
X204800000Y-112350000D03*
X204800000Y-109850000D03*
D12*
X210750000Y-106600000D03*
X213250000Y-106600000D03*
D13*
X183600000Y-131450000D03*
X183600000Y-128950000D03*
X175200000Y-124150000D03*
X175200000Y-126650000D03*
X172400000Y-124150000D03*
X172400000Y-126650000D03*
D12*
X224350000Y-73800000D03*
X226850000Y-73800000D03*
D13*
X178600000Y-134050000D03*
X178600000Y-131550000D03*
X221400000Y-64350000D03*
X221400000Y-66850000D03*
X151200000Y-92450000D03*
X151200000Y-89950000D03*
D12*
X156450000Y-99000000D03*
X153950000Y-99000000D03*
X137750000Y-134600000D03*
X140250000Y-134600000D03*
X139250000Y-92200000D03*
X136750000Y-92200000D03*
X139250000Y-94400000D03*
X136750000Y-94400000D03*
D13*
X126400000Y-67350000D03*
X126400000Y-64850000D03*
D12*
X133550000Y-119200000D03*
X136050000Y-119200000D03*
X136350000Y-109800000D03*
X138850000Y-109800000D03*
D13*
X136800000Y-67950000D03*
X136800000Y-65450000D03*
D12*
X136350000Y-107400000D03*
X138850000Y-107400000D03*
X141050000Y-119200000D03*
X138550000Y-119200000D03*
D13*
X133900000Y-78650000D03*
X133900000Y-81150000D03*
X126400000Y-78550000D03*
X126400000Y-81050000D03*
X126600000Y-92650000D03*
X126600000Y-90150000D03*
X126600000Y-99750000D03*
X126600000Y-102250000D03*
X156200000Y-103750000D03*
X156200000Y-106250000D03*
D14*
X179600720Y-92000000D03*
D15*
X188399280Y-92000000D03*
D14*
X209600720Y-92000000D03*
D15*
X218399280Y-92000000D03*
D14*
X179600720Y-72000000D03*
D15*
X188399280Y-72000000D03*
D14*
X209600720Y-72000000D03*
D15*
X218399280Y-72000000D03*
D16*
X200800000Y-126300020D03*
X200800000Y-120899980D03*
D17*
X191650000Y-128401140D03*
X193550000Y-128401140D03*
X192600000Y-125398860D03*
D18*
X151699240Y-94650000D03*
X151699240Y-96550000D03*
X153698220Y-95600000D03*
D19*
X122600000Y-113450000D03*
X122600000Y-118350000D03*
X122600000Y-127950000D03*
X122600000Y-123050000D03*
D20*
X156849020Y-121000000D03*
X154750980Y-121000000D03*
X156849020Y-113800000D03*
X154750980Y-113800000D03*
X156849020Y-117400000D03*
X154750980Y-117400000D03*
D19*
X122600000Y-63150000D03*
X122600000Y-68050000D03*
X133000000Y-64250000D03*
X133000000Y-69150000D03*
X130200000Y-82450000D03*
X130200000Y-77550000D03*
X122600000Y-82450000D03*
X122600000Y-77550000D03*
X122800000Y-88750000D03*
X122800000Y-93650000D03*
X122800000Y-103650000D03*
X122800000Y-98750000D03*
D18*
X148799240Y-104050000D03*
X148799240Y-105950000D03*
X150798220Y-105000000D03*
D21*
X173400000Y-129850000D03*
X173400000Y-133750000D03*
D22*
X144900000Y-60350000D03*
X144900000Y-64250000D03*
X143630000Y-60350000D03*
X143630000Y-64250000D03*
X142360000Y-60350000D03*
X142360000Y-64250000D03*
X141090000Y-60350000D03*
X141090000Y-64250000D03*
X139820000Y-60350000D03*
X139820000Y-64250000D03*
D23*
X187000000Y-102286000D03*
D24*
X180650000Y-100000000D03*
D23*
X187000000Y-97714000D03*
X217000000Y-102286000D03*
D24*
X210650000Y-100000000D03*
D23*
X217000000Y-97714000D03*
X187000000Y-65286000D03*
D24*
X180650000Y-63000000D03*
D23*
X187000000Y-60714000D03*
X217000000Y-65286000D03*
D24*
X210650000Y-63000000D03*
D23*
X217000000Y-60714000D03*
D25*
X149098860Y-112850000D03*
X149098860Y-114750000D03*
X152101140Y-113800000D03*
X149098860Y-116450000D03*
X149098860Y-118350000D03*
X152101140Y-117400000D03*
D26*
X187050000Y-105400000D03*
X189750000Y-105400000D03*
D27*
X217400000Y-105250000D03*
X217400000Y-107950000D03*
X189400000Y-126950000D03*
X189400000Y-124250000D03*
X186600000Y-124150000D03*
X186600000Y-121450000D03*
D26*
X182750000Y-124000000D03*
X180050000Y-124000000D03*
D28*
X163800000Y-96750000D03*
X163800000Y-88850000D03*
D26*
X172450000Y-121400000D03*
X175150000Y-121400000D03*
X193350000Y-65400000D03*
X190650000Y-65400000D03*
X223950000Y-60200000D03*
X221250000Y-60200000D03*
X153850000Y-84200000D03*
X156550000Y-84200000D03*
X156550000Y-81600000D03*
X153850000Y-81600000D03*
D27*
X169600000Y-126750000D03*
X169600000Y-124050000D03*
D26*
X178050000Y-121400000D03*
X180750000Y-121400000D03*
X153850000Y-86800000D03*
X156550000Y-86800000D03*
X156550000Y-79000000D03*
X153850000Y-79000000D03*
D27*
X153800000Y-92550000D03*
X153800000Y-89850000D03*
D26*
X141150000Y-57200000D03*
X138450000Y-57200000D03*
D27*
X148300000Y-60950000D03*
X148300000Y-63650000D03*
X150900000Y-63650000D03*
X150900000Y-60950000D03*
X153600000Y-61050000D03*
X153600000Y-63750000D03*
D26*
X132750000Y-128200000D03*
X130050000Y-128200000D03*
D27*
X127400000Y-128850000D03*
X127400000Y-131550000D03*
D26*
X130050000Y-132200000D03*
X132750000Y-132200000D03*
X162350000Y-121000000D03*
X159650000Y-121000000D03*
X162350000Y-113800000D03*
X159650000Y-113800000D03*
X162350000Y-117400000D03*
X159650000Y-117400000D03*
D27*
X159000000Y-106350000D03*
X159000000Y-103650000D03*
X153400000Y-103650000D03*
X153400000Y-106350000D03*
D26*
X162850000Y-81600000D03*
X165550000Y-81600000D03*
X165550000Y-79000000D03*
X162850000Y-79000000D03*
D29*
X133100000Y-103725000D03*
X133750000Y-103725000D03*
X134400000Y-103725000D03*
X135050000Y-103725000D03*
X133100000Y-97875000D03*
X133750000Y-97875000D03*
X134400000Y-97875000D03*
X135050000Y-97875000D03*
X137650000Y-97875000D03*
X137650000Y-97875000D03*
D30*
X141000000Y-97875000D03*
D29*
X140250000Y-97875000D03*
X139600000Y-97875000D03*
X138950000Y-97875000D03*
X138300000Y-97875000D03*
X137650000Y-97875000D03*
X137000000Y-97875000D03*
X136350000Y-97875000D03*
X135700000Y-97875000D03*
D30*
X132350000Y-97875000D03*
X132350000Y-103725000D03*
D29*
X135700000Y-103725000D03*
X136350000Y-103725000D03*
X137000000Y-103725000D03*
X137650000Y-103725000D03*
X138300000Y-103725000D03*
X138950000Y-103725000D03*
X139600000Y-103725000D03*
X140250000Y-103725000D03*
D30*
X141000000Y-103725000D03*
D31*
X179465000Y-127355000D03*
D32*
X180940000Y-128330000D03*
X180940000Y-127680000D03*
X180940000Y-127030000D03*
X180940000Y-126380000D03*
X177990000Y-126380000D03*
X177990000Y-127030000D03*
X177990000Y-127680000D03*
X177990000Y-128330000D03*
D33*
X159100000Y-135950000D03*
X159100000Y-135000000D03*
X159100000Y-134050000D03*
X156900000Y-134050000D03*
X156900000Y-135950000D03*
D34*
X158400000Y-89800000D03*
X157750000Y-89800000D03*
X157100000Y-89800000D03*
X156450000Y-89800000D03*
X156450000Y-95800000D03*
X157100000Y-95800000D03*
X157750000Y-95800000D03*
X158400000Y-95800000D03*
D35*
X224095000Y-69100000D03*
X225365000Y-69100000D03*
X226635000Y-69100000D03*
X227905000Y-69100000D03*
X227905000Y-63700000D03*
X226635000Y-63700000D03*
X225365000Y-63700000D03*
X224095000Y-63700000D03*
D36*
X209100000Y-109895000D03*
X209100000Y-111165000D03*
X209100000Y-112435000D03*
X209100000Y-113705000D03*
X214500000Y-113705000D03*
X214500000Y-112435000D03*
X214500000Y-111165000D03*
X214500000Y-109895000D03*
X141700000Y-132105000D03*
X141700000Y-130835000D03*
X141700000Y-129565000D03*
X141700000Y-128295000D03*
X136300000Y-128295000D03*
X136300000Y-129565000D03*
X136300000Y-130835000D03*
X136300000Y-132105000D03*
D37*
X132050000Y-114800000D03*
X141550000Y-114800000D03*
M02*
