M48
;DRILL file {KiCad 4.0.0-stable} date Thursday, 26 May 2016 'pmt' 07:36:57 pm
;FORMAT={-:-/ absolute / metric / decimal}
FMAT,2
METRIC,TZ
T1C0.300
T2C0.800
T3C1.300
T4C1.400
T5C1.600
T6C3.700
%
G90
G05
M71
T1
X128.2Y-98.8
X128.2Y-102.9
X128.4Y-86.8
X130.9Y-73.1
X131.2Y-85.6
X131.2Y-105.2
X131.4Y-106.4
X131.8Y-95.
X131.8Y-96.2
X132.Y-93.6
X132.2Y-107.4
X133.Y-61.4
X133.4Y-107.
X133.6Y-84.
X134.Y-126.2
X134.2Y-95.7
X134.8Y-92.2
X134.8Y-93.2
X134.8Y-122.2
X135.2Y-90.6
X135.6Y-89.1
X135.6Y-121.4
X135.8Y-126.2
X136.1Y-73.1
X136.8Y-71.7
X137.2Y-120.8
X138.5Y-120.8
X139.Y-126.6
X140.6Y-108.6
X140.6Y-109.8
X142.Y-79.2
X142.Y-83.
X142.Y-134.6
X143.2Y-78.
X143.2Y-83.
X143.6Y-58.4
X144.1Y-111.
X144.4Y-78.
X144.4Y-83.
X144.5Y-73.1
X145.6Y-67.8
X145.6Y-83.
X146.3Y-65.3
X146.5Y-86.9
X146.8Y-69.7
X146.8Y-83.
X147.Y-114.8
X147.5Y-110.
X148.2Y-70.1
X148.2Y-83.
X148.8Y-99.3
X149.Y-87.8
X150.6Y-94.8
X151.Y-59.
X151.2Y-87.9
X151.4Y-107.8
X151.5Y-97.8
X152.Y-81.6
X152.4Y-119.6
X154.2Y-132.7
X157.6Y-97.6
X159.4Y-77.4
X160.4Y-135.
X162.3Y-132.8
X164.6Y-115.4
X166.Y-117.2
X177.2Y-130.8
X177.7Y-112.1
X178.3Y-113.3
X180.8Y-120.
X181.8Y-134.4
X182.Y-131.4
X182.4Y-120.
X183.4Y-134.4
X191.4Y-131.4
X195.6Y-65.4
X197.4Y-118.4
X201.6Y-110.2
X203.5Y-113.8
X204.2Y-119.2
X204.2Y-120.8
X204.4Y-114.8
X206.8Y-112.4
X210.6Y-77.4
X213.1Y-77.4
X215.8Y-77.4
X217.Y-58.4
X217.2Y-113.
X218.4Y-77.4
X218.4Y-112.
X218.6Y-58.4
X220.2Y-58.4
X221.4Y-97.8
X221.4Y-99.6
X221.8Y-58.4
X222.6Y-71.8
X223.Y-97.8
X223.Y-99.6
X226.6Y-71.6
X228.4Y-88.8
T2
X208.8Y-122.6
X213.8Y-122.6
T3
X198.5Y-131.5
X198.5Y-136.5
X213.5Y-131.5
X213.5Y-136.5
T4
X115.4Y-58.
X115.4Y-61.5
X115.4Y-65.
X115.4Y-68.5
X115.4Y-72.
X115.4Y-75.5
X115.4Y-79.
X115.4Y-82.5
X115.4Y-89.2
X115.4Y-92.7
X115.4Y-96.2
X115.4Y-99.7
X115.4Y-103.2
X115.4Y-109.2
X115.4Y-112.7
X115.4Y-116.2
X115.4Y-119.7
X115.4Y-123.2
X115.4Y-126.7
T5
X225.Y-79.52
X225.Y-84.6
X225.Y-109.62
X225.Y-114.7
X225.Y-122.72
X225.Y-127.8
T6
X114.3Y-135.4
X128.1Y-59.1
X225.5Y-93.1
X225.5Y-135.8
T0
M30
