G04 #@! TF.FileFunction,Legend,Top*
%FSLAX46Y46*%
G04 Gerber Fmt 4.6, Leading zero omitted, Abs format (unit mm)*
G04 Created by KiCad (PCBNEW 4.0.0-stable) date Thursday, 26 May 2016 'pmt' 07:34:14 pm*
%MOMM*%
G01*
G04 APERTURE LIST*
%ADD10C,0.100000*%
%ADD11C,0.200000*%
%ADD12C,0.300000*%
%ADD13C,0.400000*%
%ADD14C,0.500000*%
%ADD15C,0.150000*%
G04 APERTURE END LIST*
D10*
D11*
X167800000Y-61400000D02*
G75*
G03X168800000Y-62400000I1000000J0D01*
G01*
X170800000Y-62400000D02*
G75*
G03X171800000Y-61400000I0J1000000D01*
G01*
X165800000Y-70400000D02*
X164800000Y-71400000D01*
X165800000Y-68400000D02*
X165800000Y-70400000D01*
X166800000Y-67400000D02*
X165800000Y-68400000D01*
X165800000Y-67400000D02*
X164800000Y-68400000D01*
X165800000Y-65400000D02*
X165800000Y-67400000D01*
X166800000Y-64400000D02*
X165800000Y-65400000D01*
X173800000Y-70400000D02*
X174800000Y-71400000D01*
X173800000Y-68400000D02*
X173800000Y-70400000D01*
X172800000Y-67400000D02*
X173800000Y-68400000D01*
X173800000Y-67400000D02*
X174800000Y-68400000D01*
X173800000Y-65400000D02*
X173800000Y-67400000D01*
X172800000Y-64400000D02*
X173800000Y-65400000D01*
X165800000Y-63400000D02*
X165800000Y-62400000D01*
X166800000Y-64400000D02*
X165800000Y-63400000D01*
X173800000Y-63400000D02*
X173800000Y-62400000D01*
X172800000Y-64400000D02*
X173800000Y-63400000D01*
X171800000Y-62400000D02*
X167800000Y-62400000D01*
X172800000Y-63400000D02*
X171800000Y-62400000D01*
X172800000Y-64400000D02*
X172800000Y-63400000D01*
X166800000Y-63400000D02*
X167800000Y-62400000D01*
X166800000Y-64400000D02*
X166800000Y-63400000D01*
X166800000Y-70400000D02*
X166800000Y-64400000D01*
X167800000Y-71400000D02*
X166800000Y-70400000D01*
X172800000Y-70400000D02*
X172800000Y-64400000D01*
X171800000Y-71400000D02*
X172800000Y-70400000D01*
X167800000Y-71400000D02*
X171800000Y-71400000D01*
X166800000Y-64400000D02*
X172800000Y-64400000D01*
X169800000Y-71400000D02*
X169800000Y-64400000D01*
D12*
X119750001Y-136621429D02*
X119821430Y-136550000D01*
X119964287Y-136478571D01*
X120321430Y-136478571D01*
X120464287Y-136550000D01*
X120535716Y-136621429D01*
X120607144Y-136764286D01*
X120607144Y-136907143D01*
X120535716Y-137121429D01*
X119678573Y-137978571D01*
X120607144Y-137978571D01*
X121892858Y-136978571D02*
X121892858Y-137978571D01*
X121535715Y-136407143D02*
X121178572Y-137478571D01*
X122107144Y-137478571D01*
X123821429Y-137978571D02*
X123821429Y-136478571D01*
X124321429Y-137550000D01*
X124821429Y-136478571D01*
X124821429Y-137978571D01*
X126178572Y-137978571D02*
X126178572Y-137192857D01*
X126107143Y-137050000D01*
X125964286Y-136978571D01*
X125678572Y-136978571D01*
X125535715Y-137050000D01*
X126178572Y-137907143D02*
X126035715Y-137978571D01*
X125678572Y-137978571D01*
X125535715Y-137907143D01*
X125464286Y-137764286D01*
X125464286Y-137621429D01*
X125535715Y-137478571D01*
X125678572Y-137407143D01*
X126035715Y-137407143D01*
X126178572Y-137335714D01*
X126750001Y-136978571D02*
X127107144Y-137978571D01*
X127464286Y-136978571D02*
X127107144Y-137978571D01*
X126964286Y-138335714D01*
X126892858Y-138407143D01*
X126750001Y-138478571D01*
X129107143Y-136621429D02*
X129178572Y-136550000D01*
X129321429Y-136478571D01*
X129678572Y-136478571D01*
X129821429Y-136550000D01*
X129892858Y-136621429D01*
X129964286Y-136764286D01*
X129964286Y-136907143D01*
X129892858Y-137121429D01*
X129035715Y-137978571D01*
X129964286Y-137978571D01*
X130892857Y-136478571D02*
X131035714Y-136478571D01*
X131178571Y-136550000D01*
X131250000Y-136621429D01*
X131321429Y-136764286D01*
X131392857Y-137050000D01*
X131392857Y-137407143D01*
X131321429Y-137692857D01*
X131250000Y-137835714D01*
X131178571Y-137907143D01*
X131035714Y-137978571D01*
X130892857Y-137978571D01*
X130750000Y-137907143D01*
X130678571Y-137835714D01*
X130607143Y-137692857D01*
X130535714Y-137407143D01*
X130535714Y-137050000D01*
X130607143Y-136764286D01*
X130678571Y-136621429D01*
X130750000Y-136550000D01*
X130892857Y-136478571D01*
X132821428Y-137978571D02*
X131964285Y-137978571D01*
X132392857Y-137978571D02*
X132392857Y-136478571D01*
X132250000Y-136692857D01*
X132107142Y-136835714D01*
X131964285Y-136907143D01*
X134107142Y-136478571D02*
X133821428Y-136478571D01*
X133678571Y-136550000D01*
X133607142Y-136621429D01*
X133464285Y-136835714D01*
X133392856Y-137121429D01*
X133392856Y-137692857D01*
X133464285Y-137835714D01*
X133535713Y-137907143D01*
X133678571Y-137978571D01*
X133964285Y-137978571D01*
X134107142Y-137907143D01*
X134178571Y-137835714D01*
X134249999Y-137692857D01*
X134249999Y-137335714D01*
X134178571Y-137192857D01*
X134107142Y-137121429D01*
X133964285Y-137050000D01*
X133678571Y-137050000D01*
X133535713Y-137121429D01*
X133464285Y-137192857D01*
X133392856Y-137335714D01*
D13*
X185333332Y-81009524D02*
X185619047Y-81104762D01*
X186095237Y-81104762D01*
X186285713Y-81009524D01*
X186380951Y-80914286D01*
X186476190Y-80723810D01*
X186476190Y-80533333D01*
X186380951Y-80342857D01*
X186285713Y-80247619D01*
X186095237Y-80152381D01*
X185714285Y-80057143D01*
X185523809Y-79961905D01*
X185428570Y-79866667D01*
X185333332Y-79676190D01*
X185333332Y-79485714D01*
X185428570Y-79295238D01*
X185523809Y-79200000D01*
X185714285Y-79104762D01*
X186190475Y-79104762D01*
X186476190Y-79200000D01*
X188190475Y-81009524D02*
X187999999Y-81104762D01*
X187619047Y-81104762D01*
X187428571Y-81009524D01*
X187333332Y-80914286D01*
X187238094Y-80723810D01*
X187238094Y-80152381D01*
X187333332Y-79961905D01*
X187428571Y-79866667D01*
X187619047Y-79771429D01*
X187999999Y-79771429D01*
X188190475Y-79866667D01*
X189904761Y-81104762D02*
X189904761Y-80057143D01*
X189809523Y-79866667D01*
X189619047Y-79771429D01*
X189238095Y-79771429D01*
X189047618Y-79866667D01*
X189904761Y-81009524D02*
X189714285Y-81104762D01*
X189238095Y-81104762D01*
X189047618Y-81009524D01*
X188952380Y-80819048D01*
X188952380Y-80628571D01*
X189047618Y-80438095D01*
X189238095Y-80342857D01*
X189714285Y-80342857D01*
X189904761Y-80247619D01*
X190857142Y-81104762D02*
X190857142Y-79771429D01*
X190857142Y-80152381D02*
X190952381Y-79961905D01*
X191047619Y-79866667D01*
X191238095Y-79771429D01*
X191428571Y-79771429D01*
X192952380Y-81104762D02*
X192952380Y-80057143D01*
X192857142Y-79866667D01*
X192666666Y-79771429D01*
X192285714Y-79771429D01*
X192095237Y-79866667D01*
X192952380Y-81009524D02*
X192761904Y-81104762D01*
X192285714Y-81104762D01*
X192095237Y-81009524D01*
X191999999Y-80819048D01*
X191999999Y-80628571D01*
X192095237Y-80438095D01*
X192285714Y-80342857D01*
X192761904Y-80342857D01*
X192952380Y-80247619D01*
X193904761Y-81104762D02*
X193904761Y-79104762D01*
X193904761Y-79866667D02*
X194095238Y-79771429D01*
X194476190Y-79771429D01*
X194666666Y-79866667D01*
X194761904Y-79961905D01*
X194857142Y-80152381D01*
X194857142Y-80723810D01*
X194761904Y-80914286D01*
X194666666Y-81009524D01*
X194476190Y-81104762D01*
X194095238Y-81104762D01*
X193904761Y-81009524D01*
X197047619Y-79771429D02*
X197523810Y-81104762D01*
X198000000Y-79771429D01*
X199809525Y-81104762D02*
X198666667Y-81104762D01*
X199238096Y-81104762D02*
X199238096Y-79104762D01*
X199047620Y-79390476D01*
X198857144Y-79580952D01*
X198666667Y-79676190D01*
X200666667Y-80914286D02*
X200761906Y-81009524D01*
X200666667Y-81104762D01*
X200571429Y-81009524D01*
X200666667Y-80914286D01*
X200666667Y-81104762D01*
X202000001Y-79104762D02*
X202190477Y-79104762D01*
X202380953Y-79200000D01*
X202476191Y-79295238D01*
X202571429Y-79485714D01*
X202666668Y-79866667D01*
X202666668Y-80342857D01*
X202571429Y-80723810D01*
X202476191Y-80914286D01*
X202380953Y-81009524D01*
X202190477Y-81104762D01*
X202000001Y-81104762D01*
X201809525Y-81009524D01*
X201714287Y-80914286D01*
X201619048Y-80723810D01*
X201523810Y-80342857D01*
X201523810Y-79866667D01*
X201619048Y-79485714D01*
X201714287Y-79295238D01*
X201809525Y-79200000D01*
X202000001Y-79104762D01*
X172952379Y-82971429D02*
X172952379Y-84590476D01*
X172857141Y-84780952D01*
X172761903Y-84876190D01*
X172571427Y-84971429D01*
X172285713Y-84971429D01*
X172095236Y-84876190D01*
X172952379Y-84209524D02*
X172761903Y-84304762D01*
X172380951Y-84304762D01*
X172190475Y-84209524D01*
X172095236Y-84114286D01*
X171999998Y-83923810D01*
X171999998Y-83352381D01*
X172095236Y-83161905D01*
X172190475Y-83066667D01*
X172380951Y-82971429D01*
X172761903Y-82971429D01*
X172952379Y-83066667D01*
X173904760Y-84304762D02*
X173904760Y-82971429D01*
X173904760Y-82304762D02*
X173809522Y-82400000D01*
X173904760Y-82495238D01*
X173999999Y-82400000D01*
X173904760Y-82304762D01*
X173904760Y-82495238D01*
X174571427Y-82971429D02*
X175333332Y-82971429D01*
X174857141Y-82304762D02*
X174857141Y-84019048D01*
X174952380Y-84209524D01*
X175142856Y-84304762D01*
X175333332Y-84304762D01*
X175999998Y-84304762D02*
X175999998Y-82304762D01*
X176857141Y-84304762D02*
X176857141Y-83257143D01*
X176761903Y-83066667D01*
X176571427Y-82971429D01*
X176285713Y-82971429D01*
X176095237Y-83066667D01*
X175999998Y-83161905D01*
X178666665Y-82971429D02*
X178666665Y-84304762D01*
X177809522Y-82971429D02*
X177809522Y-84019048D01*
X177904761Y-84209524D01*
X178095237Y-84304762D01*
X178380951Y-84304762D01*
X178571427Y-84209524D01*
X178666665Y-84114286D01*
X179619046Y-84304762D02*
X179619046Y-82304762D01*
X179619046Y-83066667D02*
X179809523Y-82971429D01*
X180190475Y-82971429D01*
X180380951Y-83066667D01*
X180476189Y-83161905D01*
X180571427Y-83352381D01*
X180571427Y-83923810D01*
X180476189Y-84114286D01*
X180380951Y-84209524D01*
X180190475Y-84304762D01*
X179809523Y-84304762D01*
X179619046Y-84209524D01*
X181428570Y-84114286D02*
X181523809Y-84209524D01*
X181428570Y-84304762D01*
X181333332Y-84209524D01*
X181428570Y-84114286D01*
X181428570Y-84304762D01*
X183238094Y-84209524D02*
X183047618Y-84304762D01*
X182666666Y-84304762D01*
X182476190Y-84209524D01*
X182380951Y-84114286D01*
X182285713Y-83923810D01*
X182285713Y-83352381D01*
X182380951Y-83161905D01*
X182476190Y-83066667D01*
X182666666Y-82971429D01*
X183047618Y-82971429D01*
X183238094Y-83066667D01*
X184380952Y-84304762D02*
X184190476Y-84209524D01*
X184095237Y-84114286D01*
X183999999Y-83923810D01*
X183999999Y-83352381D01*
X184095237Y-83161905D01*
X184190476Y-83066667D01*
X184380952Y-82971429D01*
X184666666Y-82971429D01*
X184857142Y-83066667D01*
X184952380Y-83161905D01*
X185047618Y-83352381D01*
X185047618Y-83923810D01*
X184952380Y-84114286D01*
X184857142Y-84209524D01*
X184666666Y-84304762D01*
X184380952Y-84304762D01*
X185904761Y-84304762D02*
X185904761Y-82971429D01*
X185904761Y-83161905D02*
X186000000Y-83066667D01*
X186190476Y-82971429D01*
X186476190Y-82971429D01*
X186666666Y-83066667D01*
X186761904Y-83257143D01*
X186761904Y-84304762D01*
X186761904Y-83257143D02*
X186857142Y-83066667D01*
X187047619Y-82971429D01*
X187333333Y-82971429D01*
X187523809Y-83066667D01*
X187619047Y-83257143D01*
X187619047Y-84304762D01*
X190000000Y-82209524D02*
X188285714Y-84780952D01*
X190666666Y-84304762D02*
X190666666Y-82971429D01*
X190666666Y-83161905D02*
X190761905Y-83066667D01*
X190952381Y-82971429D01*
X191238095Y-82971429D01*
X191428571Y-83066667D01*
X191523809Y-83257143D01*
X191523809Y-84304762D01*
X191523809Y-83257143D02*
X191619047Y-83066667D01*
X191809524Y-82971429D01*
X192095238Y-82971429D01*
X192285714Y-83066667D01*
X192380952Y-83257143D01*
X192380952Y-84304762D01*
X194190476Y-84304762D02*
X194190476Y-83257143D01*
X194095238Y-83066667D01*
X193904762Y-82971429D01*
X193523810Y-82971429D01*
X193333333Y-83066667D01*
X194190476Y-84209524D02*
X194000000Y-84304762D01*
X193523810Y-84304762D01*
X193333333Y-84209524D01*
X193238095Y-84019048D01*
X193238095Y-83828571D01*
X193333333Y-83638095D01*
X193523810Y-83542857D01*
X194000000Y-83542857D01*
X194190476Y-83447619D01*
X195142857Y-84304762D02*
X195142857Y-82304762D01*
X195333334Y-83542857D02*
X195904762Y-84304762D01*
X195904762Y-82971429D02*
X195142857Y-83733333D01*
X197523810Y-84209524D02*
X197333334Y-84304762D01*
X196952382Y-84304762D01*
X196761905Y-84209524D01*
X196666667Y-84019048D01*
X196666667Y-83257143D01*
X196761905Y-83066667D01*
X196952382Y-82971429D01*
X197333334Y-82971429D01*
X197523810Y-83066667D01*
X197619048Y-83257143D01*
X197619048Y-83447619D01*
X196666667Y-83638095D01*
X198476191Y-84304762D02*
X198476191Y-82971429D01*
X198476191Y-83161905D02*
X198571430Y-83066667D01*
X198761906Y-82971429D01*
X199047620Y-82971429D01*
X199238096Y-83066667D01*
X199333334Y-83257143D01*
X199333334Y-84304762D01*
X199333334Y-83257143D02*
X199428572Y-83066667D01*
X199619049Y-82971429D01*
X199904763Y-82971429D01*
X200095239Y-83066667D01*
X200190477Y-83257143D01*
X200190477Y-84304762D01*
X201428573Y-84304762D02*
X201238097Y-84209524D01*
X201142858Y-84114286D01*
X201047620Y-83923810D01*
X201047620Y-83352381D01*
X201142858Y-83161905D01*
X201238097Y-83066667D01*
X201428573Y-82971429D01*
X201714287Y-82971429D01*
X201904763Y-83066667D01*
X202000001Y-83161905D01*
X202095239Y-83352381D01*
X202095239Y-83923810D01*
X202000001Y-84114286D01*
X201904763Y-84209524D01*
X201714287Y-84304762D01*
X201428573Y-84304762D01*
X202952382Y-84304762D02*
X202952382Y-82304762D01*
X202952382Y-83066667D02*
X203142859Y-82971429D01*
X203523811Y-82971429D01*
X203714287Y-83066667D01*
X203809525Y-83161905D01*
X203904763Y-83352381D01*
X203904763Y-83923810D01*
X203809525Y-84114286D01*
X203714287Y-84209524D01*
X203523811Y-84304762D01*
X203142859Y-84304762D01*
X202952382Y-84209524D01*
X206190478Y-82209524D02*
X204476192Y-84780952D01*
X206761906Y-84209524D02*
X206952383Y-84304762D01*
X207333335Y-84304762D01*
X207523811Y-84209524D01*
X207619049Y-84019048D01*
X207619049Y-83923810D01*
X207523811Y-83733333D01*
X207333335Y-83638095D01*
X207047621Y-83638095D01*
X206857144Y-83542857D01*
X206761906Y-83352381D01*
X206761906Y-83257143D01*
X206857144Y-83066667D01*
X207047621Y-82971429D01*
X207333335Y-82971429D01*
X207523811Y-83066667D01*
X209333335Y-84209524D02*
X209142859Y-84304762D01*
X208761907Y-84304762D01*
X208571431Y-84209524D01*
X208476192Y-84114286D01*
X208380954Y-83923810D01*
X208380954Y-83352381D01*
X208476192Y-83161905D01*
X208571431Y-83066667D01*
X208761907Y-82971429D01*
X209142859Y-82971429D01*
X209333335Y-83066667D01*
X211047621Y-84304762D02*
X211047621Y-83257143D01*
X210952383Y-83066667D01*
X210761907Y-82971429D01*
X210380955Y-82971429D01*
X210190478Y-83066667D01*
X211047621Y-84209524D02*
X210857145Y-84304762D01*
X210380955Y-84304762D01*
X210190478Y-84209524D01*
X210095240Y-84019048D01*
X210095240Y-83828571D01*
X210190478Y-83638095D01*
X210380955Y-83542857D01*
X210857145Y-83542857D01*
X211047621Y-83447619D01*
X212000002Y-84304762D02*
X212000002Y-82971429D01*
X212000002Y-83352381D02*
X212095241Y-83161905D01*
X212190479Y-83066667D01*
X212380955Y-82971429D01*
X212571431Y-82971429D01*
X214095240Y-84304762D02*
X214095240Y-83257143D01*
X214000002Y-83066667D01*
X213809526Y-82971429D01*
X213428574Y-82971429D01*
X213238097Y-83066667D01*
X214095240Y-84209524D02*
X213904764Y-84304762D01*
X213428574Y-84304762D01*
X213238097Y-84209524D01*
X213142859Y-84019048D01*
X213142859Y-83828571D01*
X213238097Y-83638095D01*
X213428574Y-83542857D01*
X213904764Y-83542857D01*
X214095240Y-83447619D01*
X215047621Y-84304762D02*
X215047621Y-82304762D01*
X215047621Y-83066667D02*
X215238098Y-82971429D01*
X215619050Y-82971429D01*
X215809526Y-83066667D01*
X215904764Y-83161905D01*
X216000002Y-83352381D01*
X216000002Y-83923810D01*
X215904764Y-84114286D01*
X215809526Y-84209524D01*
X215619050Y-84304762D01*
X215238098Y-84304762D01*
X215047621Y-84209524D01*
D12*
X113442858Y-130942857D02*
X113042858Y-130371429D01*
X112757143Y-130942857D02*
X112757143Y-129742857D01*
X113214286Y-129742857D01*
X113328572Y-129800000D01*
X113385715Y-129857143D01*
X113442858Y-129971429D01*
X113442858Y-130142857D01*
X113385715Y-130257143D01*
X113328572Y-130314286D01*
X113214286Y-130371429D01*
X112757143Y-130371429D01*
X113900000Y-130885714D02*
X114071429Y-130942857D01*
X114357143Y-130942857D01*
X114471429Y-130885714D01*
X114528572Y-130828571D01*
X114585715Y-130714286D01*
X114585715Y-130600000D01*
X114528572Y-130485714D01*
X114471429Y-130428571D01*
X114357143Y-130371429D01*
X114128572Y-130314286D01*
X114014286Y-130257143D01*
X113957143Y-130200000D01*
X113900000Y-130085714D01*
X113900000Y-129971429D01*
X113957143Y-129857143D01*
X114014286Y-129800000D01*
X114128572Y-129742857D01*
X114414286Y-129742857D01*
X114585715Y-129800000D01*
X115100000Y-130485714D02*
X116014286Y-130485714D01*
X117100000Y-130142857D02*
X117100000Y-130942857D01*
X116814286Y-129685714D02*
X116528571Y-130542857D01*
X117271429Y-130542857D01*
X117900000Y-130257143D02*
X117785714Y-130200000D01*
X117728571Y-130142857D01*
X117671428Y-130028571D01*
X117671428Y-129971429D01*
X117728571Y-129857143D01*
X117785714Y-129800000D01*
X117900000Y-129742857D01*
X118128571Y-129742857D01*
X118242857Y-129800000D01*
X118300000Y-129857143D01*
X118357143Y-129971429D01*
X118357143Y-130028571D01*
X118300000Y-130142857D01*
X118242857Y-130200000D01*
X118128571Y-130257143D01*
X117900000Y-130257143D01*
X117785714Y-130314286D01*
X117728571Y-130371429D01*
X117671428Y-130485714D01*
X117671428Y-130714286D01*
X117728571Y-130828571D01*
X117785714Y-130885714D01*
X117900000Y-130942857D01*
X118128571Y-130942857D01*
X118242857Y-130885714D01*
X118300000Y-130828571D01*
X118357143Y-130714286D01*
X118357143Y-130485714D01*
X118300000Y-130371429D01*
X118242857Y-130314286D01*
X118128571Y-130257143D01*
X119442857Y-129742857D02*
X118871428Y-129742857D01*
X118814285Y-130314286D01*
X118871428Y-130257143D01*
X118985714Y-130200000D01*
X119271428Y-130200000D01*
X119385714Y-130257143D01*
X119442857Y-130314286D01*
X119500000Y-130428571D01*
X119500000Y-130714286D01*
X119442857Y-130828571D01*
X119385714Y-130885714D01*
X119271428Y-130942857D01*
X118985714Y-130942857D01*
X118871428Y-130885714D01*
X118814285Y-130828571D01*
X225352857Y-105371428D02*
X224152857Y-105371428D01*
X224152857Y-104914285D01*
X224210000Y-104799999D01*
X224267143Y-104742856D01*
X224381429Y-104685713D01*
X224552857Y-104685713D01*
X224667143Y-104742856D01*
X224724286Y-104799999D01*
X224781429Y-104914285D01*
X224781429Y-105371428D01*
X225010000Y-104228571D02*
X225010000Y-103657142D01*
X225352857Y-104342856D02*
X224152857Y-103942856D01*
X225352857Y-103542856D01*
X225295714Y-103200000D02*
X225352857Y-103028571D01*
X225352857Y-102742857D01*
X225295714Y-102628571D01*
X225238571Y-102571428D01*
X225124286Y-102514285D01*
X225010000Y-102514285D01*
X224895714Y-102571428D01*
X224838571Y-102628571D01*
X224781429Y-102742857D01*
X224724286Y-102971428D01*
X224667143Y-103085714D01*
X224610000Y-103142857D01*
X224495714Y-103200000D01*
X224381429Y-103200000D01*
X224267143Y-103142857D01*
X224210000Y-103085714D01*
X224152857Y-102971428D01*
X224152857Y-102685714D01*
X224210000Y-102514285D01*
X225295714Y-102057143D02*
X225352857Y-101885714D01*
X225352857Y-101600000D01*
X225295714Y-101485714D01*
X225238571Y-101428571D01*
X225124286Y-101371428D01*
X225010000Y-101371428D01*
X224895714Y-101428571D01*
X224838571Y-101485714D01*
X224781429Y-101600000D01*
X224724286Y-101828571D01*
X224667143Y-101942857D01*
X224610000Y-102000000D01*
X224495714Y-102057143D01*
X224381429Y-102057143D01*
X224267143Y-102000000D01*
X224210000Y-101942857D01*
X224152857Y-101828571D01*
X224152857Y-101542857D01*
X224210000Y-101371428D01*
X226132857Y-105600000D02*
X226132857Y-104914286D01*
X227332857Y-105257143D02*
X226132857Y-105257143D01*
X227332857Y-104514286D02*
X226132857Y-104514286D01*
X226704286Y-104514286D02*
X226704286Y-103828571D01*
X227332857Y-103828571D02*
X226132857Y-103828571D01*
X227332857Y-102571428D02*
X226761429Y-102971428D01*
X227332857Y-103257143D02*
X226132857Y-103257143D01*
X226132857Y-102800000D01*
X226190000Y-102685714D01*
X226247143Y-102628571D01*
X226361429Y-102571428D01*
X226532857Y-102571428D01*
X226647143Y-102628571D01*
X226704286Y-102685714D01*
X226761429Y-102800000D01*
X226761429Y-103257143D01*
X226132857Y-102057143D02*
X227104286Y-102057143D01*
X227218571Y-102000000D01*
X227275714Y-101942857D01*
X227332857Y-101828571D01*
X227332857Y-101600000D01*
X227275714Y-101485714D01*
X227218571Y-101428571D01*
X227104286Y-101371428D01*
X226132857Y-101371428D01*
X220114286Y-134242857D02*
X220171429Y-134071428D01*
X220228571Y-134014285D01*
X220342857Y-133957142D01*
X220514286Y-133957142D01*
X220628571Y-134014285D01*
X220685714Y-134071428D01*
X220742857Y-134185714D01*
X220742857Y-134642857D01*
X219542857Y-134642857D01*
X219542857Y-134242857D01*
X219600000Y-134128571D01*
X219657143Y-134071428D01*
X219771429Y-134014285D01*
X219885714Y-134014285D01*
X220000000Y-134071428D01*
X220057143Y-134128571D01*
X220114286Y-134242857D01*
X220114286Y-134642857D01*
X220400000Y-133500000D02*
X220400000Y-132928571D01*
X220742857Y-133614285D02*
X219542857Y-133214285D01*
X220742857Y-132814285D01*
X219542857Y-132585714D02*
X219542857Y-131900000D01*
X220742857Y-132242857D02*
X219542857Y-132242857D01*
X219542857Y-131671428D02*
X219542857Y-130985714D01*
X220742857Y-131328571D02*
X219542857Y-131328571D01*
X220200000Y-115100000D02*
X220200000Y-114033333D01*
X220733333Y-114566666D02*
X219666667Y-114566666D01*
X220200000Y-110166666D02*
X220200000Y-109099999D01*
D14*
X219214286Y-129442857D02*
X219214286Y-127157143D01*
X220357143Y-128300000D02*
X218071429Y-128300000D01*
X219214286Y-123442857D02*
X219214286Y-121157143D01*
D12*
X220633333Y-85666667D02*
X219233333Y-85666667D01*
X220233333Y-85200000D01*
X219233333Y-84733333D01*
X220633333Y-84733333D01*
X220100000Y-84066667D02*
X220100000Y-83000000D01*
X220633333Y-83533333D02*
X219566667Y-83533333D01*
X220633333Y-80200000D02*
X219233333Y-80200000D01*
X220233333Y-79733333D01*
X219233333Y-79266666D01*
X220633333Y-79266666D01*
X220100000Y-78600000D02*
X220100000Y-77533333D01*
X111200000Y-55466667D02*
X111200000Y-56533334D01*
X110666667Y-56000001D02*
X111733333Y-56000001D01*
X110666667Y-57933334D02*
X110666667Y-57133334D01*
X110666667Y-57533334D02*
X112066667Y-57533334D01*
X111866667Y-57400000D01*
X111733333Y-57266667D01*
X111666667Y-57133334D01*
X111933333Y-58466667D02*
X112000000Y-58533333D01*
X112066667Y-58666667D01*
X112066667Y-59000000D01*
X112000000Y-59133333D01*
X111933333Y-59200000D01*
X111800000Y-59266667D01*
X111666667Y-59266667D01*
X111466667Y-59200000D01*
X110666667Y-58400000D01*
X110666667Y-59266667D01*
X111200000Y-60933333D02*
X111200000Y-62000000D01*
X111600000Y-63666667D02*
X111600000Y-64666667D01*
X112200000Y-64066667D02*
X110400000Y-63666667D01*
X111000000Y-64533333D02*
X111000000Y-63533333D01*
X110400000Y-64133333D02*
X112200000Y-64533333D01*
X110666667Y-65866667D02*
X110666667Y-65066667D01*
X110666667Y-65466667D02*
X112066667Y-65466667D01*
X111866667Y-65333333D01*
X111733333Y-65200000D01*
X111666667Y-65066667D01*
X111600000Y-67466667D02*
X111600000Y-68466667D01*
X112200000Y-67866667D02*
X110400000Y-67466667D01*
X111000000Y-68333333D02*
X111000000Y-67333333D01*
X110400000Y-67933333D02*
X112200000Y-68333333D01*
X111933333Y-68866667D02*
X112000000Y-68933333D01*
X112066667Y-69066667D01*
X112066667Y-69400000D01*
X112000000Y-69533333D01*
X111933333Y-69600000D01*
X111800000Y-69666667D01*
X111666667Y-69666667D01*
X111466667Y-69600000D01*
X110666667Y-68800000D01*
X110666667Y-69666667D01*
X111600000Y-71266667D02*
X111600000Y-72266667D01*
X112200000Y-71666667D02*
X110400000Y-71266667D01*
X111000000Y-72133333D02*
X111000000Y-71133333D01*
X110400000Y-71733333D02*
X112200000Y-72133333D01*
X112066667Y-72600000D02*
X112066667Y-73466667D01*
X111533333Y-73000000D01*
X111533333Y-73200000D01*
X111466667Y-73333333D01*
X111400000Y-73400000D01*
X111266667Y-73466667D01*
X110933333Y-73466667D01*
X110800000Y-73400000D01*
X110733333Y-73333333D01*
X110666667Y-73200000D01*
X110666667Y-72800000D01*
X110733333Y-72666667D01*
X110800000Y-72600000D01*
X111600000Y-75066667D02*
X111600000Y-76066667D01*
X112200000Y-75466667D02*
X110400000Y-75066667D01*
X111000000Y-75933333D02*
X111000000Y-74933333D01*
X110400000Y-75533333D02*
X112200000Y-75933333D01*
X111600000Y-77133333D02*
X110666667Y-77133333D01*
X112133333Y-76800000D02*
X111133333Y-76466667D01*
X111133333Y-77333333D01*
X111200000Y-78933333D02*
X111200000Y-80000000D01*
X110666667Y-79466667D02*
X111733333Y-79466667D01*
X112066667Y-80533333D02*
X112066667Y-81400000D01*
X111533333Y-80933333D01*
X111533333Y-81133333D01*
X111466667Y-81266666D01*
X111400000Y-81333333D01*
X111266667Y-81400000D01*
X110933333Y-81400000D01*
X110800000Y-81333333D01*
X110733333Y-81266666D01*
X110666667Y-81133333D01*
X110666667Y-80733333D01*
X110733333Y-80600000D01*
X110800000Y-80533333D01*
X111200000Y-83066666D02*
X111200000Y-84133333D01*
X111200000Y-86266667D02*
X111200000Y-87333334D01*
X110666667Y-86800001D02*
X111733333Y-86800001D01*
X110666667Y-88733334D02*
X110666667Y-87933334D01*
X110666667Y-88333334D02*
X112066667Y-88333334D01*
X111866667Y-88200000D01*
X111733333Y-88066667D01*
X111666667Y-87933334D01*
X111933333Y-89266667D02*
X112000000Y-89333333D01*
X112066667Y-89466667D01*
X112066667Y-89800000D01*
X112000000Y-89933333D01*
X111933333Y-90000000D01*
X111800000Y-90066667D01*
X111666667Y-90066667D01*
X111466667Y-90000000D01*
X110666667Y-89200000D01*
X110666667Y-90066667D01*
X111200000Y-91733333D02*
X111200000Y-92800000D01*
X110666667Y-92266667D02*
X111733333Y-92266667D01*
X112066667Y-93333333D02*
X112066667Y-94200000D01*
X111533333Y-93733333D01*
X111533333Y-93933333D01*
X111466667Y-94066666D01*
X111400000Y-94133333D01*
X111266667Y-94200000D01*
X110933333Y-94200000D01*
X110800000Y-94133333D01*
X110733333Y-94066666D01*
X110666667Y-93933333D01*
X110666667Y-93533333D01*
X110733333Y-93400000D01*
X110800000Y-93333333D01*
X111600000Y-95800000D02*
X111600000Y-96800000D01*
X112200000Y-96200000D02*
X110400000Y-95800000D01*
X111000000Y-96666666D02*
X111000000Y-95666666D01*
X110400000Y-96266666D02*
X112200000Y-96666666D01*
X112066667Y-97933333D02*
X112066667Y-97266666D01*
X111400000Y-97200000D01*
X111466667Y-97266666D01*
X111533333Y-97400000D01*
X111533333Y-97733333D01*
X111466667Y-97866666D01*
X111400000Y-97933333D01*
X111266667Y-98000000D01*
X110933333Y-98000000D01*
X110800000Y-97933333D01*
X110733333Y-97866666D01*
X110666667Y-97733333D01*
X110666667Y-97400000D01*
X110733333Y-97266666D01*
X110800000Y-97200000D01*
X111600000Y-99600000D02*
X111600000Y-100600000D01*
X112200000Y-100000000D02*
X110400000Y-99600000D01*
X111000000Y-100466666D02*
X111000000Y-99466666D01*
X110400000Y-100066666D02*
X112200000Y-100466666D01*
X112066667Y-101666666D02*
X112066667Y-101400000D01*
X112000000Y-101266666D01*
X111933333Y-101200000D01*
X111733333Y-101066666D01*
X111466667Y-101000000D01*
X110933333Y-101000000D01*
X110800000Y-101066666D01*
X110733333Y-101133333D01*
X110666667Y-101266666D01*
X110666667Y-101533333D01*
X110733333Y-101666666D01*
X110800000Y-101733333D01*
X110933333Y-101800000D01*
X111266667Y-101800000D01*
X111400000Y-101733333D01*
X111466667Y-101666666D01*
X111533333Y-101533333D01*
X111533333Y-101266666D01*
X111466667Y-101133333D01*
X111400000Y-101066666D01*
X111266667Y-101000000D01*
X111200000Y-103466666D02*
X111200000Y-104533333D01*
X111066667Y-108999999D02*
X111066667Y-109666665D01*
X110666667Y-108866665D02*
X112066667Y-109333332D01*
X110666667Y-109799999D01*
X111400000Y-112866666D02*
X111333333Y-113066666D01*
X111266667Y-113133333D01*
X111133333Y-113199999D01*
X110933333Y-113199999D01*
X110800000Y-113133333D01*
X110733333Y-113066666D01*
X110666667Y-112933333D01*
X110666667Y-112399999D01*
X112066667Y-112399999D01*
X112066667Y-112866666D01*
X112000000Y-112999999D01*
X111933333Y-113066666D01*
X111800000Y-113133333D01*
X111666667Y-113133333D01*
X111533333Y-113066666D01*
X111466667Y-112999999D01*
X111400000Y-112866666D01*
X111400000Y-112399999D01*
X111200000Y-115933333D02*
X111200000Y-117000000D01*
X111066667Y-119733334D02*
X111066667Y-120400000D01*
X110666667Y-119600000D02*
X112066667Y-120066667D01*
X110666667Y-120533334D01*
X111400000Y-123600001D02*
X111333333Y-123800001D01*
X111266667Y-123866668D01*
X111133333Y-123933334D01*
X110933333Y-123933334D01*
X110800000Y-123866668D01*
X110733333Y-123800001D01*
X110666667Y-123666668D01*
X110666667Y-123133334D01*
X112066667Y-123133334D01*
X112066667Y-123600001D01*
X112000000Y-123733334D01*
X111933333Y-123800001D01*
X111800000Y-123866668D01*
X111666667Y-123866668D01*
X111533333Y-123800001D01*
X111466667Y-123733334D01*
X111400000Y-123600001D01*
X111400000Y-123133334D01*
X111200000Y-126666668D02*
X111200000Y-127733335D01*
D15*
X211375000Y-117601000D02*
X211375000Y-127599000D01*
X211515000Y-117605000D02*
X211515000Y-127595000D01*
X211655000Y-117613000D02*
X211655000Y-127587000D01*
X211795000Y-117625000D02*
X211795000Y-127575000D01*
X211935000Y-117640000D02*
X211935000Y-127560000D01*
X212075000Y-117660000D02*
X212075000Y-127540000D01*
X212215000Y-117684000D02*
X212215000Y-127516000D01*
X212355000Y-117713000D02*
X212355000Y-127487000D01*
X212495000Y-117745000D02*
X212495000Y-127455000D01*
X212635000Y-117782000D02*
X212635000Y-127418000D01*
X212775000Y-117823000D02*
X212775000Y-127377000D01*
X212915000Y-117868000D02*
X212915000Y-122134000D01*
X212915000Y-123066000D02*
X212915000Y-127332000D01*
X213055000Y-117918000D02*
X213055000Y-121933000D01*
X213055000Y-123267000D02*
X213055000Y-127282000D01*
X213195000Y-117973000D02*
X213195000Y-121804000D01*
X213195000Y-123396000D02*
X213195000Y-127227000D01*
X213335000Y-118033000D02*
X213335000Y-121715000D01*
X213335000Y-123485000D02*
X213335000Y-127167000D01*
X213475000Y-118098000D02*
X213475000Y-121654000D01*
X213475000Y-123546000D02*
X213475000Y-127102000D01*
X213615000Y-118168000D02*
X213615000Y-121617000D01*
X213615000Y-123583000D02*
X213615000Y-127032000D01*
X213755000Y-118244000D02*
X213755000Y-121601000D01*
X213755000Y-123599000D02*
X213755000Y-126956000D01*
X213895000Y-118326000D02*
X213895000Y-121605000D01*
X213895000Y-123595000D02*
X213895000Y-126874000D01*
X214035000Y-118414000D02*
X214035000Y-121628000D01*
X214035000Y-123572000D02*
X214035000Y-126786000D01*
X214175000Y-118509000D02*
X214175000Y-121673000D01*
X214175000Y-123527000D02*
X214175000Y-126691000D01*
X214315000Y-118611000D02*
X214315000Y-121743000D01*
X214315000Y-123457000D02*
X214315000Y-126589000D01*
X214455000Y-118721000D02*
X214455000Y-121844000D01*
X214455000Y-123356000D02*
X214455000Y-126479000D01*
X214595000Y-118839000D02*
X214595000Y-121993000D01*
X214595000Y-123207000D02*
X214595000Y-126361000D01*
X214735000Y-118967000D02*
X214735000Y-122245000D01*
X214735000Y-122955000D02*
X214735000Y-126233000D01*
X214875000Y-119104000D02*
X214875000Y-126096000D01*
X215015000Y-119254000D02*
X215015000Y-125946000D01*
X215155000Y-119416000D02*
X215155000Y-125784000D01*
X215295000Y-119593000D02*
X215295000Y-125607000D01*
X215435000Y-119789000D02*
X215435000Y-125411000D01*
X215575000Y-120007000D02*
X215575000Y-125193000D01*
X215715000Y-120253000D02*
X215715000Y-124947000D01*
X215855000Y-120538000D02*
X215855000Y-124662000D01*
X215995000Y-120880000D02*
X215995000Y-124320000D01*
X216135000Y-121326000D02*
X216135000Y-123874000D01*
X216275000Y-122101000D02*
X216275000Y-123099000D01*
X214800000Y-122600000D02*
G75*
G03X214800000Y-122600000I-1000000J0D01*
G01*
X216337500Y-122600000D02*
G75*
G03X216337500Y-122600000I-5037500J0D01*
G01*
X187625000Y-130200000D02*
X187625000Y-128200000D01*
X185575000Y-128200000D02*
X185575000Y-130200000D01*
X158300000Y-129150000D02*
X157300000Y-129150000D01*
X157300000Y-130850000D02*
X158300000Y-130850000D01*
X163150000Y-133500000D02*
X163150000Y-134500000D01*
X164850000Y-134500000D02*
X164850000Y-133500000D01*
X151750000Y-133500000D02*
X151750000Y-134500000D01*
X153450000Y-134500000D02*
X153450000Y-133500000D01*
X203950000Y-110600000D02*
X203950000Y-111600000D01*
X205650000Y-111600000D02*
X205650000Y-110600000D01*
X212500000Y-105750000D02*
X211500000Y-105750000D01*
X211500000Y-107450000D02*
X212500000Y-107450000D01*
X182750000Y-129700000D02*
X182750000Y-130700000D01*
X184450000Y-130700000D02*
X184450000Y-129700000D01*
X176050000Y-125900000D02*
X176050000Y-124900000D01*
X174350000Y-124900000D02*
X174350000Y-125900000D01*
X173250000Y-125900000D02*
X173250000Y-124900000D01*
X171550000Y-124900000D02*
X171550000Y-125900000D01*
X226100000Y-72950000D02*
X225100000Y-72950000D01*
X225100000Y-74650000D02*
X226100000Y-74650000D01*
X177750000Y-132300000D02*
X177750000Y-133300000D01*
X179450000Y-133300000D02*
X179450000Y-132300000D01*
X222250000Y-66100000D02*
X222250000Y-65100000D01*
X220550000Y-65100000D02*
X220550000Y-66100000D01*
X150350000Y-90700000D02*
X150350000Y-91700000D01*
X152050000Y-91700000D02*
X152050000Y-90700000D01*
X154700000Y-99850000D02*
X155700000Y-99850000D01*
X155700000Y-98150000D02*
X154700000Y-98150000D01*
X139500000Y-133750000D02*
X138500000Y-133750000D01*
X138500000Y-135450000D02*
X139500000Y-135450000D01*
X137500000Y-93050000D02*
X138500000Y-93050000D01*
X138500000Y-91350000D02*
X137500000Y-91350000D01*
X137500000Y-95250000D02*
X138500000Y-95250000D01*
X138500000Y-93550000D02*
X137500000Y-93550000D01*
X125550000Y-65600000D02*
X125550000Y-66600000D01*
X127250000Y-66600000D02*
X127250000Y-65600000D01*
X135300000Y-118350000D02*
X134300000Y-118350000D01*
X134300000Y-120050000D02*
X135300000Y-120050000D01*
X138100000Y-108950000D02*
X137100000Y-108950000D01*
X137100000Y-110650000D02*
X138100000Y-110650000D01*
X135950000Y-66200000D02*
X135950000Y-67200000D01*
X137650000Y-67200000D02*
X137650000Y-66200000D01*
X138100000Y-106550000D02*
X137100000Y-106550000D01*
X137100000Y-108250000D02*
X138100000Y-108250000D01*
X139300000Y-120050000D02*
X140300000Y-120050000D01*
X140300000Y-118350000D02*
X139300000Y-118350000D01*
X134750000Y-80400000D02*
X134750000Y-79400000D01*
X133050000Y-79400000D02*
X133050000Y-80400000D01*
X127250000Y-80300000D02*
X127250000Y-79300000D01*
X125550000Y-79300000D02*
X125550000Y-80300000D01*
X125750000Y-90900000D02*
X125750000Y-91900000D01*
X127450000Y-91900000D02*
X127450000Y-90900000D01*
X127450000Y-101500000D02*
X127450000Y-100500000D01*
X125750000Y-100500000D02*
X125750000Y-101500000D01*
X157050000Y-105500000D02*
X157050000Y-104500000D01*
X155350000Y-104500000D02*
X155350000Y-105500000D01*
X183304040Y-94199640D02*
X182402340Y-94199640D01*
X184601980Y-94199640D02*
X185600200Y-94199640D01*
X180850540Y-95401060D02*
X180850540Y-94199640D01*
X180850540Y-88598940D02*
X180850540Y-89800360D01*
X187599180Y-95401060D02*
X187599180Y-94199640D01*
X187599180Y-88598940D02*
X187599180Y-89800360D01*
X180400820Y-95401060D02*
X180400820Y-94148840D01*
X180400820Y-88598940D02*
X180400820Y-89851160D01*
X183304040Y-93399540D02*
X183304040Y-94999740D01*
X184452120Y-94948940D02*
X184452120Y-93399540D01*
X183301500Y-94199640D02*
X184452120Y-94948940D01*
X183304040Y-94199640D02*
X184454660Y-93399540D01*
X180400820Y-95401060D02*
X187599180Y-95401060D01*
X180400820Y-88598940D02*
X187599180Y-88598940D01*
X213304040Y-94199640D02*
X212402340Y-94199640D01*
X214601980Y-94199640D02*
X215600200Y-94199640D01*
X210850540Y-95401060D02*
X210850540Y-94199640D01*
X210850540Y-88598940D02*
X210850540Y-89800360D01*
X217599180Y-95401060D02*
X217599180Y-94199640D01*
X217599180Y-88598940D02*
X217599180Y-89800360D01*
X210400820Y-95401060D02*
X210400820Y-94148840D01*
X210400820Y-88598940D02*
X210400820Y-89851160D01*
X213304040Y-93399540D02*
X213304040Y-94999740D01*
X214452120Y-94948940D02*
X214452120Y-93399540D01*
X213301500Y-94199640D02*
X214452120Y-94948940D01*
X213304040Y-94199640D02*
X214454660Y-93399540D01*
X210400820Y-95401060D02*
X217599180Y-95401060D01*
X210400820Y-88598940D02*
X217599180Y-88598940D01*
X183304040Y-74199640D02*
X182402340Y-74199640D01*
X184601980Y-74199640D02*
X185600200Y-74199640D01*
X180850540Y-75401060D02*
X180850540Y-74199640D01*
X180850540Y-68598940D02*
X180850540Y-69800360D01*
X187599180Y-75401060D02*
X187599180Y-74199640D01*
X187599180Y-68598940D02*
X187599180Y-69800360D01*
X180400820Y-75401060D02*
X180400820Y-74148840D01*
X180400820Y-68598940D02*
X180400820Y-69851160D01*
X183304040Y-73399540D02*
X183304040Y-74999740D01*
X184452120Y-74948940D02*
X184452120Y-73399540D01*
X183301500Y-74199640D02*
X184452120Y-74948940D01*
X183304040Y-74199640D02*
X184454660Y-73399540D01*
X180400820Y-75401060D02*
X187599180Y-75401060D01*
X180400820Y-68598940D02*
X187599180Y-68598940D01*
X213304040Y-74199640D02*
X212402340Y-74199640D01*
X214601980Y-74199640D02*
X215600200Y-74199640D01*
X210850540Y-75401060D02*
X210850540Y-74199640D01*
X210850540Y-68598940D02*
X210850540Y-69800360D01*
X217599180Y-75401060D02*
X217599180Y-74199640D01*
X217599180Y-68598940D02*
X217599180Y-69800360D01*
X210400820Y-75401060D02*
X210400820Y-74148840D01*
X210400820Y-68598940D02*
X210400820Y-69851160D01*
X213304040Y-73399540D02*
X213304040Y-74999740D01*
X214452120Y-74948940D02*
X214452120Y-73399540D01*
X213301500Y-74199640D02*
X214452120Y-74948940D01*
X213304040Y-74199640D02*
X214454660Y-73399540D01*
X210400820Y-75401060D02*
X217599180Y-75401060D01*
X210400820Y-68598940D02*
X217599180Y-68598940D01*
X200800000Y-124049580D02*
X199799240Y-123201220D01*
X199799240Y-123201220D02*
X201800760Y-123201220D01*
X201800760Y-123201220D02*
X200800000Y-124049580D01*
X200800000Y-124049580D02*
X201800760Y-124049580D01*
X200800000Y-124049580D02*
X199799240Y-124049580D01*
X202600000Y-125906320D02*
X202400200Y-125906320D01*
X202600000Y-125449280D02*
X202401000Y-125449280D01*
X202600000Y-121298760D02*
X202451000Y-121298760D01*
X199000000Y-125901240D02*
X199149000Y-125901240D01*
X199000000Y-125449280D02*
X199149000Y-125449280D01*
X199000000Y-121298760D02*
X199149000Y-121298760D01*
X202748980Y-125449280D02*
X202550860Y-125449280D01*
X198801020Y-125449280D02*
X198999140Y-125449280D01*
X202796440Y-121303840D02*
X202598320Y-121303840D01*
X202796440Y-125906320D02*
X202796440Y-121303840D01*
X202796440Y-125906320D02*
X202598320Y-125906320D01*
X198801020Y-125901240D02*
X198999140Y-125901240D01*
X198801020Y-125901240D02*
X198801020Y-121298760D01*
X198801020Y-121298760D02*
X198999140Y-121298760D01*
X191100180Y-126950800D02*
X191100180Y-126249760D01*
X191100180Y-126249760D02*
X191349100Y-126249760D01*
X193899160Y-126249760D02*
X194099820Y-126249760D01*
X194099820Y-126249760D02*
X194099820Y-126950800D01*
X153350240Y-96899160D02*
X153350240Y-96850900D01*
X152649200Y-94100180D02*
X153350240Y-94100180D01*
X153350240Y-94100180D02*
X153350240Y-94349100D01*
X153350240Y-96899160D02*
X153350240Y-97099820D01*
X153350240Y-97099820D02*
X152649200Y-97099820D01*
X124300000Y-112400000D02*
X124300000Y-119900000D01*
X120900000Y-119900000D02*
X120900000Y-112400000D01*
X120900000Y-129000000D02*
X120900000Y-121500000D01*
X124300000Y-121500000D02*
X124300000Y-129000000D01*
X154200000Y-121750000D02*
X156900000Y-121750000D01*
X154200000Y-120250000D02*
X156900000Y-120250000D01*
X155700000Y-121150000D02*
X155700000Y-120900000D01*
X155700000Y-120900000D02*
X155550000Y-121050000D01*
X155450000Y-120650000D02*
X155450000Y-121350000D01*
X155800000Y-121000000D02*
X156150000Y-121000000D01*
X155450000Y-121000000D02*
X155800000Y-120650000D01*
X155800000Y-120650000D02*
X155800000Y-121350000D01*
X155800000Y-121350000D02*
X155450000Y-121000000D01*
X154200000Y-114550000D02*
X156900000Y-114550000D01*
X154200000Y-113050000D02*
X156900000Y-113050000D01*
X155700000Y-113950000D02*
X155700000Y-113700000D01*
X155700000Y-113700000D02*
X155550000Y-113850000D01*
X155450000Y-113450000D02*
X155450000Y-114150000D01*
X155800000Y-113800000D02*
X156150000Y-113800000D01*
X155450000Y-113800000D02*
X155800000Y-113450000D01*
X155800000Y-113450000D02*
X155800000Y-114150000D01*
X155800000Y-114150000D02*
X155450000Y-113800000D01*
X154200000Y-118150000D02*
X156900000Y-118150000D01*
X154200000Y-116650000D02*
X156900000Y-116650000D01*
X155700000Y-117550000D02*
X155700000Y-117300000D01*
X155700000Y-117300000D02*
X155550000Y-117450000D01*
X155450000Y-117050000D02*
X155450000Y-117750000D01*
X155800000Y-117400000D02*
X156150000Y-117400000D01*
X155450000Y-117400000D02*
X155800000Y-117050000D01*
X155800000Y-117050000D02*
X155800000Y-117750000D01*
X155800000Y-117750000D02*
X155450000Y-117400000D01*
X124300000Y-62100000D02*
X124300000Y-69600000D01*
X120900000Y-69600000D02*
X120900000Y-62100000D01*
X134700000Y-63200000D02*
X134700000Y-70700000D01*
X131300000Y-70700000D02*
X131300000Y-63200000D01*
X128500000Y-83500000D02*
X128500000Y-76000000D01*
X131900000Y-76000000D02*
X131900000Y-83500000D01*
X120900000Y-83500000D02*
X120900000Y-76000000D01*
X124300000Y-76000000D02*
X124300000Y-83500000D01*
X124500000Y-87700000D02*
X124500000Y-95200000D01*
X121100000Y-95200000D02*
X121100000Y-87700000D01*
X121100000Y-104700000D02*
X121100000Y-97200000D01*
X124500000Y-97200000D02*
X124500000Y-104700000D01*
X150450240Y-106299160D02*
X150450240Y-106250900D01*
X149749200Y-103500180D02*
X150450240Y-103500180D01*
X150450240Y-103500180D02*
X150450240Y-103749100D01*
X150450240Y-106299160D02*
X150450240Y-106499820D01*
X150450240Y-106499820D02*
X149749200Y-106499820D01*
X202748800Y-134000000D02*
X209251200Y-134000000D01*
X193132360Y-130571000D02*
X196942360Y-130571000D01*
X202784360Y-130571000D02*
X199736360Y-130571000D01*
X194021360Y-131460000D02*
X196688360Y-131460000D01*
X194023900Y-136540000D02*
X196690900Y-136540000D01*
X193132360Y-137429000D02*
X196815360Y-137429000D01*
X202784360Y-137429000D02*
X199863360Y-137429000D01*
X218867640Y-130571000D02*
X215184640Y-130571000D01*
X209342640Y-130571000D02*
X212136640Y-130571000D01*
X218105640Y-131460000D02*
X215311640Y-131460000D01*
X218867640Y-137429000D02*
X215057640Y-137429000D01*
X209342640Y-137429000D02*
X212136640Y-137429000D01*
X218105640Y-136540000D02*
X215311640Y-136540000D01*
X193132360Y-137429000D02*
X193132360Y-130571000D01*
X202784360Y-130571000D02*
X202784360Y-131460000D01*
X202784360Y-137429000D02*
X202784360Y-136540000D01*
X218867640Y-137429000D02*
X218867640Y-130571000D01*
X209342640Y-130571000D02*
X209342640Y-131460000D01*
X209342640Y-137429000D02*
X209342640Y-136413000D01*
X209342640Y-134000000D02*
X209342640Y-136540000D01*
X218103100Y-136540000D02*
X218103100Y-131460000D01*
X209342640Y-131460000D02*
X209342640Y-134000000D01*
X202784360Y-134000000D02*
X202784360Y-136540000D01*
X194023900Y-136540000D02*
X194023900Y-131460000D01*
X202784360Y-131460000D02*
X202784360Y-134000000D01*
X176600000Y-130600000D02*
X176600000Y-133000000D01*
X170200000Y-133000000D02*
X170200000Y-130600000D01*
X222490571Y-121047834D02*
G75*
G03X222400000Y-124300000I1609429J-1672166D01*
G01*
X222370590Y-126129928D02*
G75*
G03X222400000Y-129500000I1729410J-1670072D01*
G01*
X221200000Y-131340000D02*
X229700000Y-131340000D01*
X229700000Y-131340000D02*
X229700000Y-119180000D01*
X229700000Y-119180000D02*
X221200000Y-119180000D01*
X221200000Y-119180000D02*
X221200000Y-131340000D01*
X222490571Y-77847834D02*
G75*
G03X222400000Y-81100000I1609429J-1672166D01*
G01*
X222370590Y-82929928D02*
G75*
G03X222400000Y-86300000I1729410J-1670072D01*
G01*
X221200000Y-88140000D02*
X229700000Y-88140000D01*
X229700000Y-88140000D02*
X229700000Y-75980000D01*
X229700000Y-75980000D02*
X221200000Y-75980000D01*
X221200000Y-75980000D02*
X221200000Y-88140000D01*
X222490571Y-107947834D02*
G75*
G03X222400000Y-111200000I1609429J-1672166D01*
G01*
X222370590Y-113029928D02*
G75*
G03X222400000Y-116400000I1729410J-1670072D01*
G01*
X221200000Y-118240000D02*
X229700000Y-118240000D01*
X229700000Y-118240000D02*
X229700000Y-106080000D01*
X229700000Y-106080000D02*
X221200000Y-106080000D01*
X221200000Y-106080000D02*
X221200000Y-118240000D01*
X119800000Y-55550000D02*
X112600000Y-55550000D01*
X112600000Y-55550000D02*
X112600000Y-84950000D01*
X119800000Y-84950000D02*
X112600000Y-84950000D01*
X119800000Y-84950000D02*
X119800000Y-55550000D01*
X119800000Y-86750000D02*
X112600000Y-86750000D01*
X112600000Y-86750000D02*
X112600000Y-105650000D01*
X119800000Y-105650000D02*
X112600000Y-105650000D01*
X119800000Y-105650000D02*
X119800000Y-86750000D01*
X119800000Y-106750000D02*
X112600000Y-106750000D01*
X112600000Y-106750000D02*
X112600000Y-129150000D01*
X119800000Y-129150000D02*
X112600000Y-129150000D01*
X119800000Y-129150000D02*
X119800000Y-106750000D01*
X145113000Y-62278000D02*
X139607000Y-62278000D01*
X146059000Y-58457000D02*
G75*
G03X146059000Y-58457000I-381000J0D01*
G01*
X185476000Y-98603000D02*
X188651000Y-98603000D01*
X188651000Y-98603000D02*
X188651000Y-96825000D01*
X188651000Y-96825000D02*
X185476000Y-96825000D01*
X185476000Y-103175000D02*
X188651000Y-103175000D01*
X188651000Y-103175000D02*
X188651000Y-101397000D01*
X188651000Y-101397000D02*
X185476000Y-101397000D01*
X179380000Y-96571000D02*
X185476000Y-96571000D01*
X185476000Y-96571000D02*
X185476000Y-103429000D01*
X185476000Y-103429000D02*
X177602000Y-103429000D01*
X177475000Y-103429000D02*
X177475000Y-96571000D01*
X177602000Y-96571000D02*
X179380000Y-96571000D01*
X215476000Y-98603000D02*
X218651000Y-98603000D01*
X218651000Y-98603000D02*
X218651000Y-96825000D01*
X218651000Y-96825000D02*
X215476000Y-96825000D01*
X215476000Y-103175000D02*
X218651000Y-103175000D01*
X218651000Y-103175000D02*
X218651000Y-101397000D01*
X218651000Y-101397000D02*
X215476000Y-101397000D01*
X209380000Y-96571000D02*
X215476000Y-96571000D01*
X215476000Y-96571000D02*
X215476000Y-103429000D01*
X215476000Y-103429000D02*
X207602000Y-103429000D01*
X207475000Y-103429000D02*
X207475000Y-96571000D01*
X207602000Y-96571000D02*
X209380000Y-96571000D01*
X185476000Y-61603000D02*
X188651000Y-61603000D01*
X188651000Y-61603000D02*
X188651000Y-59825000D01*
X188651000Y-59825000D02*
X185476000Y-59825000D01*
X185476000Y-66175000D02*
X188651000Y-66175000D01*
X188651000Y-66175000D02*
X188651000Y-64397000D01*
X188651000Y-64397000D02*
X185476000Y-64397000D01*
X179380000Y-59571000D02*
X185476000Y-59571000D01*
X185476000Y-59571000D02*
X185476000Y-66429000D01*
X185476000Y-66429000D02*
X177602000Y-66429000D01*
X177475000Y-66429000D02*
X177475000Y-59571000D01*
X177602000Y-59571000D02*
X179380000Y-59571000D01*
X215476000Y-61603000D02*
X218651000Y-61603000D01*
X218651000Y-61603000D02*
X218651000Y-59825000D01*
X218651000Y-59825000D02*
X215476000Y-59825000D01*
X215476000Y-66175000D02*
X218651000Y-66175000D01*
X218651000Y-66175000D02*
X218651000Y-64397000D01*
X218651000Y-64397000D02*
X215476000Y-64397000D01*
X209380000Y-59571000D02*
X215476000Y-59571000D01*
X215476000Y-59571000D02*
X215476000Y-66429000D01*
X215476000Y-66429000D02*
X207602000Y-66429000D01*
X207475000Y-66429000D02*
X207475000Y-59571000D01*
X207602000Y-59571000D02*
X209380000Y-59571000D01*
X150549200Y-112300180D02*
X151250240Y-112300180D01*
X151250240Y-112300180D02*
X151250240Y-112549100D01*
X151250240Y-115099160D02*
X151250240Y-115299820D01*
X151250240Y-115299820D02*
X150549200Y-115299820D01*
X150549200Y-115900180D02*
X151250240Y-115900180D01*
X151250240Y-115900180D02*
X151250240Y-116149100D01*
X151250240Y-118699160D02*
X151250240Y-118899820D01*
X151250240Y-118899820D02*
X150549200Y-118899820D01*
X189000000Y-106275000D02*
X187800000Y-106275000D01*
X187800000Y-104525000D02*
X189000000Y-104525000D01*
X216525000Y-107200000D02*
X216525000Y-106000000D01*
X218275000Y-106000000D02*
X218275000Y-107200000D01*
X190275000Y-125000000D02*
X190275000Y-126200000D01*
X188525000Y-126200000D02*
X188525000Y-125000000D01*
X187475000Y-122200000D02*
X187475000Y-123400000D01*
X185725000Y-123400000D02*
X185725000Y-122200000D01*
X180800000Y-123125000D02*
X182000000Y-123125000D01*
X182000000Y-124875000D02*
X180800000Y-124875000D01*
X165625000Y-90200000D02*
X165625000Y-95400000D01*
X161975000Y-95400000D02*
X161975000Y-90200000D01*
X174400000Y-122275000D02*
X173200000Y-122275000D01*
X173200000Y-120525000D02*
X174400000Y-120525000D01*
X191400000Y-64525000D02*
X192600000Y-64525000D01*
X192600000Y-66275000D02*
X191400000Y-66275000D01*
X222000000Y-59325000D02*
X223200000Y-59325000D01*
X223200000Y-61075000D02*
X222000000Y-61075000D01*
X155800000Y-85075000D02*
X154600000Y-85075000D01*
X154600000Y-83325000D02*
X155800000Y-83325000D01*
X154600000Y-80725000D02*
X155800000Y-80725000D01*
X155800000Y-82475000D02*
X154600000Y-82475000D01*
X170475000Y-124800000D02*
X170475000Y-126000000D01*
X168725000Y-126000000D02*
X168725000Y-124800000D01*
X180000000Y-122275000D02*
X178800000Y-122275000D01*
X178800000Y-120525000D02*
X180000000Y-120525000D01*
X155800000Y-87675000D02*
X154600000Y-87675000D01*
X154600000Y-85925000D02*
X155800000Y-85925000D01*
X154600000Y-78125000D02*
X155800000Y-78125000D01*
X155800000Y-79875000D02*
X154600000Y-79875000D01*
X154675000Y-90600000D02*
X154675000Y-91800000D01*
X152925000Y-91800000D02*
X152925000Y-90600000D01*
X139200000Y-56325000D02*
X140400000Y-56325000D01*
X140400000Y-58075000D02*
X139200000Y-58075000D01*
X147425000Y-62900000D02*
X147425000Y-61700000D01*
X149175000Y-61700000D02*
X149175000Y-62900000D01*
X151775000Y-61700000D02*
X151775000Y-62900000D01*
X150025000Y-62900000D02*
X150025000Y-61700000D01*
X152725000Y-63000000D02*
X152725000Y-61800000D01*
X154475000Y-61800000D02*
X154475000Y-63000000D01*
X130800000Y-127325000D02*
X132000000Y-127325000D01*
X132000000Y-129075000D02*
X130800000Y-129075000D01*
X126525000Y-130800000D02*
X126525000Y-129600000D01*
X128275000Y-129600000D02*
X128275000Y-130800000D01*
X132000000Y-133075000D02*
X130800000Y-133075000D01*
X130800000Y-131325000D02*
X132000000Y-131325000D01*
X160400000Y-120125000D02*
X161600000Y-120125000D01*
X161600000Y-121875000D02*
X160400000Y-121875000D01*
X160400000Y-112925000D02*
X161600000Y-112925000D01*
X161600000Y-114675000D02*
X160400000Y-114675000D01*
X160400000Y-116525000D02*
X161600000Y-116525000D01*
X161600000Y-118275000D02*
X160400000Y-118275000D01*
X159875000Y-104400000D02*
X159875000Y-105600000D01*
X158125000Y-105600000D02*
X158125000Y-104400000D01*
X152525000Y-105600000D02*
X152525000Y-104400000D01*
X154275000Y-104400000D02*
X154275000Y-105600000D01*
X164800000Y-82475000D02*
X163600000Y-82475000D01*
X163600000Y-80725000D02*
X164800000Y-80725000D01*
X163600000Y-78125000D02*
X164800000Y-78125000D01*
X164800000Y-79875000D02*
X163600000Y-79875000D01*
X141000000Y-102578000D02*
X132350000Y-102578000D01*
X141000000Y-99022000D02*
X132350000Y-99022000D01*
X132350000Y-102578000D02*
X132350000Y-99022000D01*
X141000000Y-99022000D02*
X141000000Y-102578000D01*
X142381210Y-98010000D02*
G75*
G03X142381210Y-98010000I-359210J0D01*
G01*
X180940000Y-128880000D02*
X177990000Y-128880000D01*
X180940000Y-125830000D02*
X177990000Y-125830000D01*
X181410000Y-128760000D02*
X181740000Y-128760000D01*
X158400000Y-136700000D02*
G75*
G03X158400000Y-136700000I-100000J0D01*
G01*
X157750000Y-136450000D02*
X158250000Y-136450000D01*
X157750000Y-133550000D02*
X157750000Y-136450000D01*
X158250000Y-133550000D02*
X157750000Y-133550000D01*
X158250000Y-136450000D02*
X158250000Y-133550000D01*
X159760555Y-89800000D02*
G75*
G03X159760555Y-89800000I-360555J0D01*
G01*
X158900000Y-94800000D02*
X155950000Y-94800000D01*
X155950000Y-94800000D02*
X155950000Y-90800000D01*
X158900000Y-90800000D02*
X155950000Y-90800000D01*
X158900000Y-90800000D02*
X158900000Y-94800000D01*
X223225000Y-68475000D02*
X223225000Y-64325000D01*
X228775000Y-68475000D02*
X228775000Y-64325000D01*
X223270000Y-69400000D02*
X223270000Y-70175000D01*
X209725000Y-109025000D02*
X213875000Y-109025000D01*
X209725000Y-114575000D02*
X213875000Y-114575000D01*
X208800000Y-109070000D02*
X208025000Y-109070000D01*
X141075000Y-132975000D02*
X136925000Y-132975000D01*
X141075000Y-127425000D02*
X136925000Y-127425000D01*
X142000000Y-132930000D02*
X142775000Y-132930000D01*
X139800000Y-116800000D02*
X133800000Y-116800000D01*
X131550000Y-112800000D02*
X139800000Y-112800000D01*
X211133334Y-116657143D02*
X211085715Y-116704762D01*
X210942858Y-116752381D01*
X210847620Y-116752381D01*
X210704762Y-116704762D01*
X210609524Y-116609524D01*
X210561905Y-116514286D01*
X210514286Y-116323810D01*
X210514286Y-116180952D01*
X210561905Y-115990476D01*
X210609524Y-115895238D01*
X210704762Y-115800000D01*
X210847620Y-115752381D01*
X210942858Y-115752381D01*
X211085715Y-115800000D01*
X211133334Y-115847619D01*
X212085715Y-116752381D02*
X211514286Y-116752381D01*
X211800000Y-116752381D02*
X211800000Y-115752381D01*
X211704762Y-115895238D01*
X211609524Y-115990476D01*
X211514286Y-116038095D01*
X189057143Y-130166666D02*
X189104762Y-130214285D01*
X189152381Y-130357142D01*
X189152381Y-130452380D01*
X189104762Y-130595238D01*
X189009524Y-130690476D01*
X188914286Y-130738095D01*
X188723810Y-130785714D01*
X188580952Y-130785714D01*
X188390476Y-130738095D01*
X188295238Y-130690476D01*
X188200000Y-130595238D01*
X188152381Y-130452380D01*
X188152381Y-130357142D01*
X188200000Y-130214285D01*
X188247619Y-130166666D01*
X188247619Y-129785714D02*
X188200000Y-129738095D01*
X188152381Y-129642857D01*
X188152381Y-129404761D01*
X188200000Y-129309523D01*
X188247619Y-129261904D01*
X188342857Y-129214285D01*
X188438095Y-129214285D01*
X188580952Y-129261904D01*
X189152381Y-129833333D01*
X189152381Y-129214285D01*
X157633334Y-128257143D02*
X157585715Y-128304762D01*
X157442858Y-128352381D01*
X157347620Y-128352381D01*
X157204762Y-128304762D01*
X157109524Y-128209524D01*
X157061905Y-128114286D01*
X157014286Y-127923810D01*
X157014286Y-127780952D01*
X157061905Y-127590476D01*
X157109524Y-127495238D01*
X157204762Y-127400000D01*
X157347620Y-127352381D01*
X157442858Y-127352381D01*
X157585715Y-127400000D01*
X157633334Y-127447619D01*
X157966667Y-127352381D02*
X158585715Y-127352381D01*
X158252381Y-127733333D01*
X158395239Y-127733333D01*
X158490477Y-127780952D01*
X158538096Y-127828571D01*
X158585715Y-127923810D01*
X158585715Y-128161905D01*
X158538096Y-128257143D01*
X158490477Y-128304762D01*
X158395239Y-128352381D01*
X158109524Y-128352381D01*
X158014286Y-128304762D01*
X157966667Y-128257143D01*
X162457143Y-134566666D02*
X162504762Y-134614285D01*
X162552381Y-134757142D01*
X162552381Y-134852380D01*
X162504762Y-134995238D01*
X162409524Y-135090476D01*
X162314286Y-135138095D01*
X162123810Y-135185714D01*
X161980952Y-135185714D01*
X161790476Y-135138095D01*
X161695238Y-135090476D01*
X161600000Y-134995238D01*
X161552381Y-134852380D01*
X161552381Y-134757142D01*
X161600000Y-134614285D01*
X161647619Y-134566666D01*
X161885714Y-133709523D02*
X162552381Y-133709523D01*
X161504762Y-133947619D02*
X162219048Y-134185714D01*
X162219048Y-133566666D01*
X150857143Y-134166666D02*
X150904762Y-134214285D01*
X150952381Y-134357142D01*
X150952381Y-134452380D01*
X150904762Y-134595238D01*
X150809524Y-134690476D01*
X150714286Y-134738095D01*
X150523810Y-134785714D01*
X150380952Y-134785714D01*
X150190476Y-134738095D01*
X150095238Y-134690476D01*
X150000000Y-134595238D01*
X149952381Y-134452380D01*
X149952381Y-134357142D01*
X150000000Y-134214285D01*
X150047619Y-134166666D01*
X149952381Y-133261904D02*
X149952381Y-133738095D01*
X150428571Y-133785714D01*
X150380952Y-133738095D01*
X150333333Y-133642857D01*
X150333333Y-133404761D01*
X150380952Y-133309523D01*
X150428571Y-133261904D01*
X150523810Y-133214285D01*
X150761905Y-133214285D01*
X150857143Y-133261904D01*
X150904762Y-133309523D01*
X150952381Y-133404761D01*
X150952381Y-133642857D01*
X150904762Y-133738095D01*
X150857143Y-133785714D01*
X205157143Y-107866666D02*
X205204762Y-107914285D01*
X205252381Y-108057142D01*
X205252381Y-108152380D01*
X205204762Y-108295238D01*
X205109524Y-108390476D01*
X205014286Y-108438095D01*
X204823810Y-108485714D01*
X204680952Y-108485714D01*
X204490476Y-108438095D01*
X204395238Y-108390476D01*
X204300000Y-108295238D01*
X204252381Y-108152380D01*
X204252381Y-108057142D01*
X204300000Y-107914285D01*
X204347619Y-107866666D01*
X204252381Y-107009523D02*
X204252381Y-107200000D01*
X204300000Y-107295238D01*
X204347619Y-107342857D01*
X204490476Y-107438095D01*
X204680952Y-107485714D01*
X205061905Y-107485714D01*
X205157143Y-107438095D01*
X205204762Y-107390476D01*
X205252381Y-107295238D01*
X205252381Y-107104761D01*
X205204762Y-107009523D01*
X205157143Y-106961904D01*
X205061905Y-106914285D01*
X204823810Y-106914285D01*
X204728571Y-106961904D01*
X204680952Y-107009523D01*
X204633333Y-107104761D01*
X204633333Y-107295238D01*
X204680952Y-107390476D01*
X204728571Y-107438095D01*
X204823810Y-107485714D01*
X208433334Y-106657143D02*
X208385715Y-106704762D01*
X208242858Y-106752381D01*
X208147620Y-106752381D01*
X208004762Y-106704762D01*
X207909524Y-106609524D01*
X207861905Y-106514286D01*
X207814286Y-106323810D01*
X207814286Y-106180952D01*
X207861905Y-105990476D01*
X207909524Y-105895238D01*
X208004762Y-105800000D01*
X208147620Y-105752381D01*
X208242858Y-105752381D01*
X208385715Y-105800000D01*
X208433334Y-105847619D01*
X208766667Y-105752381D02*
X209433334Y-105752381D01*
X209004762Y-106752381D01*
X181557143Y-130466666D02*
X181604762Y-130514285D01*
X181652381Y-130657142D01*
X181652381Y-130752380D01*
X181604762Y-130895238D01*
X181509524Y-130990476D01*
X181414286Y-131038095D01*
X181223810Y-131085714D01*
X181080952Y-131085714D01*
X180890476Y-131038095D01*
X180795238Y-130990476D01*
X180700000Y-130895238D01*
X180652381Y-130752380D01*
X180652381Y-130657142D01*
X180700000Y-130514285D01*
X180747619Y-130466666D01*
X181080952Y-129895238D02*
X181033333Y-129990476D01*
X180985714Y-130038095D01*
X180890476Y-130085714D01*
X180842857Y-130085714D01*
X180747619Y-130038095D01*
X180700000Y-129990476D01*
X180652381Y-129895238D01*
X180652381Y-129704761D01*
X180700000Y-129609523D01*
X180747619Y-129561904D01*
X180842857Y-129514285D01*
X180890476Y-129514285D01*
X180985714Y-129561904D01*
X181033333Y-129609523D01*
X181080952Y-129704761D01*
X181080952Y-129895238D01*
X181128571Y-129990476D01*
X181176190Y-130038095D01*
X181271429Y-130085714D01*
X181461905Y-130085714D01*
X181557143Y-130038095D01*
X181604762Y-129990476D01*
X181652381Y-129895238D01*
X181652381Y-129704761D01*
X181604762Y-129609523D01*
X181557143Y-129561904D01*
X181461905Y-129514285D01*
X181271429Y-129514285D01*
X181176190Y-129561904D01*
X181128571Y-129609523D01*
X181080952Y-129704761D01*
X177357143Y-124266666D02*
X177404762Y-124314285D01*
X177452381Y-124457142D01*
X177452381Y-124552380D01*
X177404762Y-124695238D01*
X177309524Y-124790476D01*
X177214286Y-124838095D01*
X177023810Y-124885714D01*
X176880952Y-124885714D01*
X176690476Y-124838095D01*
X176595238Y-124790476D01*
X176500000Y-124695238D01*
X176452381Y-124552380D01*
X176452381Y-124457142D01*
X176500000Y-124314285D01*
X176547619Y-124266666D01*
X177452381Y-123790476D02*
X177452381Y-123600000D01*
X177404762Y-123504761D01*
X177357143Y-123457142D01*
X177214286Y-123361904D01*
X177023810Y-123314285D01*
X176642857Y-123314285D01*
X176547619Y-123361904D01*
X176500000Y-123409523D01*
X176452381Y-123504761D01*
X176452381Y-123695238D01*
X176500000Y-123790476D01*
X176547619Y-123838095D01*
X176642857Y-123885714D01*
X176880952Y-123885714D01*
X176976190Y-123838095D01*
X177023810Y-123790476D01*
X177071429Y-123695238D01*
X177071429Y-123504761D01*
X177023810Y-123409523D01*
X176976190Y-123361904D01*
X176880952Y-123314285D01*
X170957143Y-122042857D02*
X171004762Y-122090476D01*
X171052381Y-122233333D01*
X171052381Y-122328571D01*
X171004762Y-122471429D01*
X170909524Y-122566667D01*
X170814286Y-122614286D01*
X170623810Y-122661905D01*
X170480952Y-122661905D01*
X170290476Y-122614286D01*
X170195238Y-122566667D01*
X170100000Y-122471429D01*
X170052381Y-122328571D01*
X170052381Y-122233333D01*
X170100000Y-122090476D01*
X170147619Y-122042857D01*
X171052381Y-121090476D02*
X171052381Y-121661905D01*
X171052381Y-121376191D02*
X170052381Y-121376191D01*
X170195238Y-121471429D01*
X170290476Y-121566667D01*
X170338095Y-121661905D01*
X170052381Y-120471429D02*
X170052381Y-120376190D01*
X170100000Y-120280952D01*
X170147619Y-120233333D01*
X170242857Y-120185714D01*
X170433333Y-120138095D01*
X170671429Y-120138095D01*
X170861905Y-120185714D01*
X170957143Y-120233333D01*
X171004762Y-120280952D01*
X171052381Y-120376190D01*
X171052381Y-120471429D01*
X171004762Y-120566667D01*
X170957143Y-120614286D01*
X170861905Y-120661905D01*
X170671429Y-120709524D01*
X170433333Y-120709524D01*
X170242857Y-120661905D01*
X170147619Y-120614286D01*
X170100000Y-120566667D01*
X170052381Y-120471429D01*
X222557143Y-74442857D02*
X222604762Y-74490476D01*
X222652381Y-74633333D01*
X222652381Y-74728571D01*
X222604762Y-74871429D01*
X222509524Y-74966667D01*
X222414286Y-75014286D01*
X222223810Y-75061905D01*
X222080952Y-75061905D01*
X221890476Y-75014286D01*
X221795238Y-74966667D01*
X221700000Y-74871429D01*
X221652381Y-74728571D01*
X221652381Y-74633333D01*
X221700000Y-74490476D01*
X221747619Y-74442857D01*
X222652381Y-73490476D02*
X222652381Y-74061905D01*
X222652381Y-73776191D02*
X221652381Y-73776191D01*
X221795238Y-73871429D01*
X221890476Y-73966667D01*
X221938095Y-74061905D01*
X222652381Y-72538095D02*
X222652381Y-73109524D01*
X222652381Y-72823810D02*
X221652381Y-72823810D01*
X221795238Y-72919048D01*
X221890476Y-73014286D01*
X221938095Y-73109524D01*
X180957143Y-134242857D02*
X181004762Y-134290476D01*
X181052381Y-134433333D01*
X181052381Y-134528571D01*
X181004762Y-134671429D01*
X180909524Y-134766667D01*
X180814286Y-134814286D01*
X180623810Y-134861905D01*
X180480952Y-134861905D01*
X180290476Y-134814286D01*
X180195238Y-134766667D01*
X180100000Y-134671429D01*
X180052381Y-134528571D01*
X180052381Y-134433333D01*
X180100000Y-134290476D01*
X180147619Y-134242857D01*
X181052381Y-133290476D02*
X181052381Y-133861905D01*
X181052381Y-133576191D02*
X180052381Y-133576191D01*
X180195238Y-133671429D01*
X180290476Y-133766667D01*
X180338095Y-133861905D01*
X180147619Y-132909524D02*
X180100000Y-132861905D01*
X180052381Y-132766667D01*
X180052381Y-132528571D01*
X180100000Y-132433333D01*
X180147619Y-132385714D01*
X180242857Y-132338095D01*
X180338095Y-132338095D01*
X180480952Y-132385714D01*
X181052381Y-132957143D01*
X181052381Y-132338095D01*
X222357143Y-70242857D02*
X222404762Y-70290476D01*
X222452381Y-70433333D01*
X222452381Y-70528571D01*
X222404762Y-70671429D01*
X222309524Y-70766667D01*
X222214286Y-70814286D01*
X222023810Y-70861905D01*
X221880952Y-70861905D01*
X221690476Y-70814286D01*
X221595238Y-70766667D01*
X221500000Y-70671429D01*
X221452381Y-70528571D01*
X221452381Y-70433333D01*
X221500000Y-70290476D01*
X221547619Y-70242857D01*
X222452381Y-69290476D02*
X222452381Y-69861905D01*
X222452381Y-69576191D02*
X221452381Y-69576191D01*
X221595238Y-69671429D01*
X221690476Y-69766667D01*
X221738095Y-69861905D01*
X221452381Y-68957143D02*
X221452381Y-68338095D01*
X221833333Y-68671429D01*
X221833333Y-68528571D01*
X221880952Y-68433333D01*
X221928571Y-68385714D01*
X222023810Y-68338095D01*
X222261905Y-68338095D01*
X222357143Y-68385714D01*
X222404762Y-68433333D01*
X222452381Y-68528571D01*
X222452381Y-68814286D01*
X222404762Y-68909524D01*
X222357143Y-68957143D01*
X151557143Y-86442857D02*
X151604762Y-86490476D01*
X151652381Y-86633333D01*
X151652381Y-86728571D01*
X151604762Y-86871429D01*
X151509524Y-86966667D01*
X151414286Y-87014286D01*
X151223810Y-87061905D01*
X151080952Y-87061905D01*
X150890476Y-87014286D01*
X150795238Y-86966667D01*
X150700000Y-86871429D01*
X150652381Y-86728571D01*
X150652381Y-86633333D01*
X150700000Y-86490476D01*
X150747619Y-86442857D01*
X151652381Y-85490476D02*
X151652381Y-86061905D01*
X151652381Y-85776191D02*
X150652381Y-85776191D01*
X150795238Y-85871429D01*
X150890476Y-85966667D01*
X150938095Y-86061905D01*
X150985714Y-84633333D02*
X151652381Y-84633333D01*
X150604762Y-84871429D02*
X151319048Y-85109524D01*
X151319048Y-84490476D01*
X154557143Y-101457143D02*
X154509524Y-101504762D01*
X154366667Y-101552381D01*
X154271429Y-101552381D01*
X154128571Y-101504762D01*
X154033333Y-101409524D01*
X153985714Y-101314286D01*
X153938095Y-101123810D01*
X153938095Y-100980952D01*
X153985714Y-100790476D01*
X154033333Y-100695238D01*
X154128571Y-100600000D01*
X154271429Y-100552381D01*
X154366667Y-100552381D01*
X154509524Y-100600000D01*
X154557143Y-100647619D01*
X155509524Y-101552381D02*
X154938095Y-101552381D01*
X155223809Y-101552381D02*
X155223809Y-100552381D01*
X155128571Y-100695238D01*
X155033333Y-100790476D01*
X154938095Y-100838095D01*
X156414286Y-100552381D02*
X155938095Y-100552381D01*
X155890476Y-101028571D01*
X155938095Y-100980952D01*
X156033333Y-100933333D01*
X156271429Y-100933333D01*
X156366667Y-100980952D01*
X156414286Y-101028571D01*
X156461905Y-101123810D01*
X156461905Y-101361905D01*
X156414286Y-101457143D01*
X156366667Y-101504762D01*
X156271429Y-101552381D01*
X156033333Y-101552381D01*
X155938095Y-101504762D01*
X155890476Y-101457143D01*
X134457143Y-134857143D02*
X134409524Y-134904762D01*
X134266667Y-134952381D01*
X134171429Y-134952381D01*
X134028571Y-134904762D01*
X133933333Y-134809524D01*
X133885714Y-134714286D01*
X133838095Y-134523810D01*
X133838095Y-134380952D01*
X133885714Y-134190476D01*
X133933333Y-134095238D01*
X134028571Y-134000000D01*
X134171429Y-133952381D01*
X134266667Y-133952381D01*
X134409524Y-134000000D01*
X134457143Y-134047619D01*
X135409524Y-134952381D02*
X134838095Y-134952381D01*
X135123809Y-134952381D02*
X135123809Y-133952381D01*
X135028571Y-134095238D01*
X134933333Y-134190476D01*
X134838095Y-134238095D01*
X136266667Y-133952381D02*
X136076190Y-133952381D01*
X135980952Y-134000000D01*
X135933333Y-134047619D01*
X135838095Y-134190476D01*
X135790476Y-134380952D01*
X135790476Y-134761905D01*
X135838095Y-134857143D01*
X135885714Y-134904762D01*
X135980952Y-134952381D01*
X136171429Y-134952381D01*
X136266667Y-134904762D01*
X136314286Y-134857143D01*
X136361905Y-134761905D01*
X136361905Y-134523810D01*
X136314286Y-134428571D01*
X136266667Y-134380952D01*
X136171429Y-134333333D01*
X135980952Y-134333333D01*
X135885714Y-134380952D01*
X135838095Y-134428571D01*
X135790476Y-134523810D01*
X141157143Y-92557143D02*
X141109524Y-92604762D01*
X140966667Y-92652381D01*
X140871429Y-92652381D01*
X140728571Y-92604762D01*
X140633333Y-92509524D01*
X140585714Y-92414286D01*
X140538095Y-92223810D01*
X140538095Y-92080952D01*
X140585714Y-91890476D01*
X140633333Y-91795238D01*
X140728571Y-91700000D01*
X140871429Y-91652381D01*
X140966667Y-91652381D01*
X141109524Y-91700000D01*
X141157143Y-91747619D01*
X142109524Y-92652381D02*
X141538095Y-92652381D01*
X141823809Y-92652381D02*
X141823809Y-91652381D01*
X141728571Y-91795238D01*
X141633333Y-91890476D01*
X141538095Y-91938095D01*
X142442857Y-91652381D02*
X143109524Y-91652381D01*
X142680952Y-92652381D01*
X141157143Y-94757143D02*
X141109524Y-94804762D01*
X140966667Y-94852381D01*
X140871429Y-94852381D01*
X140728571Y-94804762D01*
X140633333Y-94709524D01*
X140585714Y-94614286D01*
X140538095Y-94423810D01*
X140538095Y-94280952D01*
X140585714Y-94090476D01*
X140633333Y-93995238D01*
X140728571Y-93900000D01*
X140871429Y-93852381D01*
X140966667Y-93852381D01*
X141109524Y-93900000D01*
X141157143Y-93947619D01*
X142109524Y-94852381D02*
X141538095Y-94852381D01*
X141823809Y-94852381D02*
X141823809Y-93852381D01*
X141728571Y-93995238D01*
X141633333Y-94090476D01*
X141538095Y-94138095D01*
X142680952Y-94280952D02*
X142585714Y-94233333D01*
X142538095Y-94185714D01*
X142490476Y-94090476D01*
X142490476Y-94042857D01*
X142538095Y-93947619D01*
X142585714Y-93900000D01*
X142680952Y-93852381D01*
X142871429Y-93852381D01*
X142966667Y-93900000D01*
X143014286Y-93947619D01*
X143061905Y-94042857D01*
X143061905Y-94090476D01*
X143014286Y-94185714D01*
X142966667Y-94233333D01*
X142871429Y-94280952D01*
X142680952Y-94280952D01*
X142585714Y-94328571D01*
X142538095Y-94376190D01*
X142490476Y-94471429D01*
X142490476Y-94661905D01*
X142538095Y-94757143D01*
X142585714Y-94804762D01*
X142680952Y-94852381D01*
X142871429Y-94852381D01*
X142966667Y-94804762D01*
X143014286Y-94757143D01*
X143061905Y-94661905D01*
X143061905Y-94471429D01*
X143014286Y-94376190D01*
X142966667Y-94328571D01*
X142871429Y-94280952D01*
X126757143Y-70742857D02*
X126804762Y-70790476D01*
X126852381Y-70933333D01*
X126852381Y-71028571D01*
X126804762Y-71171429D01*
X126709524Y-71266667D01*
X126614286Y-71314286D01*
X126423810Y-71361905D01*
X126280952Y-71361905D01*
X126090476Y-71314286D01*
X125995238Y-71266667D01*
X125900000Y-71171429D01*
X125852381Y-71028571D01*
X125852381Y-70933333D01*
X125900000Y-70790476D01*
X125947619Y-70742857D01*
X126852381Y-69790476D02*
X126852381Y-70361905D01*
X126852381Y-70076191D02*
X125852381Y-70076191D01*
X125995238Y-70171429D01*
X126090476Y-70266667D01*
X126138095Y-70361905D01*
X126852381Y-69314286D02*
X126852381Y-69123810D01*
X126804762Y-69028571D01*
X126757143Y-68980952D01*
X126614286Y-68885714D01*
X126423810Y-68838095D01*
X126042857Y-68838095D01*
X125947619Y-68885714D01*
X125900000Y-68933333D01*
X125852381Y-69028571D01*
X125852381Y-69219048D01*
X125900000Y-69314286D01*
X125947619Y-69361905D01*
X126042857Y-69409524D01*
X126280952Y-69409524D01*
X126376190Y-69361905D01*
X126423810Y-69314286D01*
X126471429Y-69219048D01*
X126471429Y-69028571D01*
X126423810Y-68933333D01*
X126376190Y-68885714D01*
X126280952Y-68838095D01*
X130157143Y-119457143D02*
X130109524Y-119504762D01*
X129966667Y-119552381D01*
X129871429Y-119552381D01*
X129728571Y-119504762D01*
X129633333Y-119409524D01*
X129585714Y-119314286D01*
X129538095Y-119123810D01*
X129538095Y-118980952D01*
X129585714Y-118790476D01*
X129633333Y-118695238D01*
X129728571Y-118600000D01*
X129871429Y-118552381D01*
X129966667Y-118552381D01*
X130109524Y-118600000D01*
X130157143Y-118647619D01*
X130538095Y-118647619D02*
X130585714Y-118600000D01*
X130680952Y-118552381D01*
X130919048Y-118552381D01*
X131014286Y-118600000D01*
X131061905Y-118647619D01*
X131109524Y-118742857D01*
X131109524Y-118838095D01*
X131061905Y-118980952D01*
X130490476Y-119552381D01*
X131109524Y-119552381D01*
X131728571Y-118552381D02*
X131823810Y-118552381D01*
X131919048Y-118600000D01*
X131966667Y-118647619D01*
X132014286Y-118742857D01*
X132061905Y-118933333D01*
X132061905Y-119171429D01*
X132014286Y-119361905D01*
X131966667Y-119457143D01*
X131919048Y-119504762D01*
X131823810Y-119552381D01*
X131728571Y-119552381D01*
X131633333Y-119504762D01*
X131585714Y-119457143D01*
X131538095Y-119361905D01*
X131490476Y-119171429D01*
X131490476Y-118933333D01*
X131538095Y-118742857D01*
X131585714Y-118647619D01*
X131633333Y-118600000D01*
X131728571Y-118552381D01*
X141857143Y-110257143D02*
X141809524Y-110304762D01*
X141666667Y-110352381D01*
X141571429Y-110352381D01*
X141428571Y-110304762D01*
X141333333Y-110209524D01*
X141285714Y-110114286D01*
X141238095Y-109923810D01*
X141238095Y-109780952D01*
X141285714Y-109590476D01*
X141333333Y-109495238D01*
X141428571Y-109400000D01*
X141571429Y-109352381D01*
X141666667Y-109352381D01*
X141809524Y-109400000D01*
X141857143Y-109447619D01*
X142238095Y-109447619D02*
X142285714Y-109400000D01*
X142380952Y-109352381D01*
X142619048Y-109352381D01*
X142714286Y-109400000D01*
X142761905Y-109447619D01*
X142809524Y-109542857D01*
X142809524Y-109638095D01*
X142761905Y-109780952D01*
X142190476Y-110352381D01*
X142809524Y-110352381D01*
X143761905Y-110352381D02*
X143190476Y-110352381D01*
X143476190Y-110352381D02*
X143476190Y-109352381D01*
X143380952Y-109495238D01*
X143285714Y-109590476D01*
X143190476Y-109638095D01*
X137157143Y-71342857D02*
X137204762Y-71390476D01*
X137252381Y-71533333D01*
X137252381Y-71628571D01*
X137204762Y-71771429D01*
X137109524Y-71866667D01*
X137014286Y-71914286D01*
X136823810Y-71961905D01*
X136680952Y-71961905D01*
X136490476Y-71914286D01*
X136395238Y-71866667D01*
X136300000Y-71771429D01*
X136252381Y-71628571D01*
X136252381Y-71533333D01*
X136300000Y-71390476D01*
X136347619Y-71342857D01*
X136347619Y-70961905D02*
X136300000Y-70914286D01*
X136252381Y-70819048D01*
X136252381Y-70580952D01*
X136300000Y-70485714D01*
X136347619Y-70438095D01*
X136442857Y-70390476D01*
X136538095Y-70390476D01*
X136680952Y-70438095D01*
X137252381Y-71009524D01*
X137252381Y-70390476D01*
X136347619Y-70009524D02*
X136300000Y-69961905D01*
X136252381Y-69866667D01*
X136252381Y-69628571D01*
X136300000Y-69533333D01*
X136347619Y-69485714D01*
X136442857Y-69438095D01*
X136538095Y-69438095D01*
X136680952Y-69485714D01*
X137252381Y-70057143D01*
X137252381Y-69438095D01*
X140857143Y-107457143D02*
X140809524Y-107504762D01*
X140666667Y-107552381D01*
X140571429Y-107552381D01*
X140428571Y-107504762D01*
X140333333Y-107409524D01*
X140285714Y-107314286D01*
X140238095Y-107123810D01*
X140238095Y-106980952D01*
X140285714Y-106790476D01*
X140333333Y-106695238D01*
X140428571Y-106600000D01*
X140571429Y-106552381D01*
X140666667Y-106552381D01*
X140809524Y-106600000D01*
X140857143Y-106647619D01*
X141238095Y-106647619D02*
X141285714Y-106600000D01*
X141380952Y-106552381D01*
X141619048Y-106552381D01*
X141714286Y-106600000D01*
X141761905Y-106647619D01*
X141809524Y-106742857D01*
X141809524Y-106838095D01*
X141761905Y-106980952D01*
X141190476Y-107552381D01*
X141809524Y-107552381D01*
X142142857Y-106552381D02*
X142761905Y-106552381D01*
X142428571Y-106933333D01*
X142571429Y-106933333D01*
X142666667Y-106980952D01*
X142714286Y-107028571D01*
X142761905Y-107123810D01*
X142761905Y-107361905D01*
X142714286Y-107457143D01*
X142666667Y-107504762D01*
X142571429Y-107552381D01*
X142285714Y-107552381D01*
X142190476Y-107504762D01*
X142142857Y-107457143D01*
X143157143Y-119757143D02*
X143109524Y-119804762D01*
X142966667Y-119852381D01*
X142871429Y-119852381D01*
X142728571Y-119804762D01*
X142633333Y-119709524D01*
X142585714Y-119614286D01*
X142538095Y-119423810D01*
X142538095Y-119280952D01*
X142585714Y-119090476D01*
X142633333Y-118995238D01*
X142728571Y-118900000D01*
X142871429Y-118852381D01*
X142966667Y-118852381D01*
X143109524Y-118900000D01*
X143157143Y-118947619D01*
X143538095Y-118947619D02*
X143585714Y-118900000D01*
X143680952Y-118852381D01*
X143919048Y-118852381D01*
X144014286Y-118900000D01*
X144061905Y-118947619D01*
X144109524Y-119042857D01*
X144109524Y-119138095D01*
X144061905Y-119280952D01*
X143490476Y-119852381D01*
X144109524Y-119852381D01*
X144966667Y-119185714D02*
X144966667Y-119852381D01*
X144728571Y-118804762D02*
X144490476Y-119519048D01*
X145109524Y-119519048D01*
X134257143Y-76542857D02*
X134304762Y-76590476D01*
X134352381Y-76733333D01*
X134352381Y-76828571D01*
X134304762Y-76971429D01*
X134209524Y-77066667D01*
X134114286Y-77114286D01*
X133923810Y-77161905D01*
X133780952Y-77161905D01*
X133590476Y-77114286D01*
X133495238Y-77066667D01*
X133400000Y-76971429D01*
X133352381Y-76828571D01*
X133352381Y-76733333D01*
X133400000Y-76590476D01*
X133447619Y-76542857D01*
X133447619Y-76161905D02*
X133400000Y-76114286D01*
X133352381Y-76019048D01*
X133352381Y-75780952D01*
X133400000Y-75685714D01*
X133447619Y-75638095D01*
X133542857Y-75590476D01*
X133638095Y-75590476D01*
X133780952Y-75638095D01*
X134352381Y-76209524D01*
X134352381Y-75590476D01*
X133352381Y-74685714D02*
X133352381Y-75161905D01*
X133828571Y-75209524D01*
X133780952Y-75161905D01*
X133733333Y-75066667D01*
X133733333Y-74828571D01*
X133780952Y-74733333D01*
X133828571Y-74685714D01*
X133923810Y-74638095D01*
X134161905Y-74638095D01*
X134257143Y-74685714D01*
X134304762Y-74733333D01*
X134352381Y-74828571D01*
X134352381Y-75066667D01*
X134304762Y-75161905D01*
X134257143Y-75209524D01*
X126757143Y-76242857D02*
X126804762Y-76290476D01*
X126852381Y-76433333D01*
X126852381Y-76528571D01*
X126804762Y-76671429D01*
X126709524Y-76766667D01*
X126614286Y-76814286D01*
X126423810Y-76861905D01*
X126280952Y-76861905D01*
X126090476Y-76814286D01*
X125995238Y-76766667D01*
X125900000Y-76671429D01*
X125852381Y-76528571D01*
X125852381Y-76433333D01*
X125900000Y-76290476D01*
X125947619Y-76242857D01*
X125947619Y-75861905D02*
X125900000Y-75814286D01*
X125852381Y-75719048D01*
X125852381Y-75480952D01*
X125900000Y-75385714D01*
X125947619Y-75338095D01*
X126042857Y-75290476D01*
X126138095Y-75290476D01*
X126280952Y-75338095D01*
X126852381Y-75909524D01*
X126852381Y-75290476D01*
X125852381Y-74433333D02*
X125852381Y-74623810D01*
X125900000Y-74719048D01*
X125947619Y-74766667D01*
X126090476Y-74861905D01*
X126280952Y-74909524D01*
X126661905Y-74909524D01*
X126757143Y-74861905D01*
X126804762Y-74814286D01*
X126852381Y-74719048D01*
X126852381Y-74528571D01*
X126804762Y-74433333D01*
X126757143Y-74385714D01*
X126661905Y-74338095D01*
X126423810Y-74338095D01*
X126328571Y-74385714D01*
X126280952Y-74433333D01*
X126233333Y-74528571D01*
X126233333Y-74719048D01*
X126280952Y-74814286D01*
X126328571Y-74861905D01*
X126423810Y-74909524D01*
X126957143Y-88042857D02*
X127004762Y-88090476D01*
X127052381Y-88233333D01*
X127052381Y-88328571D01*
X127004762Y-88471429D01*
X126909524Y-88566667D01*
X126814286Y-88614286D01*
X126623810Y-88661905D01*
X126480952Y-88661905D01*
X126290476Y-88614286D01*
X126195238Y-88566667D01*
X126100000Y-88471429D01*
X126052381Y-88328571D01*
X126052381Y-88233333D01*
X126100000Y-88090476D01*
X126147619Y-88042857D01*
X126147619Y-87661905D02*
X126100000Y-87614286D01*
X126052381Y-87519048D01*
X126052381Y-87280952D01*
X126100000Y-87185714D01*
X126147619Y-87138095D01*
X126242857Y-87090476D01*
X126338095Y-87090476D01*
X126480952Y-87138095D01*
X127052381Y-87709524D01*
X127052381Y-87090476D01*
X126052381Y-86757143D02*
X126052381Y-86090476D01*
X127052381Y-86519048D01*
X126957143Y-97642857D02*
X127004762Y-97690476D01*
X127052381Y-97833333D01*
X127052381Y-97928571D01*
X127004762Y-98071429D01*
X126909524Y-98166667D01*
X126814286Y-98214286D01*
X126623810Y-98261905D01*
X126480952Y-98261905D01*
X126290476Y-98214286D01*
X126195238Y-98166667D01*
X126100000Y-98071429D01*
X126052381Y-97928571D01*
X126052381Y-97833333D01*
X126100000Y-97690476D01*
X126147619Y-97642857D01*
X126147619Y-97261905D02*
X126100000Y-97214286D01*
X126052381Y-97119048D01*
X126052381Y-96880952D01*
X126100000Y-96785714D01*
X126147619Y-96738095D01*
X126242857Y-96690476D01*
X126338095Y-96690476D01*
X126480952Y-96738095D01*
X127052381Y-97309524D01*
X127052381Y-96690476D01*
X126480952Y-96119048D02*
X126433333Y-96214286D01*
X126385714Y-96261905D01*
X126290476Y-96309524D01*
X126242857Y-96309524D01*
X126147619Y-96261905D01*
X126100000Y-96214286D01*
X126052381Y-96119048D01*
X126052381Y-95928571D01*
X126100000Y-95833333D01*
X126147619Y-95785714D01*
X126242857Y-95738095D01*
X126290476Y-95738095D01*
X126385714Y-95785714D01*
X126433333Y-95833333D01*
X126480952Y-95928571D01*
X126480952Y-96119048D01*
X126528571Y-96214286D01*
X126576190Y-96261905D01*
X126671429Y-96309524D01*
X126861905Y-96309524D01*
X126957143Y-96261905D01*
X127004762Y-96214286D01*
X127052381Y-96119048D01*
X127052381Y-95928571D01*
X127004762Y-95833333D01*
X126957143Y-95785714D01*
X126861905Y-95738095D01*
X126671429Y-95738095D01*
X126576190Y-95785714D01*
X126528571Y-95833333D01*
X126480952Y-95928571D01*
X156557143Y-109642857D02*
X156604762Y-109690476D01*
X156652381Y-109833333D01*
X156652381Y-109928571D01*
X156604762Y-110071429D01*
X156509524Y-110166667D01*
X156414286Y-110214286D01*
X156223810Y-110261905D01*
X156080952Y-110261905D01*
X155890476Y-110214286D01*
X155795238Y-110166667D01*
X155700000Y-110071429D01*
X155652381Y-109928571D01*
X155652381Y-109833333D01*
X155700000Y-109690476D01*
X155747619Y-109642857D01*
X155747619Y-109261905D02*
X155700000Y-109214286D01*
X155652381Y-109119048D01*
X155652381Y-108880952D01*
X155700000Y-108785714D01*
X155747619Y-108738095D01*
X155842857Y-108690476D01*
X155938095Y-108690476D01*
X156080952Y-108738095D01*
X156652381Y-109309524D01*
X156652381Y-108690476D01*
X156652381Y-108214286D02*
X156652381Y-108023810D01*
X156604762Y-107928571D01*
X156557143Y-107880952D01*
X156414286Y-107785714D01*
X156223810Y-107738095D01*
X155842857Y-107738095D01*
X155747619Y-107785714D01*
X155700000Y-107833333D01*
X155652381Y-107928571D01*
X155652381Y-108119048D01*
X155700000Y-108214286D01*
X155747619Y-108261905D01*
X155842857Y-108309524D01*
X156080952Y-108309524D01*
X156176190Y-108261905D01*
X156223810Y-108214286D01*
X156271429Y-108119048D01*
X156271429Y-107928571D01*
X156223810Y-107833333D01*
X156176190Y-107785714D01*
X156080952Y-107738095D01*
X183261905Y-87952381D02*
X183261905Y-86952381D01*
X183500000Y-86952381D01*
X183642858Y-87000000D01*
X183738096Y-87095238D01*
X183785715Y-87190476D01*
X183833334Y-87380952D01*
X183833334Y-87523810D01*
X183785715Y-87714286D01*
X183738096Y-87809524D01*
X183642858Y-87904762D01*
X183500000Y-87952381D01*
X183261905Y-87952381D01*
X184785715Y-87952381D02*
X184214286Y-87952381D01*
X184500000Y-87952381D02*
X184500000Y-86952381D01*
X184404762Y-87095238D01*
X184309524Y-87190476D01*
X184214286Y-87238095D01*
X213261905Y-87952381D02*
X213261905Y-86952381D01*
X213500000Y-86952381D01*
X213642858Y-87000000D01*
X213738096Y-87095238D01*
X213785715Y-87190476D01*
X213833334Y-87380952D01*
X213833334Y-87523810D01*
X213785715Y-87714286D01*
X213738096Y-87809524D01*
X213642858Y-87904762D01*
X213500000Y-87952381D01*
X213261905Y-87952381D01*
X214214286Y-87047619D02*
X214261905Y-87000000D01*
X214357143Y-86952381D01*
X214595239Y-86952381D01*
X214690477Y-87000000D01*
X214738096Y-87047619D01*
X214785715Y-87142857D01*
X214785715Y-87238095D01*
X214738096Y-87380952D01*
X214166667Y-87952381D01*
X214785715Y-87952381D01*
X191361905Y-71252381D02*
X191361905Y-70252381D01*
X191600000Y-70252381D01*
X191742858Y-70300000D01*
X191838096Y-70395238D01*
X191885715Y-70490476D01*
X191933334Y-70680952D01*
X191933334Y-70823810D01*
X191885715Y-71014286D01*
X191838096Y-71109524D01*
X191742858Y-71204762D01*
X191600000Y-71252381D01*
X191361905Y-71252381D01*
X192266667Y-70252381D02*
X192885715Y-70252381D01*
X192552381Y-70633333D01*
X192695239Y-70633333D01*
X192790477Y-70680952D01*
X192838096Y-70728571D01*
X192885715Y-70823810D01*
X192885715Y-71061905D01*
X192838096Y-71157143D01*
X192790477Y-71204762D01*
X192695239Y-71252381D01*
X192409524Y-71252381D01*
X192314286Y-71204762D01*
X192266667Y-71157143D01*
X213261905Y-67952381D02*
X213261905Y-66952381D01*
X213500000Y-66952381D01*
X213642858Y-67000000D01*
X213738096Y-67095238D01*
X213785715Y-67190476D01*
X213833334Y-67380952D01*
X213833334Y-67523810D01*
X213785715Y-67714286D01*
X213738096Y-67809524D01*
X213642858Y-67904762D01*
X213500000Y-67952381D01*
X213261905Y-67952381D01*
X214690477Y-67285714D02*
X214690477Y-67952381D01*
X214452381Y-66904762D02*
X214214286Y-67619048D01*
X214833334Y-67619048D01*
X198152381Y-124338095D02*
X197152381Y-124338095D01*
X197152381Y-124100000D01*
X197200000Y-123957142D01*
X197295238Y-123861904D01*
X197390476Y-123814285D01*
X197580952Y-123766666D01*
X197723810Y-123766666D01*
X197914286Y-123814285D01*
X198009524Y-123861904D01*
X198104762Y-123957142D01*
X198152381Y-124100000D01*
X198152381Y-124338095D01*
X197152381Y-122861904D02*
X197152381Y-123338095D01*
X197628571Y-123385714D01*
X197580952Y-123338095D01*
X197533333Y-123242857D01*
X197533333Y-123004761D01*
X197580952Y-122909523D01*
X197628571Y-122861904D01*
X197723810Y-122814285D01*
X197961905Y-122814285D01*
X198057143Y-122861904D01*
X198104762Y-122909523D01*
X198152381Y-123004761D01*
X198152381Y-123242857D01*
X198104762Y-123338095D01*
X198057143Y-123385714D01*
X191861905Y-123542381D02*
X191861905Y-122542381D01*
X192100000Y-122542381D01*
X192242858Y-122590000D01*
X192338096Y-122685238D01*
X192385715Y-122780476D01*
X192433334Y-122970952D01*
X192433334Y-123113810D01*
X192385715Y-123304286D01*
X192338096Y-123399524D01*
X192242858Y-123494762D01*
X192100000Y-123542381D01*
X191861905Y-123542381D01*
X193290477Y-122542381D02*
X193100000Y-122542381D01*
X193004762Y-122590000D01*
X192957143Y-122637619D01*
X192861905Y-122780476D01*
X192814286Y-122970952D01*
X192814286Y-123351905D01*
X192861905Y-123447143D01*
X192909524Y-123494762D01*
X193004762Y-123542381D01*
X193195239Y-123542381D01*
X193290477Y-123494762D01*
X193338096Y-123447143D01*
X193385715Y-123351905D01*
X193385715Y-123113810D01*
X193338096Y-123018571D01*
X193290477Y-122970952D01*
X193195239Y-122923333D01*
X193004762Y-122923333D01*
X192909524Y-122970952D01*
X192861905Y-123018571D01*
X192814286Y-123113810D01*
X152252381Y-100138095D02*
X151252381Y-100138095D01*
X151252381Y-99900000D01*
X151300000Y-99757142D01*
X151395238Y-99661904D01*
X151490476Y-99614285D01*
X151680952Y-99566666D01*
X151823810Y-99566666D01*
X152014286Y-99614285D01*
X152109524Y-99661904D01*
X152204762Y-99757142D01*
X152252381Y-99900000D01*
X152252381Y-100138095D01*
X151252381Y-99233333D02*
X151252381Y-98566666D01*
X152252381Y-98995238D01*
X122952381Y-110838095D02*
X121952381Y-110838095D01*
X121952381Y-110600000D01*
X122000000Y-110457142D01*
X122095238Y-110361904D01*
X122190476Y-110314285D01*
X122380952Y-110266666D01*
X122523810Y-110266666D01*
X122714286Y-110314285D01*
X122809524Y-110361904D01*
X122904762Y-110457142D01*
X122952381Y-110600000D01*
X122952381Y-110838095D01*
X122380952Y-109695238D02*
X122333333Y-109790476D01*
X122285714Y-109838095D01*
X122190476Y-109885714D01*
X122142857Y-109885714D01*
X122047619Y-109838095D01*
X122000000Y-109790476D01*
X121952381Y-109695238D01*
X121952381Y-109504761D01*
X122000000Y-109409523D01*
X122047619Y-109361904D01*
X122142857Y-109314285D01*
X122190476Y-109314285D01*
X122285714Y-109361904D01*
X122333333Y-109409523D01*
X122380952Y-109504761D01*
X122380952Y-109695238D01*
X122428571Y-109790476D01*
X122476190Y-109838095D01*
X122571429Y-109885714D01*
X122761905Y-109885714D01*
X122857143Y-109838095D01*
X122904762Y-109790476D01*
X122952381Y-109695238D01*
X122952381Y-109504761D01*
X122904762Y-109409523D01*
X122857143Y-109361904D01*
X122761905Y-109314285D01*
X122571429Y-109314285D01*
X122476190Y-109361904D01*
X122428571Y-109409523D01*
X122380952Y-109504761D01*
X123052381Y-132038095D02*
X122052381Y-132038095D01*
X122052381Y-131800000D01*
X122100000Y-131657142D01*
X122195238Y-131561904D01*
X122290476Y-131514285D01*
X122480952Y-131466666D01*
X122623810Y-131466666D01*
X122814286Y-131514285D01*
X122909524Y-131561904D01*
X123004762Y-131657142D01*
X123052381Y-131800000D01*
X123052381Y-132038095D01*
X123052381Y-130990476D02*
X123052381Y-130800000D01*
X123004762Y-130704761D01*
X122957143Y-130657142D01*
X122814286Y-130561904D01*
X122623810Y-130514285D01*
X122242857Y-130514285D01*
X122147619Y-130561904D01*
X122100000Y-130609523D01*
X122052381Y-130704761D01*
X122052381Y-130895238D01*
X122100000Y-130990476D01*
X122147619Y-131038095D01*
X122242857Y-131085714D01*
X122480952Y-131085714D01*
X122576190Y-131038095D01*
X122623810Y-130990476D01*
X122671429Y-130895238D01*
X122671429Y-130704761D01*
X122623810Y-130609523D01*
X122576190Y-130561904D01*
X122480952Y-130514285D01*
X154585714Y-119852381D02*
X154585714Y-118852381D01*
X154823809Y-118852381D01*
X154966667Y-118900000D01*
X155061905Y-118995238D01*
X155109524Y-119090476D01*
X155157143Y-119280952D01*
X155157143Y-119423810D01*
X155109524Y-119614286D01*
X155061905Y-119709524D01*
X154966667Y-119804762D01*
X154823809Y-119852381D01*
X154585714Y-119852381D01*
X156109524Y-119852381D02*
X155538095Y-119852381D01*
X155823809Y-119852381D02*
X155823809Y-118852381D01*
X155728571Y-118995238D01*
X155633333Y-119090476D01*
X155538095Y-119138095D01*
X156728571Y-118852381D02*
X156823810Y-118852381D01*
X156919048Y-118900000D01*
X156966667Y-118947619D01*
X157014286Y-119042857D01*
X157061905Y-119233333D01*
X157061905Y-119471429D01*
X157014286Y-119661905D01*
X156966667Y-119757143D01*
X156919048Y-119804762D01*
X156823810Y-119852381D01*
X156728571Y-119852381D01*
X156633333Y-119804762D01*
X156585714Y-119757143D01*
X156538095Y-119661905D01*
X156490476Y-119471429D01*
X156490476Y-119233333D01*
X156538095Y-119042857D01*
X156585714Y-118947619D01*
X156633333Y-118900000D01*
X156728571Y-118852381D01*
X154585714Y-112502381D02*
X154585714Y-111502381D01*
X154823809Y-111502381D01*
X154966667Y-111550000D01*
X155061905Y-111645238D01*
X155109524Y-111740476D01*
X155157143Y-111930952D01*
X155157143Y-112073810D01*
X155109524Y-112264286D01*
X155061905Y-112359524D01*
X154966667Y-112454762D01*
X154823809Y-112502381D01*
X154585714Y-112502381D01*
X156109524Y-112502381D02*
X155538095Y-112502381D01*
X155823809Y-112502381D02*
X155823809Y-111502381D01*
X155728571Y-111645238D01*
X155633333Y-111740476D01*
X155538095Y-111788095D01*
X157061905Y-112502381D02*
X156490476Y-112502381D01*
X156776190Y-112502381D02*
X156776190Y-111502381D01*
X156680952Y-111645238D01*
X156585714Y-111740476D01*
X156490476Y-111788095D01*
X154585714Y-116102381D02*
X154585714Y-115102381D01*
X154823809Y-115102381D01*
X154966667Y-115150000D01*
X155061905Y-115245238D01*
X155109524Y-115340476D01*
X155157143Y-115530952D01*
X155157143Y-115673810D01*
X155109524Y-115864286D01*
X155061905Y-115959524D01*
X154966667Y-116054762D01*
X154823809Y-116102381D01*
X154585714Y-116102381D01*
X156109524Y-116102381D02*
X155538095Y-116102381D01*
X155823809Y-116102381D02*
X155823809Y-115102381D01*
X155728571Y-115245238D01*
X155633333Y-115340476D01*
X155538095Y-115388095D01*
X156490476Y-115197619D02*
X156538095Y-115150000D01*
X156633333Y-115102381D01*
X156871429Y-115102381D01*
X156966667Y-115150000D01*
X157014286Y-115197619D01*
X157061905Y-115292857D01*
X157061905Y-115388095D01*
X157014286Y-115530952D01*
X156442857Y-116102381D01*
X157061905Y-116102381D01*
X124452381Y-73214286D02*
X123452381Y-73214286D01*
X123452381Y-72976191D01*
X123500000Y-72833333D01*
X123595238Y-72738095D01*
X123690476Y-72690476D01*
X123880952Y-72642857D01*
X124023810Y-72642857D01*
X124214286Y-72690476D01*
X124309524Y-72738095D01*
X124404762Y-72833333D01*
X124452381Y-72976191D01*
X124452381Y-73214286D01*
X124452381Y-71690476D02*
X124452381Y-72261905D01*
X124452381Y-71976191D02*
X123452381Y-71976191D01*
X123595238Y-72071429D01*
X123690476Y-72166667D01*
X123738095Y-72261905D01*
X123452381Y-71357143D02*
X123452381Y-70738095D01*
X123833333Y-71071429D01*
X123833333Y-70928571D01*
X123880952Y-70833333D01*
X123928571Y-70785714D01*
X124023810Y-70738095D01*
X124261905Y-70738095D01*
X124357143Y-70785714D01*
X124404762Y-70833333D01*
X124452381Y-70928571D01*
X124452381Y-71214286D01*
X124404762Y-71309524D01*
X124357143Y-71357143D01*
X133452381Y-74314286D02*
X132452381Y-74314286D01*
X132452381Y-74076191D01*
X132500000Y-73933333D01*
X132595238Y-73838095D01*
X132690476Y-73790476D01*
X132880952Y-73742857D01*
X133023810Y-73742857D01*
X133214286Y-73790476D01*
X133309524Y-73838095D01*
X133404762Y-73933333D01*
X133452381Y-74076191D01*
X133452381Y-74314286D01*
X133452381Y-72790476D02*
X133452381Y-73361905D01*
X133452381Y-73076191D02*
X132452381Y-73076191D01*
X132595238Y-73171429D01*
X132690476Y-73266667D01*
X132738095Y-73361905D01*
X132785714Y-71933333D02*
X133452381Y-71933333D01*
X132404762Y-72171429D02*
X133119048Y-72409524D01*
X133119048Y-71790476D01*
X130652381Y-74814286D02*
X129652381Y-74814286D01*
X129652381Y-74576191D01*
X129700000Y-74433333D01*
X129795238Y-74338095D01*
X129890476Y-74290476D01*
X130080952Y-74242857D01*
X130223810Y-74242857D01*
X130414286Y-74290476D01*
X130509524Y-74338095D01*
X130604762Y-74433333D01*
X130652381Y-74576191D01*
X130652381Y-74814286D01*
X130652381Y-73290476D02*
X130652381Y-73861905D01*
X130652381Y-73576191D02*
X129652381Y-73576191D01*
X129795238Y-73671429D01*
X129890476Y-73766667D01*
X129938095Y-73861905D01*
X129652381Y-72385714D02*
X129652381Y-72861905D01*
X130128571Y-72909524D01*
X130080952Y-72861905D01*
X130033333Y-72766667D01*
X130033333Y-72528571D01*
X130080952Y-72433333D01*
X130128571Y-72385714D01*
X130223810Y-72338095D01*
X130461905Y-72338095D01*
X130557143Y-72385714D01*
X130604762Y-72433333D01*
X130652381Y-72528571D01*
X130652381Y-72766667D01*
X130604762Y-72861905D01*
X130557143Y-72909524D01*
X122052381Y-74814286D02*
X121052381Y-74814286D01*
X121052381Y-74576191D01*
X121100000Y-74433333D01*
X121195238Y-74338095D01*
X121290476Y-74290476D01*
X121480952Y-74242857D01*
X121623810Y-74242857D01*
X121814286Y-74290476D01*
X121909524Y-74338095D01*
X122004762Y-74433333D01*
X122052381Y-74576191D01*
X122052381Y-74814286D01*
X122052381Y-73290476D02*
X122052381Y-73861905D01*
X122052381Y-73576191D02*
X121052381Y-73576191D01*
X121195238Y-73671429D01*
X121290476Y-73766667D01*
X121338095Y-73861905D01*
X121052381Y-72433333D02*
X121052381Y-72623810D01*
X121100000Y-72719048D01*
X121147619Y-72766667D01*
X121290476Y-72861905D01*
X121480952Y-72909524D01*
X121861905Y-72909524D01*
X121957143Y-72861905D01*
X122004762Y-72814286D01*
X122052381Y-72719048D01*
X122052381Y-72528571D01*
X122004762Y-72433333D01*
X121957143Y-72385714D01*
X121861905Y-72338095D01*
X121623810Y-72338095D01*
X121528571Y-72385714D01*
X121480952Y-72433333D01*
X121433333Y-72528571D01*
X121433333Y-72719048D01*
X121480952Y-72814286D01*
X121528571Y-72861905D01*
X121623810Y-72909524D01*
X122785714Y-86352381D02*
X122785714Y-85352381D01*
X123023809Y-85352381D01*
X123166667Y-85400000D01*
X123261905Y-85495238D01*
X123309524Y-85590476D01*
X123357143Y-85780952D01*
X123357143Y-85923810D01*
X123309524Y-86114286D01*
X123261905Y-86209524D01*
X123166667Y-86304762D01*
X123023809Y-86352381D01*
X122785714Y-86352381D01*
X124309524Y-86352381D02*
X123738095Y-86352381D01*
X124023809Y-86352381D02*
X124023809Y-85352381D01*
X123928571Y-85495238D01*
X123833333Y-85590476D01*
X123738095Y-85638095D01*
X124642857Y-85352381D02*
X125309524Y-85352381D01*
X124880952Y-86352381D01*
X121585714Y-107252381D02*
X121585714Y-106252381D01*
X121823809Y-106252381D01*
X121966667Y-106300000D01*
X122061905Y-106395238D01*
X122109524Y-106490476D01*
X122157143Y-106680952D01*
X122157143Y-106823810D01*
X122109524Y-107014286D01*
X122061905Y-107109524D01*
X121966667Y-107204762D01*
X121823809Y-107252381D01*
X121585714Y-107252381D01*
X123109524Y-107252381D02*
X122538095Y-107252381D01*
X122823809Y-107252381D02*
X122823809Y-106252381D01*
X122728571Y-106395238D01*
X122633333Y-106490476D01*
X122538095Y-106538095D01*
X123680952Y-106680952D02*
X123585714Y-106633333D01*
X123538095Y-106585714D01*
X123490476Y-106490476D01*
X123490476Y-106442857D01*
X123538095Y-106347619D01*
X123585714Y-106300000D01*
X123680952Y-106252381D01*
X123871429Y-106252381D01*
X123966667Y-106300000D01*
X124014286Y-106347619D01*
X124061905Y-106442857D01*
X124061905Y-106490476D01*
X124014286Y-106585714D01*
X123966667Y-106633333D01*
X123871429Y-106680952D01*
X123680952Y-106680952D01*
X123585714Y-106728571D01*
X123538095Y-106776190D01*
X123490476Y-106871429D01*
X123490476Y-107061905D01*
X123538095Y-107157143D01*
X123585714Y-107204762D01*
X123680952Y-107252381D01*
X123871429Y-107252381D01*
X123966667Y-107204762D01*
X124014286Y-107157143D01*
X124061905Y-107061905D01*
X124061905Y-106871429D01*
X124014286Y-106776190D01*
X123966667Y-106728571D01*
X123871429Y-106680952D01*
X150252381Y-109614286D02*
X149252381Y-109614286D01*
X149252381Y-109376191D01*
X149300000Y-109233333D01*
X149395238Y-109138095D01*
X149490476Y-109090476D01*
X149680952Y-109042857D01*
X149823810Y-109042857D01*
X150014286Y-109090476D01*
X150109524Y-109138095D01*
X150204762Y-109233333D01*
X150252381Y-109376191D01*
X150252381Y-109614286D01*
X150252381Y-108090476D02*
X150252381Y-108661905D01*
X150252381Y-108376191D02*
X149252381Y-108376191D01*
X149395238Y-108471429D01*
X149490476Y-108566667D01*
X149538095Y-108661905D01*
X150252381Y-107614286D02*
X150252381Y-107423810D01*
X150204762Y-107328571D01*
X150157143Y-107280952D01*
X150014286Y-107185714D01*
X149823810Y-107138095D01*
X149442857Y-107138095D01*
X149347619Y-107185714D01*
X149300000Y-107233333D01*
X149252381Y-107328571D01*
X149252381Y-107519048D01*
X149300000Y-107614286D01*
X149347619Y-107661905D01*
X149442857Y-107709524D01*
X149680952Y-107709524D01*
X149776190Y-107661905D01*
X149823810Y-107614286D01*
X149871429Y-107519048D01*
X149871429Y-107328571D01*
X149823810Y-107233333D01*
X149776190Y-107185714D01*
X149680952Y-107138095D01*
X205666667Y-135528571D02*
X205333333Y-135528571D01*
X205333333Y-136052381D02*
X205333333Y-135052381D01*
X205809524Y-135052381D01*
X206714286Y-136052381D02*
X206142857Y-136052381D01*
X206428571Y-136052381D02*
X206428571Y-135052381D01*
X206333333Y-135195238D01*
X206238095Y-135290476D01*
X206142857Y-135338095D01*
X169552381Y-131966666D02*
X169552381Y-132442857D01*
X168552381Y-132442857D01*
X169552381Y-131109523D02*
X169552381Y-131680952D01*
X169552381Y-131395238D02*
X168552381Y-131395238D01*
X168695238Y-131490476D01*
X168790476Y-131585714D01*
X168838095Y-131680952D01*
X229652381Y-133238095D02*
X228652381Y-133238095D01*
X228652381Y-132857142D01*
X228700000Y-132761904D01*
X228747619Y-132714285D01*
X228842857Y-132666666D01*
X228985714Y-132666666D01*
X229080952Y-132714285D01*
X229128571Y-132761904D01*
X229176190Y-132857142D01*
X229176190Y-133238095D01*
X229652381Y-131714285D02*
X229652381Y-132285714D01*
X229652381Y-132000000D02*
X228652381Y-132000000D01*
X228795238Y-132095238D01*
X228890476Y-132190476D01*
X228938095Y-132285714D01*
X222852381Y-90038095D02*
X221852381Y-90038095D01*
X221852381Y-89657142D01*
X221900000Y-89561904D01*
X221947619Y-89514285D01*
X222042857Y-89466666D01*
X222185714Y-89466666D01*
X222280952Y-89514285D01*
X222328571Y-89561904D01*
X222376190Y-89657142D01*
X222376190Y-90038095D01*
X221947619Y-89085714D02*
X221900000Y-89038095D01*
X221852381Y-88942857D01*
X221852381Y-88704761D01*
X221900000Y-88609523D01*
X221947619Y-88561904D01*
X222042857Y-88514285D01*
X222138095Y-88514285D01*
X222280952Y-88561904D01*
X222852381Y-89133333D01*
X222852381Y-88514285D01*
X222152381Y-105638095D02*
X221152381Y-105638095D01*
X221152381Y-105257142D01*
X221200000Y-105161904D01*
X221247619Y-105114285D01*
X221342857Y-105066666D01*
X221485714Y-105066666D01*
X221580952Y-105114285D01*
X221628571Y-105161904D01*
X221676190Y-105257142D01*
X221676190Y-105638095D01*
X221152381Y-104733333D02*
X221152381Y-104114285D01*
X221533333Y-104447619D01*
X221533333Y-104304761D01*
X221580952Y-104209523D01*
X221628571Y-104161904D01*
X221723810Y-104114285D01*
X221961905Y-104114285D01*
X222057143Y-104161904D01*
X222104762Y-104209523D01*
X222152381Y-104304761D01*
X222152381Y-104590476D01*
X222104762Y-104685714D01*
X222057143Y-104733333D01*
X121252381Y-57238095D02*
X120252381Y-57238095D01*
X120252381Y-56857142D01*
X120300000Y-56761904D01*
X120347619Y-56714285D01*
X120442857Y-56666666D01*
X120585714Y-56666666D01*
X120680952Y-56714285D01*
X120728571Y-56761904D01*
X120776190Y-56857142D01*
X120776190Y-57238095D01*
X120585714Y-55809523D02*
X121252381Y-55809523D01*
X120204762Y-56047619D02*
X120919048Y-56285714D01*
X120919048Y-55666666D01*
X121252381Y-88338095D02*
X120252381Y-88338095D01*
X120252381Y-87957142D01*
X120300000Y-87861904D01*
X120347619Y-87814285D01*
X120442857Y-87766666D01*
X120585714Y-87766666D01*
X120680952Y-87814285D01*
X120728571Y-87861904D01*
X120776190Y-87957142D01*
X120776190Y-88338095D01*
X120252381Y-86861904D02*
X120252381Y-87338095D01*
X120728571Y-87385714D01*
X120680952Y-87338095D01*
X120633333Y-87242857D01*
X120633333Y-87004761D01*
X120680952Y-86909523D01*
X120728571Y-86861904D01*
X120823810Y-86814285D01*
X121061905Y-86814285D01*
X121157143Y-86861904D01*
X121204762Y-86909523D01*
X121252381Y-87004761D01*
X121252381Y-87242857D01*
X121204762Y-87338095D01*
X121157143Y-87385714D01*
X121152381Y-108338095D02*
X120152381Y-108338095D01*
X120152381Y-107957142D01*
X120200000Y-107861904D01*
X120247619Y-107814285D01*
X120342857Y-107766666D01*
X120485714Y-107766666D01*
X120580952Y-107814285D01*
X120628571Y-107861904D01*
X120676190Y-107957142D01*
X120676190Y-108338095D01*
X120152381Y-106909523D02*
X120152381Y-107100000D01*
X120200000Y-107195238D01*
X120247619Y-107242857D01*
X120390476Y-107338095D01*
X120580952Y-107385714D01*
X120961905Y-107385714D01*
X121057143Y-107338095D01*
X121104762Y-107290476D01*
X121152381Y-107195238D01*
X121152381Y-107004761D01*
X121104762Y-106909523D01*
X121057143Y-106861904D01*
X120961905Y-106814285D01*
X120723810Y-106814285D01*
X120628571Y-106861904D01*
X120580952Y-106909523D01*
X120533333Y-107004761D01*
X120533333Y-107195238D01*
X120580952Y-107290476D01*
X120628571Y-107338095D01*
X120723810Y-107385714D01*
X138852381Y-62938095D02*
X137852381Y-62938095D01*
X137852381Y-62557142D01*
X137900000Y-62461904D01*
X137947619Y-62414285D01*
X138042857Y-62366666D01*
X138185714Y-62366666D01*
X138280952Y-62414285D01*
X138328571Y-62461904D01*
X138376190Y-62557142D01*
X138376190Y-62938095D01*
X137852381Y-62033333D02*
X137852381Y-61366666D01*
X138852381Y-61795238D01*
X177133619Y-100095238D02*
X177086000Y-100190476D01*
X176990762Y-100285714D01*
X176847905Y-100428571D01*
X176800286Y-100523810D01*
X176800286Y-100619048D01*
X177038381Y-100571429D02*
X176990762Y-100666667D01*
X176895524Y-100761905D01*
X176705048Y-100809524D01*
X176371714Y-100809524D01*
X176181238Y-100761905D01*
X176086000Y-100666667D01*
X176038381Y-100571429D01*
X176038381Y-100380952D01*
X176086000Y-100285714D01*
X176181238Y-100190476D01*
X176371714Y-100142857D01*
X176705048Y-100142857D01*
X176895524Y-100190476D01*
X176990762Y-100285714D01*
X177038381Y-100380952D01*
X177038381Y-100571429D01*
X177038381Y-99190476D02*
X177038381Y-99761905D01*
X177038381Y-99476191D02*
X176038381Y-99476191D01*
X176181238Y-99571429D01*
X176276476Y-99666667D01*
X176324095Y-99761905D01*
X207133619Y-100095238D02*
X207086000Y-100190476D01*
X206990762Y-100285714D01*
X206847905Y-100428571D01*
X206800286Y-100523810D01*
X206800286Y-100619048D01*
X207038381Y-100571429D02*
X206990762Y-100666667D01*
X206895524Y-100761905D01*
X206705048Y-100809524D01*
X206371714Y-100809524D01*
X206181238Y-100761905D01*
X206086000Y-100666667D01*
X206038381Y-100571429D01*
X206038381Y-100380952D01*
X206086000Y-100285714D01*
X206181238Y-100190476D01*
X206371714Y-100142857D01*
X206705048Y-100142857D01*
X206895524Y-100190476D01*
X206990762Y-100285714D01*
X207038381Y-100380952D01*
X207038381Y-100571429D01*
X206133619Y-99761905D02*
X206086000Y-99714286D01*
X206038381Y-99619048D01*
X206038381Y-99380952D01*
X206086000Y-99285714D01*
X206133619Y-99238095D01*
X206228857Y-99190476D01*
X206324095Y-99190476D01*
X206466952Y-99238095D01*
X207038381Y-99809524D01*
X207038381Y-99190476D01*
X177133619Y-63095238D02*
X177086000Y-63190476D01*
X176990762Y-63285714D01*
X176847905Y-63428571D01*
X176800286Y-63523810D01*
X176800286Y-63619048D01*
X177038381Y-63571429D02*
X176990762Y-63666667D01*
X176895524Y-63761905D01*
X176705048Y-63809524D01*
X176371714Y-63809524D01*
X176181238Y-63761905D01*
X176086000Y-63666667D01*
X176038381Y-63571429D01*
X176038381Y-63380952D01*
X176086000Y-63285714D01*
X176181238Y-63190476D01*
X176371714Y-63142857D01*
X176705048Y-63142857D01*
X176895524Y-63190476D01*
X176990762Y-63285714D01*
X177038381Y-63380952D01*
X177038381Y-63571429D01*
X176038381Y-62809524D02*
X176038381Y-62190476D01*
X176419333Y-62523810D01*
X176419333Y-62380952D01*
X176466952Y-62285714D01*
X176514571Y-62238095D01*
X176609810Y-62190476D01*
X176847905Y-62190476D01*
X176943143Y-62238095D01*
X176990762Y-62285714D01*
X177038381Y-62380952D01*
X177038381Y-62666667D01*
X176990762Y-62761905D01*
X176943143Y-62809524D01*
X207133619Y-63095238D02*
X207086000Y-63190476D01*
X206990762Y-63285714D01*
X206847905Y-63428571D01*
X206800286Y-63523810D01*
X206800286Y-63619048D01*
X207038381Y-63571429D02*
X206990762Y-63666667D01*
X206895524Y-63761905D01*
X206705048Y-63809524D01*
X206371714Y-63809524D01*
X206181238Y-63761905D01*
X206086000Y-63666667D01*
X206038381Y-63571429D01*
X206038381Y-63380952D01*
X206086000Y-63285714D01*
X206181238Y-63190476D01*
X206371714Y-63142857D01*
X206705048Y-63142857D01*
X206895524Y-63190476D01*
X206990762Y-63285714D01*
X207038381Y-63380952D01*
X207038381Y-63571429D01*
X206371714Y-62285714D02*
X207038381Y-62285714D01*
X205990762Y-62523810D02*
X206705048Y-62761905D01*
X206705048Y-62142857D01*
X150104762Y-111947619D02*
X150009524Y-111900000D01*
X149914286Y-111804762D01*
X149771429Y-111661905D01*
X149676190Y-111614286D01*
X149580952Y-111614286D01*
X149628571Y-111852381D02*
X149533333Y-111804762D01*
X149438095Y-111709524D01*
X149390476Y-111519048D01*
X149390476Y-111185714D01*
X149438095Y-110995238D01*
X149533333Y-110900000D01*
X149628571Y-110852381D01*
X149819048Y-110852381D01*
X149914286Y-110900000D01*
X150009524Y-110995238D01*
X150057143Y-111185714D01*
X150057143Y-111519048D01*
X150009524Y-111709524D01*
X149914286Y-111804762D01*
X149819048Y-111852381D01*
X149628571Y-111852381D01*
X150961905Y-110852381D02*
X150485714Y-110852381D01*
X150438095Y-111328571D01*
X150485714Y-111280952D01*
X150580952Y-111233333D01*
X150819048Y-111233333D01*
X150914286Y-111280952D01*
X150961905Y-111328571D01*
X151009524Y-111423810D01*
X151009524Y-111661905D01*
X150961905Y-111757143D01*
X150914286Y-111804762D01*
X150819048Y-111852381D01*
X150580952Y-111852381D01*
X150485714Y-111804762D01*
X150438095Y-111757143D01*
X150104762Y-120547619D02*
X150009524Y-120500000D01*
X149914286Y-120404762D01*
X149771429Y-120261905D01*
X149676190Y-120214286D01*
X149580952Y-120214286D01*
X149628571Y-120452381D02*
X149533333Y-120404762D01*
X149438095Y-120309524D01*
X149390476Y-120119048D01*
X149390476Y-119785714D01*
X149438095Y-119595238D01*
X149533333Y-119500000D01*
X149628571Y-119452381D01*
X149819048Y-119452381D01*
X149914286Y-119500000D01*
X150009524Y-119595238D01*
X150057143Y-119785714D01*
X150057143Y-120119048D01*
X150009524Y-120309524D01*
X149914286Y-120404762D01*
X149819048Y-120452381D01*
X149628571Y-120452381D01*
X150914286Y-119452381D02*
X150723809Y-119452381D01*
X150628571Y-119500000D01*
X150580952Y-119547619D01*
X150485714Y-119690476D01*
X150438095Y-119880952D01*
X150438095Y-120261905D01*
X150485714Y-120357143D01*
X150533333Y-120404762D01*
X150628571Y-120452381D01*
X150819048Y-120452381D01*
X150914286Y-120404762D01*
X150961905Y-120357143D01*
X151009524Y-120261905D01*
X151009524Y-120023810D01*
X150961905Y-119928571D01*
X150914286Y-119880952D01*
X150819048Y-119833333D01*
X150628571Y-119833333D01*
X150533333Y-119880952D01*
X150485714Y-119928571D01*
X150438095Y-120023810D01*
X191833334Y-105752381D02*
X191500000Y-105276190D01*
X191261905Y-105752381D02*
X191261905Y-104752381D01*
X191642858Y-104752381D01*
X191738096Y-104800000D01*
X191785715Y-104847619D01*
X191833334Y-104942857D01*
X191833334Y-105085714D01*
X191785715Y-105180952D01*
X191738096Y-105228571D01*
X191642858Y-105276190D01*
X191261905Y-105276190D01*
X192785715Y-105752381D02*
X192214286Y-105752381D01*
X192500000Y-105752381D02*
X192500000Y-104752381D01*
X192404762Y-104895238D01*
X192309524Y-104990476D01*
X192214286Y-105038095D01*
X216052381Y-106766666D02*
X215576190Y-107100000D01*
X216052381Y-107338095D02*
X215052381Y-107338095D01*
X215052381Y-106957142D01*
X215100000Y-106861904D01*
X215147619Y-106814285D01*
X215242857Y-106766666D01*
X215385714Y-106766666D01*
X215480952Y-106814285D01*
X215528571Y-106861904D01*
X215576190Y-106957142D01*
X215576190Y-107338095D01*
X215147619Y-106385714D02*
X215100000Y-106338095D01*
X215052381Y-106242857D01*
X215052381Y-106004761D01*
X215100000Y-105909523D01*
X215147619Y-105861904D01*
X215242857Y-105814285D01*
X215338095Y-105814285D01*
X215480952Y-105861904D01*
X216052381Y-106433333D01*
X216052381Y-105814285D01*
X189852381Y-122166666D02*
X189376190Y-122500000D01*
X189852381Y-122738095D02*
X188852381Y-122738095D01*
X188852381Y-122357142D01*
X188900000Y-122261904D01*
X188947619Y-122214285D01*
X189042857Y-122166666D01*
X189185714Y-122166666D01*
X189280952Y-122214285D01*
X189328571Y-122261904D01*
X189376190Y-122357142D01*
X189376190Y-122738095D01*
X188852381Y-121833333D02*
X188852381Y-121214285D01*
X189233333Y-121547619D01*
X189233333Y-121404761D01*
X189280952Y-121309523D01*
X189328571Y-121261904D01*
X189423810Y-121214285D01*
X189661905Y-121214285D01*
X189757143Y-121261904D01*
X189804762Y-121309523D01*
X189852381Y-121404761D01*
X189852381Y-121690476D01*
X189804762Y-121785714D01*
X189757143Y-121833333D01*
X187052381Y-119566666D02*
X186576190Y-119900000D01*
X187052381Y-120138095D02*
X186052381Y-120138095D01*
X186052381Y-119757142D01*
X186100000Y-119661904D01*
X186147619Y-119614285D01*
X186242857Y-119566666D01*
X186385714Y-119566666D01*
X186480952Y-119614285D01*
X186528571Y-119661904D01*
X186576190Y-119757142D01*
X186576190Y-120138095D01*
X186385714Y-118709523D02*
X187052381Y-118709523D01*
X186004762Y-118947619D02*
X186719048Y-119185714D01*
X186719048Y-118566666D01*
X182933334Y-122652381D02*
X182600000Y-122176190D01*
X182361905Y-122652381D02*
X182361905Y-121652381D01*
X182742858Y-121652381D01*
X182838096Y-121700000D01*
X182885715Y-121747619D01*
X182933334Y-121842857D01*
X182933334Y-121985714D01*
X182885715Y-122080952D01*
X182838096Y-122128571D01*
X182742858Y-122176190D01*
X182361905Y-122176190D01*
X183838096Y-121652381D02*
X183361905Y-121652381D01*
X183314286Y-122128571D01*
X183361905Y-122080952D01*
X183457143Y-122033333D01*
X183695239Y-122033333D01*
X183790477Y-122080952D01*
X183838096Y-122128571D01*
X183885715Y-122223810D01*
X183885715Y-122461905D01*
X183838096Y-122557143D01*
X183790477Y-122604762D01*
X183695239Y-122652381D01*
X183457143Y-122652381D01*
X183361905Y-122604762D01*
X183314286Y-122557143D01*
X161352381Y-92166666D02*
X160876190Y-92500000D01*
X161352381Y-92738095D02*
X160352381Y-92738095D01*
X160352381Y-92357142D01*
X160400000Y-92261904D01*
X160447619Y-92214285D01*
X160542857Y-92166666D01*
X160685714Y-92166666D01*
X160780952Y-92214285D01*
X160828571Y-92261904D01*
X160876190Y-92357142D01*
X160876190Y-92738095D01*
X160352381Y-91309523D02*
X160352381Y-91500000D01*
X160400000Y-91595238D01*
X160447619Y-91642857D01*
X160590476Y-91738095D01*
X160780952Y-91785714D01*
X161161905Y-91785714D01*
X161257143Y-91738095D01*
X161304762Y-91690476D01*
X161352381Y-91595238D01*
X161352381Y-91404761D01*
X161304762Y-91309523D01*
X161257143Y-91261904D01*
X161161905Y-91214285D01*
X160923810Y-91214285D01*
X160828571Y-91261904D01*
X160780952Y-91309523D01*
X160733333Y-91404761D01*
X160733333Y-91595238D01*
X160780952Y-91690476D01*
X160828571Y-91738095D01*
X160923810Y-91785714D01*
X173733334Y-120052381D02*
X173400000Y-119576190D01*
X173161905Y-120052381D02*
X173161905Y-119052381D01*
X173542858Y-119052381D01*
X173638096Y-119100000D01*
X173685715Y-119147619D01*
X173733334Y-119242857D01*
X173733334Y-119385714D01*
X173685715Y-119480952D01*
X173638096Y-119528571D01*
X173542858Y-119576190D01*
X173161905Y-119576190D01*
X174066667Y-119052381D02*
X174733334Y-119052381D01*
X174304762Y-120052381D01*
X191833334Y-67952381D02*
X191500000Y-67476190D01*
X191261905Y-67952381D02*
X191261905Y-66952381D01*
X191642858Y-66952381D01*
X191738096Y-67000000D01*
X191785715Y-67047619D01*
X191833334Y-67142857D01*
X191833334Y-67285714D01*
X191785715Y-67380952D01*
X191738096Y-67428571D01*
X191642858Y-67476190D01*
X191261905Y-67476190D01*
X192404762Y-67380952D02*
X192309524Y-67333333D01*
X192261905Y-67285714D01*
X192214286Y-67190476D01*
X192214286Y-67142857D01*
X192261905Y-67047619D01*
X192309524Y-67000000D01*
X192404762Y-66952381D01*
X192595239Y-66952381D01*
X192690477Y-67000000D01*
X192738096Y-67047619D01*
X192785715Y-67142857D01*
X192785715Y-67190476D01*
X192738096Y-67285714D01*
X192690477Y-67333333D01*
X192595239Y-67380952D01*
X192404762Y-67380952D01*
X192309524Y-67428571D01*
X192261905Y-67476190D01*
X192214286Y-67571429D01*
X192214286Y-67761905D01*
X192261905Y-67857143D01*
X192309524Y-67904762D01*
X192404762Y-67952381D01*
X192595239Y-67952381D01*
X192690477Y-67904762D01*
X192738096Y-67857143D01*
X192785715Y-67761905D01*
X192785715Y-67571429D01*
X192738096Y-67476190D01*
X192690477Y-67428571D01*
X192595239Y-67380952D01*
X223433334Y-58752381D02*
X223100000Y-58276190D01*
X222861905Y-58752381D02*
X222861905Y-57752381D01*
X223242858Y-57752381D01*
X223338096Y-57800000D01*
X223385715Y-57847619D01*
X223433334Y-57942857D01*
X223433334Y-58085714D01*
X223385715Y-58180952D01*
X223338096Y-58228571D01*
X223242858Y-58276190D01*
X222861905Y-58276190D01*
X223909524Y-58752381D02*
X224100000Y-58752381D01*
X224195239Y-58704762D01*
X224242858Y-58657143D01*
X224338096Y-58514286D01*
X224385715Y-58323810D01*
X224385715Y-57942857D01*
X224338096Y-57847619D01*
X224290477Y-57800000D01*
X224195239Y-57752381D01*
X224004762Y-57752381D01*
X223909524Y-57800000D01*
X223861905Y-57847619D01*
X223814286Y-57942857D01*
X223814286Y-58180952D01*
X223861905Y-58276190D01*
X223909524Y-58323810D01*
X224004762Y-58371429D01*
X224195239Y-58371429D01*
X224290477Y-58323810D01*
X224338096Y-58276190D01*
X224385715Y-58180952D01*
X158757143Y-84652381D02*
X158423809Y-84176190D01*
X158185714Y-84652381D02*
X158185714Y-83652381D01*
X158566667Y-83652381D01*
X158661905Y-83700000D01*
X158709524Y-83747619D01*
X158757143Y-83842857D01*
X158757143Y-83985714D01*
X158709524Y-84080952D01*
X158661905Y-84128571D01*
X158566667Y-84176190D01*
X158185714Y-84176190D01*
X159709524Y-84652381D02*
X159138095Y-84652381D01*
X159423809Y-84652381D02*
X159423809Y-83652381D01*
X159328571Y-83795238D01*
X159233333Y-83890476D01*
X159138095Y-83938095D01*
X160328571Y-83652381D02*
X160423810Y-83652381D01*
X160519048Y-83700000D01*
X160566667Y-83747619D01*
X160614286Y-83842857D01*
X160661905Y-84033333D01*
X160661905Y-84271429D01*
X160614286Y-84461905D01*
X160566667Y-84557143D01*
X160519048Y-84604762D01*
X160423810Y-84652381D01*
X160328571Y-84652381D01*
X160233333Y-84604762D01*
X160185714Y-84557143D01*
X160138095Y-84461905D01*
X160090476Y-84271429D01*
X160090476Y-84033333D01*
X160138095Y-83842857D01*
X160185714Y-83747619D01*
X160233333Y-83700000D01*
X160328571Y-83652381D01*
X158757143Y-82052381D02*
X158423809Y-81576190D01*
X158185714Y-82052381D02*
X158185714Y-81052381D01*
X158566667Y-81052381D01*
X158661905Y-81100000D01*
X158709524Y-81147619D01*
X158757143Y-81242857D01*
X158757143Y-81385714D01*
X158709524Y-81480952D01*
X158661905Y-81528571D01*
X158566667Y-81576190D01*
X158185714Y-81576190D01*
X159709524Y-82052381D02*
X159138095Y-82052381D01*
X159423809Y-82052381D02*
X159423809Y-81052381D01*
X159328571Y-81195238D01*
X159233333Y-81290476D01*
X159138095Y-81338095D01*
X160661905Y-82052381D02*
X160090476Y-82052381D01*
X160376190Y-82052381D02*
X160376190Y-81052381D01*
X160280952Y-81195238D01*
X160185714Y-81290476D01*
X160090476Y-81338095D01*
X168352381Y-126042857D02*
X167876190Y-126376191D01*
X168352381Y-126614286D02*
X167352381Y-126614286D01*
X167352381Y-126233333D01*
X167400000Y-126138095D01*
X167447619Y-126090476D01*
X167542857Y-126042857D01*
X167685714Y-126042857D01*
X167780952Y-126090476D01*
X167828571Y-126138095D01*
X167876190Y-126233333D01*
X167876190Y-126614286D01*
X168352381Y-125090476D02*
X168352381Y-125661905D01*
X168352381Y-125376191D02*
X167352381Y-125376191D01*
X167495238Y-125471429D01*
X167590476Y-125566667D01*
X167638095Y-125661905D01*
X167447619Y-124709524D02*
X167400000Y-124661905D01*
X167352381Y-124566667D01*
X167352381Y-124328571D01*
X167400000Y-124233333D01*
X167447619Y-124185714D01*
X167542857Y-124138095D01*
X167638095Y-124138095D01*
X167780952Y-124185714D01*
X168352381Y-124757143D01*
X168352381Y-124138095D01*
X178357143Y-119452381D02*
X178023809Y-118976190D01*
X177785714Y-119452381D02*
X177785714Y-118452381D01*
X178166667Y-118452381D01*
X178261905Y-118500000D01*
X178309524Y-118547619D01*
X178357143Y-118642857D01*
X178357143Y-118785714D01*
X178309524Y-118880952D01*
X178261905Y-118928571D01*
X178166667Y-118976190D01*
X177785714Y-118976190D01*
X179309524Y-119452381D02*
X178738095Y-119452381D01*
X179023809Y-119452381D02*
X179023809Y-118452381D01*
X178928571Y-118595238D01*
X178833333Y-118690476D01*
X178738095Y-118738095D01*
X179642857Y-118452381D02*
X180261905Y-118452381D01*
X179928571Y-118833333D01*
X180071429Y-118833333D01*
X180166667Y-118880952D01*
X180214286Y-118928571D01*
X180261905Y-119023810D01*
X180261905Y-119261905D01*
X180214286Y-119357143D01*
X180166667Y-119404762D01*
X180071429Y-119452381D01*
X179785714Y-119452381D01*
X179690476Y-119404762D01*
X179642857Y-119357143D01*
X158757143Y-87252381D02*
X158423809Y-86776190D01*
X158185714Y-87252381D02*
X158185714Y-86252381D01*
X158566667Y-86252381D01*
X158661905Y-86300000D01*
X158709524Y-86347619D01*
X158757143Y-86442857D01*
X158757143Y-86585714D01*
X158709524Y-86680952D01*
X158661905Y-86728571D01*
X158566667Y-86776190D01*
X158185714Y-86776190D01*
X159709524Y-87252381D02*
X159138095Y-87252381D01*
X159423809Y-87252381D02*
X159423809Y-86252381D01*
X159328571Y-86395238D01*
X159233333Y-86490476D01*
X159138095Y-86538095D01*
X160566667Y-86585714D02*
X160566667Y-87252381D01*
X160328571Y-86204762D02*
X160090476Y-86919048D01*
X160709524Y-86919048D01*
X158757143Y-79452381D02*
X158423809Y-78976190D01*
X158185714Y-79452381D02*
X158185714Y-78452381D01*
X158566667Y-78452381D01*
X158661905Y-78500000D01*
X158709524Y-78547619D01*
X158757143Y-78642857D01*
X158757143Y-78785714D01*
X158709524Y-78880952D01*
X158661905Y-78928571D01*
X158566667Y-78976190D01*
X158185714Y-78976190D01*
X159709524Y-79452381D02*
X159138095Y-79452381D01*
X159423809Y-79452381D02*
X159423809Y-78452381D01*
X159328571Y-78595238D01*
X159233333Y-78690476D01*
X159138095Y-78738095D01*
X160614286Y-78452381D02*
X160138095Y-78452381D01*
X160090476Y-78928571D01*
X160138095Y-78880952D01*
X160233333Y-78833333D01*
X160471429Y-78833333D01*
X160566667Y-78880952D01*
X160614286Y-78928571D01*
X160661905Y-79023810D01*
X160661905Y-79261905D01*
X160614286Y-79357143D01*
X160566667Y-79404762D01*
X160471429Y-79452381D01*
X160233333Y-79452381D01*
X160138095Y-79404762D01*
X160090476Y-79357143D01*
X155552381Y-95842857D02*
X155076190Y-96176191D01*
X155552381Y-96414286D02*
X154552381Y-96414286D01*
X154552381Y-96033333D01*
X154600000Y-95938095D01*
X154647619Y-95890476D01*
X154742857Y-95842857D01*
X154885714Y-95842857D01*
X154980952Y-95890476D01*
X155028571Y-95938095D01*
X155076190Y-96033333D01*
X155076190Y-96414286D01*
X155552381Y-94890476D02*
X155552381Y-95461905D01*
X155552381Y-95176191D02*
X154552381Y-95176191D01*
X154695238Y-95271429D01*
X154790476Y-95366667D01*
X154838095Y-95461905D01*
X154552381Y-94033333D02*
X154552381Y-94223810D01*
X154600000Y-94319048D01*
X154647619Y-94366667D01*
X154790476Y-94461905D01*
X154980952Y-94509524D01*
X155361905Y-94509524D01*
X155457143Y-94461905D01*
X155504762Y-94414286D01*
X155552381Y-94319048D01*
X155552381Y-94128571D01*
X155504762Y-94033333D01*
X155457143Y-93985714D01*
X155361905Y-93938095D01*
X155123810Y-93938095D01*
X155028571Y-93985714D01*
X154980952Y-94033333D01*
X154933333Y-94128571D01*
X154933333Y-94319048D01*
X154980952Y-94414286D01*
X155028571Y-94461905D01*
X155123810Y-94509524D01*
X143157143Y-57652381D02*
X142823809Y-57176190D01*
X142585714Y-57652381D02*
X142585714Y-56652381D01*
X142966667Y-56652381D01*
X143061905Y-56700000D01*
X143109524Y-56747619D01*
X143157143Y-56842857D01*
X143157143Y-56985714D01*
X143109524Y-57080952D01*
X143061905Y-57128571D01*
X142966667Y-57176190D01*
X142585714Y-57176190D01*
X144109524Y-57652381D02*
X143538095Y-57652381D01*
X143823809Y-57652381D02*
X143823809Y-56652381D01*
X143728571Y-56795238D01*
X143633333Y-56890476D01*
X143538095Y-56938095D01*
X144442857Y-56652381D02*
X145109524Y-56652381D01*
X144680952Y-57652381D01*
X148652381Y-67042857D02*
X148176190Y-67376191D01*
X148652381Y-67614286D02*
X147652381Y-67614286D01*
X147652381Y-67233333D01*
X147700000Y-67138095D01*
X147747619Y-67090476D01*
X147842857Y-67042857D01*
X147985714Y-67042857D01*
X148080952Y-67090476D01*
X148128571Y-67138095D01*
X148176190Y-67233333D01*
X148176190Y-67614286D01*
X148652381Y-66090476D02*
X148652381Y-66661905D01*
X148652381Y-66376191D02*
X147652381Y-66376191D01*
X147795238Y-66471429D01*
X147890476Y-66566667D01*
X147938095Y-66661905D01*
X148080952Y-65519048D02*
X148033333Y-65614286D01*
X147985714Y-65661905D01*
X147890476Y-65709524D01*
X147842857Y-65709524D01*
X147747619Y-65661905D01*
X147700000Y-65614286D01*
X147652381Y-65519048D01*
X147652381Y-65328571D01*
X147700000Y-65233333D01*
X147747619Y-65185714D01*
X147842857Y-65138095D01*
X147890476Y-65138095D01*
X147985714Y-65185714D01*
X148033333Y-65233333D01*
X148080952Y-65328571D01*
X148080952Y-65519048D01*
X148128571Y-65614286D01*
X148176190Y-65661905D01*
X148271429Y-65709524D01*
X148461905Y-65709524D01*
X148557143Y-65661905D01*
X148604762Y-65614286D01*
X148652381Y-65519048D01*
X148652381Y-65328571D01*
X148604762Y-65233333D01*
X148557143Y-65185714D01*
X148461905Y-65138095D01*
X148271429Y-65138095D01*
X148176190Y-65185714D01*
X148128571Y-65233333D01*
X148080952Y-65328571D01*
X151452381Y-66842857D02*
X150976190Y-67176191D01*
X151452381Y-67414286D02*
X150452381Y-67414286D01*
X150452381Y-67033333D01*
X150500000Y-66938095D01*
X150547619Y-66890476D01*
X150642857Y-66842857D01*
X150785714Y-66842857D01*
X150880952Y-66890476D01*
X150928571Y-66938095D01*
X150976190Y-67033333D01*
X150976190Y-67414286D01*
X151452381Y-65890476D02*
X151452381Y-66461905D01*
X151452381Y-66176191D02*
X150452381Y-66176191D01*
X150595238Y-66271429D01*
X150690476Y-66366667D01*
X150738095Y-66461905D01*
X151452381Y-65414286D02*
X151452381Y-65223810D01*
X151404762Y-65128571D01*
X151357143Y-65080952D01*
X151214286Y-64985714D01*
X151023810Y-64938095D01*
X150642857Y-64938095D01*
X150547619Y-64985714D01*
X150500000Y-65033333D01*
X150452381Y-65128571D01*
X150452381Y-65319048D01*
X150500000Y-65414286D01*
X150547619Y-65461905D01*
X150642857Y-65509524D01*
X150880952Y-65509524D01*
X150976190Y-65461905D01*
X151023810Y-65414286D01*
X151071429Y-65319048D01*
X151071429Y-65128571D01*
X151023810Y-65033333D01*
X150976190Y-64985714D01*
X150880952Y-64938095D01*
X154052381Y-67042857D02*
X153576190Y-67376191D01*
X154052381Y-67614286D02*
X153052381Y-67614286D01*
X153052381Y-67233333D01*
X153100000Y-67138095D01*
X153147619Y-67090476D01*
X153242857Y-67042857D01*
X153385714Y-67042857D01*
X153480952Y-67090476D01*
X153528571Y-67138095D01*
X153576190Y-67233333D01*
X153576190Y-67614286D01*
X153147619Y-66661905D02*
X153100000Y-66614286D01*
X153052381Y-66519048D01*
X153052381Y-66280952D01*
X153100000Y-66185714D01*
X153147619Y-66138095D01*
X153242857Y-66090476D01*
X153338095Y-66090476D01*
X153480952Y-66138095D01*
X154052381Y-66709524D01*
X154052381Y-66090476D01*
X153052381Y-65471429D02*
X153052381Y-65376190D01*
X153100000Y-65280952D01*
X153147619Y-65233333D01*
X153242857Y-65185714D01*
X153433333Y-65138095D01*
X153671429Y-65138095D01*
X153861905Y-65185714D01*
X153957143Y-65233333D01*
X154004762Y-65280952D01*
X154052381Y-65376190D01*
X154052381Y-65471429D01*
X154004762Y-65566667D01*
X153957143Y-65614286D01*
X153861905Y-65661905D01*
X153671429Y-65709524D01*
X153433333Y-65709524D01*
X153242857Y-65661905D01*
X153147619Y-65614286D01*
X153100000Y-65566667D01*
X153052381Y-65471429D01*
X130957143Y-126652381D02*
X130623809Y-126176190D01*
X130385714Y-126652381D02*
X130385714Y-125652381D01*
X130766667Y-125652381D01*
X130861905Y-125700000D01*
X130909524Y-125747619D01*
X130957143Y-125842857D01*
X130957143Y-125985714D01*
X130909524Y-126080952D01*
X130861905Y-126128571D01*
X130766667Y-126176190D01*
X130385714Y-126176190D01*
X131338095Y-125747619D02*
X131385714Y-125700000D01*
X131480952Y-125652381D01*
X131719048Y-125652381D01*
X131814286Y-125700000D01*
X131861905Y-125747619D01*
X131909524Y-125842857D01*
X131909524Y-125938095D01*
X131861905Y-126080952D01*
X131290476Y-126652381D01*
X131909524Y-126652381D01*
X132861905Y-126652381D02*
X132290476Y-126652381D01*
X132576190Y-126652381D02*
X132576190Y-125652381D01*
X132480952Y-125795238D01*
X132385714Y-125890476D01*
X132290476Y-125938095D01*
X127852381Y-126842857D02*
X127376190Y-127176191D01*
X127852381Y-127414286D02*
X126852381Y-127414286D01*
X126852381Y-127033333D01*
X126900000Y-126938095D01*
X126947619Y-126890476D01*
X127042857Y-126842857D01*
X127185714Y-126842857D01*
X127280952Y-126890476D01*
X127328571Y-126938095D01*
X127376190Y-127033333D01*
X127376190Y-127414286D01*
X126947619Y-126461905D02*
X126900000Y-126414286D01*
X126852381Y-126319048D01*
X126852381Y-126080952D01*
X126900000Y-125985714D01*
X126947619Y-125938095D01*
X127042857Y-125890476D01*
X127138095Y-125890476D01*
X127280952Y-125938095D01*
X127852381Y-126509524D01*
X127852381Y-125890476D01*
X126947619Y-125509524D02*
X126900000Y-125461905D01*
X126852381Y-125366667D01*
X126852381Y-125128571D01*
X126900000Y-125033333D01*
X126947619Y-124985714D01*
X127042857Y-124938095D01*
X127138095Y-124938095D01*
X127280952Y-124985714D01*
X127852381Y-125557143D01*
X127852381Y-124938095D01*
X130757143Y-134652381D02*
X130423809Y-134176190D01*
X130185714Y-134652381D02*
X130185714Y-133652381D01*
X130566667Y-133652381D01*
X130661905Y-133700000D01*
X130709524Y-133747619D01*
X130757143Y-133842857D01*
X130757143Y-133985714D01*
X130709524Y-134080952D01*
X130661905Y-134128571D01*
X130566667Y-134176190D01*
X130185714Y-134176190D01*
X131138095Y-133747619D02*
X131185714Y-133700000D01*
X131280952Y-133652381D01*
X131519048Y-133652381D01*
X131614286Y-133700000D01*
X131661905Y-133747619D01*
X131709524Y-133842857D01*
X131709524Y-133938095D01*
X131661905Y-134080952D01*
X131090476Y-134652381D01*
X131709524Y-134652381D01*
X132042857Y-133652381D02*
X132661905Y-133652381D01*
X132328571Y-134033333D01*
X132471429Y-134033333D01*
X132566667Y-134080952D01*
X132614286Y-134128571D01*
X132661905Y-134223810D01*
X132661905Y-134461905D01*
X132614286Y-134557143D01*
X132566667Y-134604762D01*
X132471429Y-134652381D01*
X132185714Y-134652381D01*
X132090476Y-134604762D01*
X132042857Y-134557143D01*
X160157143Y-119852381D02*
X159823809Y-119376190D01*
X159585714Y-119852381D02*
X159585714Y-118852381D01*
X159966667Y-118852381D01*
X160061905Y-118900000D01*
X160109524Y-118947619D01*
X160157143Y-119042857D01*
X160157143Y-119185714D01*
X160109524Y-119280952D01*
X160061905Y-119328571D01*
X159966667Y-119376190D01*
X159585714Y-119376190D01*
X160538095Y-118947619D02*
X160585714Y-118900000D01*
X160680952Y-118852381D01*
X160919048Y-118852381D01*
X161014286Y-118900000D01*
X161061905Y-118947619D01*
X161109524Y-119042857D01*
X161109524Y-119138095D01*
X161061905Y-119280952D01*
X160490476Y-119852381D01*
X161109524Y-119852381D01*
X161966667Y-119185714D02*
X161966667Y-119852381D01*
X161728571Y-118804762D02*
X161490476Y-119519048D01*
X162109524Y-119519048D01*
X160157143Y-112452381D02*
X159823809Y-111976190D01*
X159585714Y-112452381D02*
X159585714Y-111452381D01*
X159966667Y-111452381D01*
X160061905Y-111500000D01*
X160109524Y-111547619D01*
X160157143Y-111642857D01*
X160157143Y-111785714D01*
X160109524Y-111880952D01*
X160061905Y-111928571D01*
X159966667Y-111976190D01*
X159585714Y-111976190D01*
X160538095Y-111547619D02*
X160585714Y-111500000D01*
X160680952Y-111452381D01*
X160919048Y-111452381D01*
X161014286Y-111500000D01*
X161061905Y-111547619D01*
X161109524Y-111642857D01*
X161109524Y-111738095D01*
X161061905Y-111880952D01*
X160490476Y-112452381D01*
X161109524Y-112452381D01*
X162014286Y-111452381D02*
X161538095Y-111452381D01*
X161490476Y-111928571D01*
X161538095Y-111880952D01*
X161633333Y-111833333D01*
X161871429Y-111833333D01*
X161966667Y-111880952D01*
X162014286Y-111928571D01*
X162061905Y-112023810D01*
X162061905Y-112261905D01*
X162014286Y-112357143D01*
X161966667Y-112404762D01*
X161871429Y-112452381D01*
X161633333Y-112452381D01*
X161538095Y-112404762D01*
X161490476Y-112357143D01*
X160157143Y-116252381D02*
X159823809Y-115776190D01*
X159585714Y-116252381D02*
X159585714Y-115252381D01*
X159966667Y-115252381D01*
X160061905Y-115300000D01*
X160109524Y-115347619D01*
X160157143Y-115442857D01*
X160157143Y-115585714D01*
X160109524Y-115680952D01*
X160061905Y-115728571D01*
X159966667Y-115776190D01*
X159585714Y-115776190D01*
X160538095Y-115347619D02*
X160585714Y-115300000D01*
X160680952Y-115252381D01*
X160919048Y-115252381D01*
X161014286Y-115300000D01*
X161061905Y-115347619D01*
X161109524Y-115442857D01*
X161109524Y-115538095D01*
X161061905Y-115680952D01*
X160490476Y-116252381D01*
X161109524Y-116252381D01*
X161966667Y-115252381D02*
X161776190Y-115252381D01*
X161680952Y-115300000D01*
X161633333Y-115347619D01*
X161538095Y-115490476D01*
X161490476Y-115680952D01*
X161490476Y-116061905D01*
X161538095Y-116157143D01*
X161585714Y-116204762D01*
X161680952Y-116252381D01*
X161871429Y-116252381D01*
X161966667Y-116204762D01*
X162014286Y-116157143D01*
X162061905Y-116061905D01*
X162061905Y-115823810D01*
X162014286Y-115728571D01*
X161966667Y-115680952D01*
X161871429Y-115633333D01*
X161680952Y-115633333D01*
X161585714Y-115680952D01*
X161538095Y-115728571D01*
X161490476Y-115823810D01*
X159452381Y-109642857D02*
X158976190Y-109976191D01*
X159452381Y-110214286D02*
X158452381Y-110214286D01*
X158452381Y-109833333D01*
X158500000Y-109738095D01*
X158547619Y-109690476D01*
X158642857Y-109642857D01*
X158785714Y-109642857D01*
X158880952Y-109690476D01*
X158928571Y-109738095D01*
X158976190Y-109833333D01*
X158976190Y-110214286D01*
X158547619Y-109261905D02*
X158500000Y-109214286D01*
X158452381Y-109119048D01*
X158452381Y-108880952D01*
X158500000Y-108785714D01*
X158547619Y-108738095D01*
X158642857Y-108690476D01*
X158738095Y-108690476D01*
X158880952Y-108738095D01*
X159452381Y-109309524D01*
X159452381Y-108690476D01*
X158452381Y-108357143D02*
X158452381Y-107690476D01*
X159452381Y-108119048D01*
X153852381Y-109642857D02*
X153376190Y-109976191D01*
X153852381Y-110214286D02*
X152852381Y-110214286D01*
X152852381Y-109833333D01*
X152900000Y-109738095D01*
X152947619Y-109690476D01*
X153042857Y-109642857D01*
X153185714Y-109642857D01*
X153280952Y-109690476D01*
X153328571Y-109738095D01*
X153376190Y-109833333D01*
X153376190Y-110214286D01*
X152947619Y-109261905D02*
X152900000Y-109214286D01*
X152852381Y-109119048D01*
X152852381Y-108880952D01*
X152900000Y-108785714D01*
X152947619Y-108738095D01*
X153042857Y-108690476D01*
X153138095Y-108690476D01*
X153280952Y-108738095D01*
X153852381Y-109309524D01*
X153852381Y-108690476D01*
X153280952Y-108119048D02*
X153233333Y-108214286D01*
X153185714Y-108261905D01*
X153090476Y-108309524D01*
X153042857Y-108309524D01*
X152947619Y-108261905D01*
X152900000Y-108214286D01*
X152852381Y-108119048D01*
X152852381Y-107928571D01*
X152900000Y-107833333D01*
X152947619Y-107785714D01*
X153042857Y-107738095D01*
X153090476Y-107738095D01*
X153185714Y-107785714D01*
X153233333Y-107833333D01*
X153280952Y-107928571D01*
X153280952Y-108119048D01*
X153328571Y-108214286D01*
X153376190Y-108261905D01*
X153471429Y-108309524D01*
X153661905Y-108309524D01*
X153757143Y-108261905D01*
X153804762Y-108214286D01*
X153852381Y-108119048D01*
X153852381Y-107928571D01*
X153804762Y-107833333D01*
X153757143Y-107785714D01*
X153661905Y-107738095D01*
X153471429Y-107738095D01*
X153376190Y-107785714D01*
X153328571Y-107833333D01*
X153280952Y-107928571D01*
X167757143Y-82052381D02*
X167423809Y-81576190D01*
X167185714Y-82052381D02*
X167185714Y-81052381D01*
X167566667Y-81052381D01*
X167661905Y-81100000D01*
X167709524Y-81147619D01*
X167757143Y-81242857D01*
X167757143Y-81385714D01*
X167709524Y-81480952D01*
X167661905Y-81528571D01*
X167566667Y-81576190D01*
X167185714Y-81576190D01*
X168138095Y-81147619D02*
X168185714Y-81100000D01*
X168280952Y-81052381D01*
X168519048Y-81052381D01*
X168614286Y-81100000D01*
X168661905Y-81147619D01*
X168709524Y-81242857D01*
X168709524Y-81338095D01*
X168661905Y-81480952D01*
X168090476Y-82052381D01*
X168709524Y-82052381D01*
X169185714Y-82052381D02*
X169376190Y-82052381D01*
X169471429Y-82004762D01*
X169519048Y-81957143D01*
X169614286Y-81814286D01*
X169661905Y-81623810D01*
X169661905Y-81242857D01*
X169614286Y-81147619D01*
X169566667Y-81100000D01*
X169471429Y-81052381D01*
X169280952Y-81052381D01*
X169185714Y-81100000D01*
X169138095Y-81147619D01*
X169090476Y-81242857D01*
X169090476Y-81480952D01*
X169138095Y-81576190D01*
X169185714Y-81623810D01*
X169280952Y-81671429D01*
X169471429Y-81671429D01*
X169566667Y-81623810D01*
X169614286Y-81576190D01*
X169661905Y-81480952D01*
X167114286Y-78452381D02*
X167685715Y-78452381D01*
X167400000Y-79452381D02*
X167400000Y-78452381D01*
X168019048Y-79452381D02*
X168019048Y-78452381D01*
X168019048Y-78928571D02*
X168590477Y-78928571D01*
X168590477Y-79452381D02*
X168590477Y-78452381D01*
X169590477Y-79452381D02*
X169019048Y-79452381D01*
X169304762Y-79452381D02*
X169304762Y-78452381D01*
X169209524Y-78595238D01*
X169114286Y-78690476D01*
X169019048Y-78738095D01*
X130552381Y-101561905D02*
X131361905Y-101561905D01*
X131457143Y-101514286D01*
X131504762Y-101466667D01*
X131552381Y-101371429D01*
X131552381Y-101180952D01*
X131504762Y-101085714D01*
X131457143Y-101038095D01*
X131361905Y-100990476D01*
X130552381Y-100990476D01*
X131552381Y-99990476D02*
X131552381Y-100561905D01*
X131552381Y-100276191D02*
X130552381Y-100276191D01*
X130695238Y-100371429D01*
X130790476Y-100466667D01*
X130838095Y-100561905D01*
X182638095Y-126252381D02*
X182638095Y-127061905D01*
X182685714Y-127157143D01*
X182733333Y-127204762D01*
X182828571Y-127252381D01*
X183019048Y-127252381D01*
X183114286Y-127204762D01*
X183161905Y-127157143D01*
X183209524Y-127061905D01*
X183209524Y-126252381D01*
X183638095Y-126347619D02*
X183685714Y-126300000D01*
X183780952Y-126252381D01*
X184019048Y-126252381D01*
X184114286Y-126300000D01*
X184161905Y-126347619D01*
X184209524Y-126442857D01*
X184209524Y-126538095D01*
X184161905Y-126680952D01*
X183590476Y-127252381D01*
X184209524Y-127252381D01*
X157288095Y-137002381D02*
X157288095Y-137811905D01*
X157335714Y-137907143D01*
X157383333Y-137954762D01*
X157478571Y-138002381D01*
X157669048Y-138002381D01*
X157764286Y-137954762D01*
X157811905Y-137907143D01*
X157859524Y-137811905D01*
X157859524Y-137002381D01*
X158240476Y-137002381D02*
X158859524Y-137002381D01*
X158526190Y-137383333D01*
X158669048Y-137383333D01*
X158764286Y-137430952D01*
X158811905Y-137478571D01*
X158859524Y-137573810D01*
X158859524Y-137811905D01*
X158811905Y-137907143D01*
X158764286Y-137954762D01*
X158669048Y-138002381D01*
X158383333Y-138002381D01*
X158288095Y-137954762D01*
X158240476Y-137907143D01*
X159252381Y-95661905D02*
X160061905Y-95661905D01*
X160157143Y-95614286D01*
X160204762Y-95566667D01*
X160252381Y-95471429D01*
X160252381Y-95280952D01*
X160204762Y-95185714D01*
X160157143Y-95138095D01*
X160061905Y-95090476D01*
X159252381Y-95090476D01*
X159585714Y-94185714D02*
X160252381Y-94185714D01*
X159204762Y-94423810D02*
X159919048Y-94661905D01*
X159919048Y-94042857D01*
X226852381Y-61761905D02*
X227661905Y-61761905D01*
X227757143Y-61714286D01*
X227804762Y-61666667D01*
X227852381Y-61571429D01*
X227852381Y-61380952D01*
X227804762Y-61285714D01*
X227757143Y-61238095D01*
X227661905Y-61190476D01*
X226852381Y-61190476D01*
X226852381Y-60238095D02*
X226852381Y-60714286D01*
X227328571Y-60761905D01*
X227280952Y-60714286D01*
X227233333Y-60619048D01*
X227233333Y-60380952D01*
X227280952Y-60285714D01*
X227328571Y-60238095D01*
X227423810Y-60190476D01*
X227661905Y-60190476D01*
X227757143Y-60238095D01*
X227804762Y-60285714D01*
X227852381Y-60380952D01*
X227852381Y-60619048D01*
X227804762Y-60714286D01*
X227757143Y-60761905D01*
X207938095Y-107652381D02*
X207938095Y-108461905D01*
X207985714Y-108557143D01*
X208033333Y-108604762D01*
X208128571Y-108652381D01*
X208319048Y-108652381D01*
X208414286Y-108604762D01*
X208461905Y-108557143D01*
X208509524Y-108461905D01*
X208509524Y-107652381D01*
X209414286Y-107652381D02*
X209223809Y-107652381D01*
X209128571Y-107700000D01*
X209080952Y-107747619D01*
X208985714Y-107890476D01*
X208938095Y-108080952D01*
X208938095Y-108461905D01*
X208985714Y-108557143D01*
X209033333Y-108604762D01*
X209128571Y-108652381D01*
X209319048Y-108652381D01*
X209414286Y-108604762D01*
X209461905Y-108557143D01*
X209509524Y-108461905D01*
X209509524Y-108223810D01*
X209461905Y-108128571D01*
X209414286Y-108080952D01*
X209319048Y-108033333D01*
X209128571Y-108033333D01*
X209033333Y-108080952D01*
X208985714Y-108128571D01*
X208938095Y-108223810D01*
X140238095Y-125752381D02*
X140238095Y-126561905D01*
X140285714Y-126657143D01*
X140333333Y-126704762D01*
X140428571Y-126752381D01*
X140619048Y-126752381D01*
X140714286Y-126704762D01*
X140761905Y-126657143D01*
X140809524Y-126561905D01*
X140809524Y-125752381D01*
X141190476Y-125752381D02*
X141857143Y-125752381D01*
X141428571Y-126752381D01*
X127423809Y-114676190D02*
X127423809Y-115152381D01*
X127090476Y-114152381D02*
X127423809Y-114676190D01*
X127757143Y-114152381D01*
X128614286Y-115152381D02*
X128042857Y-115152381D01*
X128328571Y-115152381D02*
X128328571Y-114152381D01*
X128233333Y-114295238D01*
X128138095Y-114390476D01*
X128042857Y-114438095D01*
M02*
