G04 #@! TF.FileFunction,Soldermask,Top*
%FSLAX46Y46*%
G04 Gerber Fmt 4.6, Leading zero omitted, Abs format (unit mm)*
G04 Created by KiCad (PCBNEW 4.0.0-stable) date Thursday, 26 May 2016 'pmt' 07:34:14 pm*
%MOMM*%
G01*
G04 APERTURE LIST*
%ADD10C,0.100000*%
%ADD11C,4.000000*%
%ADD12R,1.700000X1.700000*%
%ADD13C,1.700000*%
%ADD14R,2.000000X2.400000*%
%ADD15R,1.900000X1.650000*%
%ADD16R,1.650000X1.900000*%
%ADD17R,4.900880X3.699460*%
%ADD18R,4.898340X3.699460*%
%ADD19R,2.701240X3.900120*%
%ADD20R,1.200100X2.200860*%
%ADD21R,1.200100X1.200100*%
%ADD22R,2.000000X3.400000*%
%ADD23R,1.598880X1.598880*%
%ADD24C,2.940000*%
%ADD25R,6.200000X2.500000*%
%ADD26R,3.900000X3.900000*%
%ADD27C,3.900000*%
%ADD28O,3.400000X3.100000*%
%ADD29R,3.400000X3.100000*%
%ADD30R,1.160000X2.800000*%
%ADD31R,3.448000X2.051000*%
%ADD32R,6.496000X6.496000*%
%ADD33R,2.200860X1.200100*%
%ADD34R,1.900000X1.700000*%
%ADD35R,1.700000X1.900000*%
%ADD36R,3.600000X3.100000*%
%ADD37R,0.800000X1.750000*%
%ADD38R,1.000000X1.750000*%
%ADD39R,2.050000X2.800000*%
%ADD40R,1.200000X0.800000*%
%ADD41R,1.460000X1.050000*%
%ADD42R,0.700000X1.700000*%
%ADD43R,1.100000X2.600000*%
%ADD44R,2.600000X1.100000*%
%ADD45R,5.900000X2.400000*%
%ADD46C,4.100000*%
%ADD47C,1.900000*%
G04 APERTURE END LIST*
D10*
D11*
X155900000Y-72000000D03*
D12*
X208800000Y-122600000D03*
D13*
X213800000Y-122600000D03*
D14*
X186600000Y-127200000D03*
X186600000Y-131200000D03*
D15*
X156550000Y-130000000D03*
X159050000Y-130000000D03*
D16*
X164000000Y-135250000D03*
X164000000Y-132750000D03*
X152600000Y-135250000D03*
X152600000Y-132750000D03*
X204800000Y-112350000D03*
X204800000Y-109850000D03*
D15*
X210750000Y-106600000D03*
X213250000Y-106600000D03*
D16*
X183600000Y-131450000D03*
X183600000Y-128950000D03*
X175200000Y-124150000D03*
X175200000Y-126650000D03*
X172400000Y-124150000D03*
X172400000Y-126650000D03*
D15*
X224350000Y-73800000D03*
X226850000Y-73800000D03*
D16*
X178600000Y-134050000D03*
X178600000Y-131550000D03*
X221400000Y-64350000D03*
X221400000Y-66850000D03*
X151200000Y-92450000D03*
X151200000Y-89950000D03*
D15*
X156450000Y-99000000D03*
X153950000Y-99000000D03*
X137750000Y-134600000D03*
X140250000Y-134600000D03*
X139250000Y-92200000D03*
X136750000Y-92200000D03*
X139250000Y-94400000D03*
X136750000Y-94400000D03*
D16*
X126400000Y-67350000D03*
X126400000Y-64850000D03*
D15*
X133550000Y-119200000D03*
X136050000Y-119200000D03*
X136350000Y-109800000D03*
X138850000Y-109800000D03*
D16*
X136800000Y-67950000D03*
X136800000Y-65450000D03*
D15*
X136350000Y-107400000D03*
X138850000Y-107400000D03*
X141050000Y-119200000D03*
X138550000Y-119200000D03*
D16*
X133900000Y-78650000D03*
X133900000Y-81150000D03*
X126400000Y-78550000D03*
X126400000Y-81050000D03*
X126600000Y-92650000D03*
X126600000Y-90150000D03*
X126600000Y-99750000D03*
X126600000Y-102250000D03*
X156200000Y-103750000D03*
X156200000Y-106250000D03*
D17*
X179600720Y-92000000D03*
D18*
X188399280Y-92000000D03*
D17*
X209600720Y-92000000D03*
D18*
X218399280Y-92000000D03*
D17*
X179600720Y-72000000D03*
D18*
X188399280Y-72000000D03*
D17*
X209600720Y-72000000D03*
D18*
X218399280Y-72000000D03*
D19*
X200800000Y-126300020D03*
X200800000Y-120899980D03*
D20*
X191650000Y-128401140D03*
X193550000Y-128401140D03*
X192600000Y-125398860D03*
D21*
X151699240Y-94650000D03*
X151699240Y-96550000D03*
X153698220Y-95600000D03*
D22*
X122600000Y-113450000D03*
X122600000Y-118350000D03*
X122600000Y-127950000D03*
X122600000Y-123050000D03*
D23*
X156849020Y-121000000D03*
X154750980Y-121000000D03*
X156849020Y-113800000D03*
X154750980Y-113800000D03*
X156849020Y-117400000D03*
X154750980Y-117400000D03*
D22*
X122600000Y-63150000D03*
X122600000Y-68050000D03*
X133000000Y-64250000D03*
X133000000Y-69150000D03*
X130200000Y-82450000D03*
X130200000Y-77550000D03*
X122600000Y-82450000D03*
X122600000Y-77550000D03*
X122800000Y-88750000D03*
X122800000Y-93650000D03*
X122800000Y-103650000D03*
X122800000Y-98750000D03*
D21*
X148799240Y-104050000D03*
X148799240Y-105950000D03*
X150798220Y-105000000D03*
D24*
X198500000Y-136500000D03*
X198500000Y-131500000D03*
X213500000Y-136500000D03*
X213500000Y-131500000D03*
D25*
X173400000Y-129850000D03*
X173400000Y-133750000D03*
D26*
X225000000Y-127800000D03*
D27*
X225000000Y-122720000D03*
D26*
X225000000Y-84600000D03*
D27*
X225000000Y-79520000D03*
D26*
X225000000Y-114700000D03*
D27*
X225000000Y-109620000D03*
D28*
X115400000Y-82500000D03*
X115400000Y-79000000D03*
D29*
X115400000Y-58000000D03*
D28*
X115400000Y-61500000D03*
X115400000Y-65000000D03*
X115400000Y-68500000D03*
X115400000Y-72000000D03*
X115400000Y-75500000D03*
D29*
X115400000Y-89200000D03*
D28*
X115400000Y-92700000D03*
X115400000Y-96200000D03*
X115400000Y-99700000D03*
X115400000Y-103200000D03*
D29*
X115400000Y-109200000D03*
D28*
X115400000Y-112700000D03*
X115400000Y-116200000D03*
X115400000Y-119700000D03*
X115400000Y-123200000D03*
X115400000Y-126700000D03*
D30*
X144900000Y-60350000D03*
X144900000Y-64250000D03*
X143630000Y-60350000D03*
X143630000Y-64250000D03*
X142360000Y-60350000D03*
X142360000Y-64250000D03*
X141090000Y-60350000D03*
X141090000Y-64250000D03*
X139820000Y-60350000D03*
X139820000Y-64250000D03*
D31*
X187000000Y-102286000D03*
D32*
X180650000Y-100000000D03*
D31*
X187000000Y-97714000D03*
X217000000Y-102286000D03*
D32*
X210650000Y-100000000D03*
D31*
X217000000Y-97714000D03*
X187000000Y-65286000D03*
D32*
X180650000Y-63000000D03*
D31*
X187000000Y-60714000D03*
X217000000Y-65286000D03*
D32*
X210650000Y-63000000D03*
D31*
X217000000Y-60714000D03*
D33*
X149098860Y-112850000D03*
X149098860Y-114750000D03*
X152101140Y-113800000D03*
X149098860Y-116450000D03*
X149098860Y-118350000D03*
X152101140Y-117400000D03*
D34*
X187050000Y-105400000D03*
X189750000Y-105400000D03*
D35*
X217400000Y-105250000D03*
X217400000Y-107950000D03*
X189400000Y-126950000D03*
X189400000Y-124250000D03*
X186600000Y-124150000D03*
X186600000Y-121450000D03*
D34*
X182750000Y-124000000D03*
X180050000Y-124000000D03*
D36*
X163800000Y-96750000D03*
X163800000Y-88850000D03*
D34*
X172450000Y-121400000D03*
X175150000Y-121400000D03*
X193350000Y-65400000D03*
X190650000Y-65400000D03*
X223950000Y-60200000D03*
X221250000Y-60200000D03*
X153850000Y-84200000D03*
X156550000Y-84200000D03*
X156550000Y-81600000D03*
X153850000Y-81600000D03*
D35*
X169600000Y-126750000D03*
X169600000Y-124050000D03*
D34*
X178050000Y-121400000D03*
X180750000Y-121400000D03*
X153850000Y-86800000D03*
X156550000Y-86800000D03*
X156550000Y-79000000D03*
X153850000Y-79000000D03*
D35*
X153800000Y-92550000D03*
X153800000Y-89850000D03*
D34*
X141150000Y-57200000D03*
X138450000Y-57200000D03*
D35*
X148300000Y-60950000D03*
X148300000Y-63650000D03*
X150900000Y-63650000D03*
X150900000Y-60950000D03*
X153600000Y-61050000D03*
X153600000Y-63750000D03*
D34*
X132750000Y-128200000D03*
X130050000Y-128200000D03*
D35*
X127400000Y-128850000D03*
X127400000Y-131550000D03*
D34*
X130050000Y-132200000D03*
X132750000Y-132200000D03*
X162350000Y-121000000D03*
X159650000Y-121000000D03*
X162350000Y-113800000D03*
X159650000Y-113800000D03*
X162350000Y-117400000D03*
X159650000Y-117400000D03*
D35*
X159000000Y-106350000D03*
X159000000Y-103650000D03*
X153400000Y-103650000D03*
X153400000Y-106350000D03*
D34*
X162850000Y-81600000D03*
X165550000Y-81600000D03*
X165550000Y-79000000D03*
X162850000Y-79000000D03*
D37*
X133100000Y-103725000D03*
X133750000Y-103725000D03*
X134400000Y-103725000D03*
X135050000Y-103725000D03*
X133100000Y-97875000D03*
X133750000Y-97875000D03*
X134400000Y-97875000D03*
X135050000Y-97875000D03*
X137650000Y-97875000D03*
X137650000Y-97875000D03*
D38*
X141000000Y-97875000D03*
D37*
X140250000Y-97875000D03*
X139600000Y-97875000D03*
X138950000Y-97875000D03*
X138300000Y-97875000D03*
X137650000Y-97875000D03*
X137000000Y-97875000D03*
X136350000Y-97875000D03*
X135700000Y-97875000D03*
D38*
X132350000Y-97875000D03*
X132350000Y-103725000D03*
D37*
X135700000Y-103725000D03*
X136350000Y-103725000D03*
X137000000Y-103725000D03*
X137650000Y-103725000D03*
X138300000Y-103725000D03*
X138950000Y-103725000D03*
X139600000Y-103725000D03*
X140250000Y-103725000D03*
D38*
X141000000Y-103725000D03*
D39*
X179465000Y-127355000D03*
D40*
X180940000Y-128330000D03*
X180940000Y-127680000D03*
X180940000Y-127030000D03*
X180940000Y-126380000D03*
X177990000Y-126380000D03*
X177990000Y-127030000D03*
X177990000Y-127680000D03*
X177990000Y-128330000D03*
D41*
X159100000Y-135950000D03*
X159100000Y-135000000D03*
X159100000Y-134050000D03*
X156900000Y-134050000D03*
X156900000Y-135950000D03*
D42*
X158400000Y-89800000D03*
X157750000Y-89800000D03*
X157100000Y-89800000D03*
X156450000Y-89800000D03*
X156450000Y-95800000D03*
X157100000Y-95800000D03*
X157750000Y-95800000D03*
X158400000Y-95800000D03*
D43*
X224095000Y-69100000D03*
X225365000Y-69100000D03*
X226635000Y-69100000D03*
X227905000Y-69100000D03*
X227905000Y-63700000D03*
X226635000Y-63700000D03*
X225365000Y-63700000D03*
X224095000Y-63700000D03*
D44*
X209100000Y-109895000D03*
X209100000Y-111165000D03*
X209100000Y-112435000D03*
X209100000Y-113705000D03*
X214500000Y-113705000D03*
X214500000Y-112435000D03*
X214500000Y-111165000D03*
X214500000Y-109895000D03*
X141700000Y-132105000D03*
X141700000Y-130835000D03*
X141700000Y-129565000D03*
X141700000Y-128295000D03*
X136300000Y-128295000D03*
X136300000Y-129565000D03*
X136300000Y-130835000D03*
X136300000Y-132105000D03*
D45*
X132050000Y-114800000D03*
X141550000Y-114800000D03*
D46*
X225500000Y-93100000D03*
X225500000Y-135800000D03*
X114300000Y-135400000D03*
X128100000Y-59100000D03*
D47*
X157700000Y-61400000D03*
X158700000Y-65800000D03*
X188100000Y-109500000D03*
X194200000Y-115400000D03*
X150000000Y-97000000D03*
X150200000Y-101000000D03*
M02*
